<svg width="40" height="40" viewBox="0 0 40 40" fill="none" xmlns="http://www.w3.org/2000/svg">
<g clip-path="url(#clip0_1_19954)">
<path fill-rule="evenodd" clip-rule="evenodd" d="M40 20C40 31.046 31.046 40 20 40C8.954 40 0 31.046 0 20C0 8.954 8.954 0 20 0C31.046 0 40 8.954 40 20Z" fill="#E2E2E2"/>
<path fill-rule="evenodd" clip-rule="evenodd" d="M20 20.0002C22.7943 20.0002 25.0595 17.7349 25.0595 14.9406C25.0595 12.1463 22.7943 9.8811 20 9.8811C17.2057 9.8811 14.9405 12.1463 14.9405 14.9406C14.9405 17.7349 17.2057 20.0002 20 20.0002ZM13.8406 22.3618C17.9004 21.4596 22.1076 21.4593 26.1581 22.3615C28.4774 22.8695 30.119 24.933 30.119 27.296V28.0954C30.119 29.2108 29.2106 30.1192 28.0952 30.1192H11.9048C10.7894 30.1192 9.88095 29.2108 9.88095 28.0954V27.296C9.88095 24.9283 11.5268 22.8802 13.8389 22.3622L13.8406 22.3618Z" fill="#F7F7F7"/>
</g>
<defs>
<clipPath id="clip0_1_19954">
<rect width="40" height="40" fill="white"/>
</clipPath>
</defs>
</svg>
