<svg width="16" height="16" viewBox="0 0 16 16" fill="none" xmlns="http://www.w3.org/2000/svg">
<path d="M13.2638 3.22565H2.73612C1.90552 3.22565 1.23218 3.89899 1.23218 4.72959V12.2493C1.23218 13.0799 1.90552 13.7533 2.73612 13.7533H13.2638C14.0944 13.7533 14.7677 13.0799 14.7677 12.2493V4.72959C14.7677 3.89899 14.0944 3.22565 13.2638 3.22565Z" fill="#B7B7B7"/>
<path d="M7.99985 11.8734C9.86871 11.8734 11.3837 10.3583 11.3837 8.48947C11.3837 6.62061 9.86871 5.10559 7.99985 5.10559C6.13098 5.10559 4.61597 6.62061 4.61597 8.48947C4.61597 10.3583 6.13098 11.8734 7.99985 11.8734Z" fill="white"/>
<path d="M7.99982 10.7453C9.24573 10.7453 10.2557 9.73529 10.2557 8.48938C10.2557 7.24347 9.24573 6.23346 7.99982 6.23346C6.75391 6.23346 5.7439 7.24347 5.7439 8.48938C5.7439 9.73529 6.75391 10.7453 7.99982 10.7453Z" fill="#B7B7B7"/>
<path d="M4.23999 3.50395L4.78141 2.41359C4.90925 2.15791 5.17244 2 5.45819 2H10.5415C10.8273 2 11.0905 2.15791 11.2108 2.41359L11.7522 3.50395H4.23999Z" fill="#B7B7B7"/>
</svg>
