<svg width="56" height="56" viewBox="0 0 56 56" fill="none" xmlns="http://www.w3.org/2000/svg">
<path fill-rule="evenodd" clip-rule="evenodd" d="M56 28C56 43.4644 43.4644 56 28 56C12.5356 56 0 43.4644 0 28C0 12.5356 12.5356 0 28 0C43.4644 0 56 12.5356 56 28Z" fill="#FFF4CD"/>
<g clip-path="url(#clip0_1_20697)">
<path fill-rule="evenodd" clip-rule="evenodd" d="M37.421 21.0109C36.8231 20.413 35.8538 20.413 35.256 21.0109C34.6582 21.6087 34.6582 22.578 35.256 23.1758L37.0133 24.9331L35.256 26.6904C34.6582 27.2882 34.6582 28.2575 35.256 28.8553C35.8538 29.4531 36.8231 29.4531 37.421 28.8553L39.1782 27.0981L40.9355 28.8553C41.5333 29.4531 42.5026 29.4531 43.1004 28.8553C43.6983 28.2575 43.6983 27.2882 43.1004 26.6904L41.3432 24.9331L43.1004 23.1758C43.6983 22.578 43.6983 21.6087 43.1004 21.0109C42.5026 20.413 41.5333 20.413 40.9355 21.0109L39.1782 22.7681L37.421 21.0109Z" fill="#D68D00"/>
<path d="M26.2501 27.1389C29.8783 27.1389 32.8196 24.1976 32.8196 20.5694C32.8196 16.9412 29.8783 14 26.2501 14C22.6219 14 19.6807 16.9412 19.6807 20.5694C19.6807 24.1976 22.6219 27.1389 26.2501 27.1389Z" fill="#FFC700"/>
<path d="M36.75 40.2501H15.75C14.3056 40.2501 13.125 39.0696 13.125 37.6251V36.5834C13.125 33.4862 15.2361 30.8473 18.2639 30.1807C23.4861 29.014 29.0139 29.014 34.2361 30.1807C37.2639 30.8473 39.375 33.4862 39.375 36.5834V37.6251C39.375 39.0696 38.1944 40.2501 36.75 40.2501Z" fill="#FFC700"/>
</g>
<defs>
<clipPath id="clip0_1_20697">
<rect width="31.5" height="31.5" fill="white" transform="translate(13.125 11.375)"/>
</clipPath>
</defs>
</svg>
