<svg width="29" height="28" viewBox="0 0 29 28" fill="none" xmlns="http://www.w3.org/2000/svg">
<g id="close">
<rect x="0.5" width="28" height="28" rx="14" fill="#EFF1F1"/>
<path id="Vector" d="M20.2338 8.27531C19.8788 7.92036 19.3055 7.92036 18.9505 8.27531L14.5 12.7167L10.0495 8.26621C9.69454 7.91126 9.12116 7.91126 8.76621 8.26621C8.41126 8.62116 8.41126 9.19454 8.76621 9.54949L13.2167 14L8.76621 18.4505C8.41126 18.8055 8.41126 19.3788 8.76621 19.7338C9.12116 20.0887 9.69454 20.0887 10.0495 19.7338L14.5 15.2833L18.9505 19.7338C19.3055 20.0887 19.8788 20.0887 20.2338 19.7338C20.5887 19.3788 20.5887 18.8055 20.2338 18.4505L15.7833 14L20.2338 9.54949C20.5796 9.20364 20.5796 8.62116 20.2338 8.27531Z" fill="#A9ACAC"/>
</g>
</svg>
