<svg width="28" height="28" viewBox="0 0 28 28" fill="none" xmlns="http://www.w3.org/2000/svg">
<path d="M11.7133 11.2699L16.66 16.2165L10.045 22.8315L4.76 23.1699L5.09834 17.8849L11.7133 11.2699ZM11.7133 7.96821L3.44167 16.2399C3.045 16.6365 2.8 17.1732 2.765 17.7449L2.33334 24.4182C2.275 25.0832 2.74167 25.5849 3.395 25.5849C3.43 25.5849 3.465 25.5849 3.5 25.5849L10.185 25.1532C10.7567 25.1182 11.2817 24.8732 11.69 24.4765L19.9617 16.2049L11.7133 7.95654V7.96821Z" fill="#333333"/>
<path d="M18.305 4.66683L23.2517 9.6135L20.7783 12.0868L15.8317 7.14016L18.305 4.66683ZM18.305 2.3335C17.71 2.3335 17.115 2.56683 16.66 3.02183L12.53 7.15183L20.7783 15.4002L24.9083 11.2702C25.8183 10.3602 25.8183 8.8785 24.9083 7.9685L19.9617 3.02183C19.5067 2.56683 18.9117 2.3335 18.3167 2.3335L18.305 2.3335Z" fill="#333333"/>
</svg>
