<svg width="24" height="24" viewBox="0 0 24 24" fill="none" xmlns="http://www.w3.org/2000/svg">
<path d="M12 22C17.5228 22 22 17.5228 22 12C22 6.47715 17.5228 2 12 2C6.47715 2 2 6.47715 2 12C2 17.5228 6.47715 22 12 22Z" fill="#D0D0D0"/>
<path fill-rule="evenodd" clip-rule="evenodd" d="M17.6566 7.75242C18.0474 8.14266 18.0478 8.77583 17.6576 9.16663L10.5876 16.2466C10.4001 16.4344 10.1457 16.5399 9.88034 16.54C9.615 16.5401 9.3605 16.4348 9.17288 16.2471L6.34288 13.4171C5.95236 13.0266 5.95236 12.3934 6.34288 12.0029C6.73341 11.6124 7.36657 11.6124 7.75709 12.0029L9.87949 14.1253L16.2424 7.75342C16.6326 7.36261 17.2658 7.36217 17.6566 7.75242Z" fill="white"/>
</svg>
