<svg width="28" height="28" viewBox="0 0 28 28" fill="none" xmlns="http://www.w3.org/2000/svg">
<path fill-rule="evenodd" clip-rule="evenodd" d="M13.9999 5.83333C10.7826 5.83333 8.16659 8.44933 8.16659 11.6667V12.25V19.6817C8.16659 20.44 7.44325 21.0117 6.70825 20.8133C4.18825 20.16 2.33325 17.885 2.33325 15.1667C2.33325 12.6869 3.88317 10.5669 6.06648 9.72327C6.93979 6.15362 10.1635 3.5 13.9999 3.5C17.8364 3.5 21.06 6.15362 21.9334 9.72327C24.1167 10.5669 25.6666 12.6869 25.6666 15.1667C25.6666 17.5167 24.2802 19.5441 22.2762 20.465L19.5999 24.0334C19.3796 24.3272 19.0338 24.5001 18.6666 24.5001H13.9999C13.3556 24.5001 12.8333 23.9777 12.8333 23.3334C12.8333 22.6891 13.3556 22.1667 13.9999 22.1667H18.0833L19.8417 19.8222C19.8361 19.7762 19.8333 19.7293 19.8333 19.6817V12.2521L19.8333 12.25V11.6667C19.8333 8.44933 17.2173 5.83333 13.9999 5.83333Z" fill="#D0D0D0"/>
</svg>
