<svg width="24" height="24" viewBox="0 0 24 24" fill="none" xmlns="http://www.w3.org/2000/svg">
<path fill-rule="evenodd" clip-rule="evenodd" d="M15.4998 12.0001C15.4998 12.5524 15.052 13.0001 14.4998 13.0001L5.49976 13.0001C4.94747 13.0001 4.49976 12.5524 4.49976 12.0001C4.49976 11.4478 4.94747 11.0001 5.49976 11.0001L14.4998 11.0001C15.052 11.0001 15.4998 11.4478 15.4998 12.0001Z" fill="#D0D0D0"/>
<path fill-rule="evenodd" clip-rule="evenodd" d="M7.87862 7.29301C8.26914 7.68354 8.26914 8.3167 7.87862 8.70723L5.29283 11.293C4.9023 11.6835 4.9023 12.3167 5.29283 12.7072L7.87862 15.293C8.26914 15.6835 8.26914 16.3167 7.87861 16.7072C7.48809 17.0978 6.85493 17.0978 6.4644 16.7072L3.87862 14.1214C2.70704 12.9499 2.70704 11.0504 3.87861 9.8788L6.4644 7.29301C6.85493 6.90249 7.48809 6.90249 7.87862 7.29301Z" fill="#D0D0D0"/>
<path d="M11 8.44457V6.00012C11 4.89555 11.8954 4.00012 13 4.00012H19C20.1046 4.00012 21 4.89555 21 6.00012V18.0001C21 19.1047 20.1046 20.0001 19 20.0001H13C11.8954 20.0001 11 19.1047 11 18.0001V16.0001" stroke="#D0D0D0" stroke-width="2" stroke-linecap="round"/>
</svg>
