<svg width="16" height="16" viewBox="0 0 16 16" fill="none" xmlns="http://www.w3.org/2000/svg">
<circle cx="8" cy="8" r="8" fill="#EFEFEF"/>
<path fill-rule="evenodd" clip-rule="evenodd" d="M8.12091 9.42917C7.85425 9.42917 7.63758 9.2125 7.63758 8.94583C7.63758 7.96667 8.24591 7.57917 8.69175 7.29167C9.07091 7.05 9.28758 6.89583 9.37091 6.53333C9.44175 6.21667 9.38758 5.94167 9.20008 5.70833C8.96258 5.40833 8.53758 5.21667 8.12091 5.21667C7.43758 5.21667 6.88341 5.77083 6.88341 6.45417C6.88341 6.72083 6.66675 6.9375 6.40008 6.9375C6.13341 6.9375 5.91675 6.72083 5.91675 6.45417C5.91675 5.2375 6.90425 4.25 8.12091 4.25C8.82925 4.25 9.53341 4.57917 9.95425 5.10417C10.3209 5.56667 10.4501 6.15 10.3126 6.75C10.1376 7.51667 9.60425 7.85833 9.21258 8.10833C8.79175 8.37917 8.60425 8.51667 8.60425 8.95C8.60425 9.21667 8.38758 9.43333 8.12091 9.43333M8.12925 10.2125C7.70425 10.2125 7.35841 10.5583 7.35841 10.9833C7.35841 11.4083 7.70425 11.7542 8.12925 11.7542C8.55425 11.7542 8.90008 11.4083 8.90008 10.9833C8.90008 10.5583 8.55425 10.2125 8.12925 10.2125Z" fill="#949494"/>
</svg>
