<svg width="28" height="28" viewBox="0 0 28 28" fill="none" xmlns="http://www.w3.org/2000/svg">
<path d="M14 25.6666C20.4433 25.6666 25.6667 20.4432 25.6667 13.9999C25.6667 7.5566 20.4433 2.33325 14 2.33325C7.55668 2.33325 2.33334 7.5566 2.33334 13.9999C2.33334 20.4432 7.55668 25.6666 14 25.6666Z" fill="#EFEFEF"/>
<path fill-rule="evenodd" clip-rule="evenodd" d="M20.5994 9.0445C21.0553 9.49978 21.0558 10.2385 20.6005 10.6944L12.3522 18.9544C12.1335 19.1735 11.8366 19.2966 11.5271 19.2967C11.2175 19.2968 10.9206 19.1739 10.7017 18.955L7.40004 15.6533C6.94443 15.1977 6.94443 14.459 7.40004 14.0034C7.85565 13.5478 8.59435 13.5478 9.04996 14.0034L11.5261 16.4795L18.9495 9.04566C19.4047 8.58973 20.1434 8.58921 20.5994 9.0445Z" fill="white"/>
</svg>
