<svg width="28" height="28" viewBox="0 0 28 28" fill="none" xmlns="http://www.w3.org/2000/svg">
<path fill-rule="evenodd" clip-rule="evenodd" d="M16.7564 4.39572C16.621 3.23881 15.6305 2.33337 14.4388 2.33337C13.2485 2.33337 12.2589 3.22663 12.1217 4.38943C8.09247 5.42159 5.10539 9.08054 5.10539 13.4401V16.6601C5.10539 16.8467 5.05872 17.0217 4.97705 17.1851L3.62372 19.9151C3.23872 20.6851 3.79872 21.6067 4.66205 21.6067L10.9388 21.6067C10.9388 23.5434 12.5021 25.1067 14.4388 25.1067C16.3754 25.1067 17.9388 23.5434 17.9388 21.6067L24.2154 21.6067C25.0787 21.6067 25.6504 20.6967 25.2537 19.9151L23.8887 17.1851C23.8071 17.0217 23.7604 16.8467 23.7604 16.6601H23.772V13.7551C23.772 9.37097 20.8489 5.4771 16.7564 4.39572Z" fill="#D0D0D0"/>
</svg>
