<svg width="28" height="28" viewBox="0 0 28 28" fill="none" xmlns="http://www.w3.org/2000/svg">
<path fill-rule="evenodd" clip-rule="evenodd" d="M14.3384 18.0017C13.5917 18.0017 12.9851 17.395 12.9851 16.6483C12.9851 13.9067 14.6884 12.8217 15.9367 12.0167C16.9984 11.34 17.6051 10.9083 17.8384 9.89333C18.0367 9.00667 17.8851 8.23667 17.3601 7.58333C16.6951 6.74333 15.5051 6.20667 14.3384 6.20667C12.4251 6.20667 10.8734 7.75833 10.8734 9.67167C10.8734 10.4183 10.2667 11.025 9.52008 11.025C8.77341 11.025 8.16675 10.4183 8.16675 9.67167C8.16675 6.265 10.9317 3.5 14.3384 3.5C16.3217 3.5 18.2934 4.42167 19.4717 5.89167C20.4984 7.18667 20.8601 8.82 20.4751 10.5C19.9851 12.6467 18.4917 13.6033 17.3951 14.3033C16.2167 15.0617 15.6917 15.4467 15.6917 16.66C15.6917 17.4067 15.0851 18.0133 14.3384 18.0133M14.3617 20.195C13.1717 20.195 12.2034 21.1633 12.2034 22.3533C12.2034 23.5433 13.1717 24.5117 14.3617 24.5117C15.5517 24.5117 16.5201 23.5433 16.5201 22.3533C16.5201 21.1633 15.5517 20.195 14.3617 20.195Z" fill="#D0D0D0"/>
</svg>
