<svg width="20" height="21" viewBox="0 0 20 21" fill="none" xmlns="http://www.w3.org/2000/svg">
<path fill-rule="evenodd" clip-rule="evenodd" d="M9.99997 4.34054V2.32397C9.99997 1.92397 9.57497 1.69897 9.2833 1.94897L5.99997 4.79897C5.77497 4.99064 5.77497 5.3573 5.99997 5.54897L9.2833 8.39897C9.56663 8.64897 9.99997 8.42397 9.99997 8.02397V6.0072C12.7647 6.00723 14.9999 8.24246 14.9999 11.0072C14.9999 13.772 12.7647 16.0072 9.99992 16.0072C7.23516 16.0072 4.99992 13.772 4.99992 11.0072C4.99992 10.547 4.62682 10.1739 4.16659 10.1739C3.70635 10.1739 3.33325 10.547 3.33325 11.0072C3.33325 14.6924 6.31468 17.6739 9.99992 17.6739C13.6852 17.6739 16.6666 14.6924 16.6666 11.0072C16.6666 7.32198 13.6852 4.34056 9.99997 4.34054Z" fill="#707070"/>
</svg>
