<svg width="25" height="24" viewBox="0 0 25 24" fill="none" xmlns="http://www.w3.org/2000/svg">
<g clip-path="url(#clip0_1809_1770)">
<path d="M15.45 17.14V17.65C15.45 18.36 14.87 18.94 14.16 18.94H22.16C22.87 18.94 23.45 18.36 23.45 17.65V17.14C23.45 15.61 22.41 14.31 20.92 13.98C19.63 13.69 18.31 13.55 16.98 13.55C15.65 13.55 14.33 13.69 13.04 13.98C13.02 13.98 13 13.99 12.98 14C14.44 14.35 15.45 15.63 15.45 17.14Z" fill="#E2E2E2"/>
<path d="M16.7676 11.6711C18.7807 11.6711 20.4127 10.0392 20.4127 8.02605C20.4127 6.01293 18.7807 4.38098 16.7676 4.38098C14.7545 4.38098 13.1226 6.01293 13.1226 8.02605C13.1226 10.0392 14.7545 11.6711 16.7676 11.6711Z" fill="#E2E2E2"/>
<path d="M22.5953 18.95H10.9401C10.1413 18.95 9.47754 18.2975 9.47754 17.4875V16.9137C9.47754 15.1924 10.6476 13.7299 12.3238 13.3586C15.2264 12.7174 18.2865 12.7174 21.189 13.3586C22.8653 13.7299 24.0353 15.1924 24.0353 16.9137V17.4875C24.0353 18.2862 23.3828 18.95 22.5728 18.95H22.5953Z" fill="#E2E2E2"/>
<path d="M7.76763 11.6711C9.78142 11.6711 11.4127 10.0398 11.4127 8.02605C11.4127 6.01226 9.78142 4.38098 7.76763 4.38098C5.75384 4.38098 4.12256 6.01226 4.12256 8.02605C4.12256 10.0398 5.75384 11.6711 7.76763 11.6711Z" fill="#E2E2E2"/>
<path d="M8.3639 16.9137C8.3639 15.3274 9.12891 13.9211 10.3552 13.0548C8.02639 12.7623 5.6301 12.8523 3.3463 13.3586C1.67002 13.7298 0.5 15.1924 0.5 16.9137V17.4874C0.5 18.2862 1.15251 18.9387 1.95128 18.9387H8.82516C8.5439 18.5224 8.37515 18.0274 8.37515 17.4874V16.9137H8.3639Z" fill="#E2E2E2"/>
</g>
<defs>
<clipPath id="clip0_1809_1770">
<rect width="24" height="24" fill="white" transform="translate(0.5)"/>
</clipPath>
</defs>
</svg>
