<svg width="28" height="28" viewBox="0 0 28 28" fill="none" xmlns="http://www.w3.org/2000/svg">
<path fill-rule="evenodd" clip-rule="evenodd" d="M8.62169 4.81494C5.95679 4.81494 2.48169 7.27015 2.48169 11.8766C2.48169 13.6748 3.24347 15.3322 4.29018 16.7661C5.33894 18.2029 6.71798 19.4769 8.06518 20.5289C9.41661 21.5842 10.7639 22.4375 11.7721 23.0268C12.2772 23.3221 12.6996 23.5525 12.998 23.7102C13.1472 23.7891 13.2656 23.8498 13.348 23.8915C13.4267 23.9314 13.4831 23.959 13.4737 23.9543C13.5972 24.0161 13.7335 24.0483 13.8717 24.0483C13.9713 24.0427 14.1032 24.0177 14.1364 24.008C14.153 24.0027 14.1792 23.9935 14.1891 23.9898C14.2067 23.9831 14.2205 23.9772 14.2253 23.9752C14.2372 23.97 14.2473 23.9654 14.2524 23.9631L14.2657 23.9569L14.2894 23.9456C14.3149 23.9333 14.3491 23.9166 14.3909 23.8957C14.4748 23.8538 14.5941 23.7931 14.7437 23.7144C15.0429 23.5571 15.4657 23.327 15.971 23.032C16.9796 22.4429 18.327 21.5892 19.6784 20.5331C21.0257 19.4803 22.4047 18.2052 23.4534 16.7675C24.5 15.3328 25.2617 13.6747 25.2617 11.8766C25.2617 7.24917 21.6955 4.81494 19.1217 4.81494C16.6594 4.81494 14.9899 6.17723 14.0991 7.45809C13.9868 7.61667 13.7566 7.61667 13.6443 7.4581C12.759 6.185 11.1731 4.81494 8.62169 4.81494Z" fill="#D0D0D0"/>
</svg>
