<svg width="20" height="20" viewBox="0 0 20 20" fill="none" xmlns="http://www.w3.org/2000/svg">
<path fill-rule="evenodd" clip-rule="evenodd" d="M13.0917 8.33335C13.0917 5.70835 10.9584 3.57502 8.33335 3.57502C5.70835 3.57502 3.57502 5.70835 3.57502 8.33335C3.57502 10.9584 5.70835 13.0917 8.33335 13.0917C10.9584 13.0917 13.0917 10.9584 13.0917 8.33335ZM1.66669 8.33335C1.66669 4.65002 4.65002 1.66669 8.33335 1.66669C12.0167 1.66669 15 4.65002 15 8.33335C15 9.87507 14.4773 11.2941 13.5994 12.4231L17.9147 16.7384C18.2401 17.0638 18.2401 17.5915 17.9147 17.9169C17.5893 18.2424 17.0616 18.2424 16.7362 17.9169L12.4207 13.6014C11.2921 14.4781 9.87394 15 8.33335 15C4.65002 15 1.66669 12.0167 1.66669 8.33335Z" fill="#B7B7B7"/>
</svg>
