<svg width="65" height="64" viewBox="0 0 65 64" fill="none" xmlns="http://www.w3.org/2000/svg">
<path fill-rule="evenodd" clip-rule="evenodd" d="M64.5 32C64.5 49.6736 50.1736 64 32.5 64C14.8264 64 0.5 49.6736 0.5 32C0.5 14.3264 14.8264 0 32.5 0C50.1736 0 64.5 14.3264 64.5 32Z" fill="#FCEDE8"/>
<g clip-path="url(#clip0_1998_6532)">
<path fill-rule="evenodd" clip-rule="evenodd" d="M43.2667 24.0124C42.5835 23.3292 41.4757 23.3292 40.7925 24.0124C40.1092 24.6957 40.1092 25.8034 40.7925 26.4867L42.8008 28.495L40.7925 30.5033C40.1092 31.1865 40.1092 32.2943 40.7925 32.9775C41.4757 33.6607 42.5835 33.6607 43.2667 32.9775L45.275 30.9692L47.2833 32.9775C47.9665 33.6607 49.0743 33.6607 49.7575 32.9775C50.4408 32.2943 50.4408 31.1865 49.7575 30.5033L47.7492 28.495L49.7575 26.4867C50.4408 25.8034 50.4408 24.6957 49.7575 24.0124C49.0743 23.3292 47.9665 23.3292 47.2833 24.0124L45.275 26.0207L43.2667 24.0124Z" fill="#CB3D0B"/>
<path d="M30.5 31.0159C34.6465 31.0159 38.0079 27.6545 38.0079 23.5079C38.0079 19.3614 34.6465 16 30.5 16C26.3535 16 22.9921 19.3614 22.9921 23.5079C22.9921 27.6545 26.3535 31.0159 30.5 31.0159Z" fill="#F49779"/>
<path d="M42.5 46H18.5C16.8492 46 15.5 44.6508 15.5 43V41.8095C15.5 38.2698 17.9127 35.254 21.373 34.4921C27.3413 33.1587 33.6587 33.1587 39.627 34.4921C43.0873 35.254 45.5 38.2698 45.5 41.8095V43C45.5 44.6508 44.1508 46 42.5 46Z" fill="#F49779"/>
</g>
<defs>
<clipPath id="clip0_1998_6532">
<rect width="36" height="36" fill="white" transform="translate(15.5 13)"/>
</clipPath>
</defs>
</svg>
