<svg width="20" height="20" viewBox="0 0 20 20" fill="none" xmlns="http://www.w3.org/2000/svg">
<g id="Component 83">
<path id="Vector" d="M9.99996 18.3333C14.6023 18.3333 18.3333 14.6023 18.3333 9.99996C18.3333 5.39759 14.6023 1.66663 9.99996 1.66663C5.39759 1.66663 1.66663 5.39759 1.66663 9.99996C1.66663 14.6023 5.39759 18.3333 9.99996 18.3333Z" fill="#149D9D"/>
<path id="Vector (Stroke)" fill-rule="evenodd" clip-rule="evenodd" d="M14.7138 6.46034C15.0395 6.78554 15.0398 7.31318 14.7146 7.63885L8.82296 13.5388C8.66672 13.6953 8.4547 13.7833 8.23359 13.7833C8.01247 13.7834 7.80039 13.6956 7.64404 13.5393L5.2857 11.1809C4.96027 10.8555 4.96027 10.3279 5.2857 10.0024C5.61114 9.67698 6.13878 9.67698 6.46421 10.0024L8.23288 11.7711L13.5353 6.46117C13.8605 6.1355 14.3881 6.13513 14.7138 6.46034Z" fill="white"/>
</g>
</svg>
