<svg width="28" height="29" viewBox="0 0 28 29" fill="none" xmlns="http://www.w3.org/2000/svg">
<g id="close">
<rect y="0.5" width="28" height="28" rx="14" fill="#EFEFEF"/>
<path id="Vector" d="M19.7338 8.77531C19.3788 8.42036 18.8055 8.42036 18.4505 8.77531L14 13.2167L9.54949 8.76621C9.19454 8.41126 8.62116 8.41126 8.26621 8.76621C7.91126 9.12116 7.91126 9.69454 8.26621 10.0495L12.7167 14.5L8.26621 18.9505C7.91126 19.3055 7.91126 19.8788 8.26621 20.2338C8.62116 20.5887 9.19454 20.5887 9.54949 20.2338L14 15.7833L18.4505 20.2338C18.8055 20.5887 19.3788 20.5887 19.7338 20.2338C20.0887 19.8788 20.0887 19.3055 19.7338 18.9505L15.2833 14.5L19.7338 10.0495C20.0796 9.70364 20.0796 9.12116 19.7338 8.77531Z" fill="#B7B7B7"/>
</g>
</svg>
