<svg width="148" height="138" viewBox="0 0 148 138" fill="none" xmlns="http://www.w3.org/2000/svg">
<g id="Layer_1" clip-path="url(#clip0_1196_6502)">
<path id="Vector" d="M2.14629 30.9142L0.103892 23.7692C-0.298668 22.3592 0.515332 20.8899 1.92429 20.487L74.1335 0L146.079 20.487C147.488 20.8928 148.299 22.3621 147.897 23.7722L145.845 30.9142C145.44 32.3242 143.972 33.1359 142.563 32.733L74.1246 13.2532L5.42597 32.736C4.01701 33.1388 2.54885 32.3242 2.14629 30.9142Z" fill="#FFC700"/>
<path id="Vector_2" d="M48.8401 114.302C69.2746 114.302 85.8401 97.7238 85.8401 77.2736C85.8401 56.8235 69.2746 40.2454 48.8401 40.2454C28.4056 40.2454 11.8401 56.8235 11.8401 77.2736C11.8401 97.7238 28.4056 114.302 48.8401 114.302Z" fill="#8CD7D7"/>
<path id="Vector_3" d="M99.1599 138C119.594 138 136.16 121.422 136.16 100.972C136.16 80.5215 119.594 63.9434 99.1599 63.9434C78.7254 63.9434 62.1599 80.5215 62.1599 100.972C62.1599 121.422 78.7254 138 99.1599 138Z" fill="#FFC700"/>
</g>
<defs>
<clipPath id="clip0_1196_6502">
<rect width="148" height="138" fill="white"/>
</clipPath>
</defs>
</svg>
