<svg width="240" height="82" viewBox="0 0 240 82" fill="none" xmlns="http://www.w3.org/2000/svg">
<g clip-path="url(#clip0_971_21303)">
<path d="M21.1615 60.3148C8.35546 60.3148 0 50.9877 0 37.8526C0 23.7837 9.21435 15.0007 21.6298 15.0007C25.3781 15.0007 30.6097 15.8556 33.4208 18.4209L30.3758 29.3804C29.2825 28.2922 26.7837 27.4372 23.8948 27.4372C17.882 27.4372 15.1488 31.7898 15.071 37.3859C14.9926 45.2361 19.2876 47.8013 24.0509 47.8013C29.9853 47.8013 34.0458 42.8267 34.2802 37.1526V15.9341H49.5073V60.8589C49.5073 76.3264 40.3713 82 25.1442 82C18.1948 82 7.18434 79.6681 2.8899 77.3367L6.32546 64.5124C13.2749 67.4659 21.0059 68.3988 24.9103 68.3988C31.0008 68.3988 34.2802 66.8443 34.2802 61.6369V54.2529C31.2352 58.9162 26.4714 60.3153 21.162 60.3153L21.1615 60.3148Z" fill="#312B24"/>
<path d="M95.5002 48.345L98.0769 59.6153C91.5958 62.258 84.8803 62.9575 79.5704 62.9575C60.9861 62.9575 52.2401 54.1745 52.2401 40.7282V39.3296C52.2401 28.7584 60.2828 15.8562 76.9937 14.8459C92.7669 13.9135 100.576 21.6857 100.185 31.7898C99.7952 43.2155 89.1753 46.7131 79.4143 46.7131C74.1043 46.7131 69.966 45.5474 66.296 43.6817C66.9205 48.4234 72.3087 50.9877 81.3665 50.9877C85.3487 50.9877 92.6891 49.5891 95.5002 48.345ZM85.6614 31.4011C85.6614 28.9912 84.0998 26.8152 79.2582 26.8152C74.4166 26.8152 69.8877 28.9138 67.6233 33.4217C70.4343 35.0541 74.4166 36.1423 78.0087 36.1423C81.0537 36.1423 85.6609 35.2874 85.6609 31.4011H85.6614Z" fill="#312B24"/>
<path d="M145.039 48.345L147.616 59.6153C141.135 62.258 134.419 62.9575 129.11 62.9575C110.526 62.9575 101.78 54.1745 101.78 40.7282V39.3296C101.78 28.7584 109.822 15.8562 126.533 14.8459C142.307 13.9135 150.115 21.6857 149.724 31.7898C149.334 43.2155 138.714 46.7131 128.954 46.7131C123.644 46.7131 119.506 45.5474 115.836 43.6817C116.46 48.4234 121.848 50.9877 130.906 50.9877C134.888 50.9877 142.229 49.5891 145.04 48.345H145.039ZM135.201 31.4011C135.201 28.9912 133.639 26.8152 128.797 26.8152C123.956 26.8152 119.427 28.9138 117.162 33.4217C119.973 35.0541 123.956 36.1423 127.548 36.1423C130.593 36.1423 135.2 35.2874 135.2 31.4011H135.201Z" fill="#312B24"/>
<path d="M168.001 0V31.7898C177.606 29.4579 182.682 24.095 183.229 16.0116H197.44C196.893 25.7269 191.271 33.2668 183.853 38.3183L199.003 62.5688H182.762L172.062 43.9145C170.735 44.3032 169.33 44.6145 168.002 44.8469V62.5683H152.854V0H168.002H168.001Z" fill="#312B24"/>
<path d="M221.96 26.8932C218.212 26.8932 216.494 27.8255 216.338 29.3805C216.103 31.479 217.665 32.1006 220.164 32.6447C223.521 33.3443 228.675 34.51 232.189 35.9869C238.28 38.5522 241.325 44.4592 239.451 52.2319C237.889 58.605 232.736 62.4546 221.179 62.4546C213.605 62.4546 205.874 59.8356 199.002 56.8041L201.813 44.3681C205.327 46.6216 215.088 49.7078 219.695 49.7078C222.35 49.7078 224.693 49.7441 224.927 48.0342C225.239 45.9357 223.677 45.0807 220.788 44.2258C217.587 43.2935 212.511 42.3606 209.232 41.039C204.234 39.0184 200.954 35.132 201.267 28.2148C201.657 17.0999 212.354 14.6125 221.569 14.6125C227.66 14.6125 234.297 15.7783 239.06 17.9548L236.562 29.6133C232.891 27.9814 226.098 26.8932 221.96 26.8932Z" fill="#312B24"/>
</g>
<defs>
<clipPath id="clip0_971_21303">
<rect width="240" height="82" fill="white"/>
</clipPath>
</defs>
</svg>
