<svg width="198" height="80" viewBox="0 0 198 80" fill="none" xmlns="http://www.w3.org/2000/svg">
<g clip-path="url(#clip0_612_8575)">
<path d="M105.669 21.5386C116.629 21.5386 124.118 29.7336 124.118 41.4708C124.118 42.1442 124.072 42.8527 124.007 43.5669C123.87 45.0596 122.633 46.1966 121.165 46.1966H97.2024C96.0942 46.1966 95.4201 47.421 95.9742 48.4035C97.9908 51.969 101.804 54.0767 106.597 54.0767C112.033 54.0767 114.304 52.2138 116.666 50.4734C117.26 50.0361 118.088 50.1439 118.568 50.7095L121.77 54.4849C122.267 55.0738 122.227 55.9542 121.679 56.4936C118.117 60.0066 114.769 62.505 106.523 62.505C94.8659 62.505 85.9912 53.6015 85.9912 42.0218C85.9912 30.442 94.4832 21.5386 105.674 21.5386H105.669ZM95.9057 38.949H114.518C115.072 38.949 115.478 38.4213 115.355 37.8733C114.235 32.9143 110.347 29.8881 105.514 29.8881C100.682 29.8881 96.2598 33.0338 95.0716 37.8587C94.9345 38.4126 95.3458 38.949 95.9057 38.949Z" fill="#333333"/>
<path d="M64.1085 21.5386C75.0684 21.5386 82.5578 29.7336 82.5578 41.4708C82.5578 42.1442 82.5121 42.8527 82.4464 43.5669C82.3093 45.0596 81.0725 46.1966 79.6043 46.1966H55.6422C54.5339 46.1966 53.8598 47.421 54.4139 48.4035C56.4306 51.969 60.2438 54.0767 65.0368 54.0767C70.4725 54.0767 72.7433 52.2138 75.1055 50.4734C75.6997 50.0361 76.528 50.1439 77.0079 50.7095L80.2099 54.4849C80.7069 55.0738 80.6669 55.9542 80.1185 56.4936C76.5566 60.0066 73.2089 62.505 64.9625 62.505C53.3057 62.505 44.4309 53.6015 44.4309 42.0218C44.4309 30.442 52.9229 21.5386 64.1142 21.5386H64.1085ZM54.3454 38.949H72.9575C73.5117 38.949 73.9173 38.4213 73.7945 37.8733C72.6748 32.9143 68.7872 29.8881 63.9542 29.8881C59.1213 29.8881 54.6996 33.0338 53.5113 37.8587C53.3742 38.4126 53.7855 38.949 54.3454 38.949Z" fill="#333333"/>
<path d="M168.783 50.2926C169.26 49.6541 170.149 49.5346 170.78 50.0127C173.768 52.2809 177.898 54.0767 181.723 54.0767C185.547 54.0767 188.592 52.4208 188.592 50.2955C188.592 46.9866 183.731 45.9633 180.874 45.1733C174.545 43.3599 165.975 41.4708 165.975 33.0396C165.975 26.343 172.382 21.5356 181.106 21.5356C186.587 21.5356 191.686 23.4306 195.41 26.3868C196.016 26.8678 196.139 27.7541 195.69 28.3896L192.888 32.3632C192.434 33.0046 191.571 33.1475 190.923 32.7131C188.158 30.856 184.348 29.9668 181.106 29.9668C177.092 29.9668 175.161 31.3837 175.161 33.1183C175.161 35.2465 179.02 36.1124 183.191 37.1357C190.832 38.949 197.704 41.704 197.704 50.2139C197.704 57.304 190.834 62.505 181.494 62.505C175.564 62.505 170.16 60.4788 165.715 56.7414C165.118 56.2399 165.007 55.3507 165.476 54.721L168.786 50.2897L168.783 50.2926Z" fill="#333333"/>
<path d="M162.562 21.5327H154.593C153.919 21.5327 153.276 21.8388 152.842 22.3665L140.939 36.8441C140.254 37.6779 138.923 37.1823 138.923 36.0949V22.9962C138.923 22.1916 138.283 21.5385 137.494 21.5385H131.256C130.468 21.5385 129.828 22.1916 129.828 22.9962V61.0502C129.828 61.8549 130.468 62.5079 131.256 62.5079H137.494C138.283 62.5079 138.923 61.8549 138.923 61.0502V53.6861C138.923 53.3421 139.043 53.0097 139.26 52.7473L141.459 50.0827C141.913 49.5317 142.745 49.5288 143.202 50.0769L152.927 61.6945C153.362 62.2134 153.996 62.5108 154.664 62.5108H162.611C163.573 62.5108 164.104 61.368 163.496 60.6071L149.571 43.2083C148.877 42.3395 148.886 41.0889 149.594 40.2288L163.439 23.451C164.064 22.693 163.536 21.5327 162.565 21.5327H162.562Z" fill="#333333"/>
<path d="M38.7125 21.5327H32.4599C31.6715 21.5327 31.0317 22.1858 31.0317 22.9904V23.2586C31.0317 24.1565 30.0805 24.7163 29.3207 24.2673C26.4329 22.5589 23.1909 21.5385 19.1434 21.5385C9.73167 21.5385 0 29.3779 0 42.0218C0 52.0593 8.85476 61.3388 19.1434 61.3388C22.791 61.3388 25.8588 60.5546 28.5123 59.1261C29.6549 58.511 31.0317 59.3273 31.0317 60.645V61.7178C31.0317 67.6272 26.8642 71.1723 19.6833 71.1723C16.3242 71.1723 11.8654 69.5018 8.80049 67.3066C8.17209 66.8576 7.30661 67.0092 6.84673 67.636L3.26769 72.5221C2.8021 73.1576 2.92493 74.0497 3.53334 74.5454C7.98928 78.1808 13.8906 79.9971 19.5262 79.9971C32.3399 79.9971 40.1349 72.8282 40.1349 61.0881V22.9904C40.1349 22.1858 39.4951 21.5327 38.7067 21.5327H38.7125ZM20.046 52.7036C13.9477 52.7036 9.00615 47.66 9.00615 41.4358C9.00615 35.2115 13.9477 30.168 20.046 30.168C26.1444 30.168 31.0859 35.2115 31.0859 41.4358C31.0859 47.66 26.1444 52.7036 20.046 52.7036Z" fill="#333333"/>
<path d="M45.5792 16.9761L44.4795 13.052C44.2624 12.2794 44.7023 11.4719 45.4592 11.2503L84.343 0L123.084 11.2503C123.841 11.4719 124.281 12.2794 124.061 13.0549L122.956 16.979C122.738 17.7515 121.947 18.2005 121.187 17.976L84.3373 7.27962L47.3444 17.9789C46.5875 18.2005 45.7963 17.7515 45.5792 16.979V16.9761Z" fill="#FFC700"/>
</g>
<defs>
<clipPath id="clip0_612_8575">
<rect width="197.701" height="80" fill="white"/>
</clipPath>
</defs>
</svg>
