<svg width="24" height="24" viewBox="0 0 24 24" fill="none" xmlns="http://www.w3.org/2000/svg">
<g id="Component 83">
<path id="Vector" d="M12 22C17.5228 22 22 17.5228 22 12C22 6.47715 17.5228 2 12 2C6.47715 2 2 6.47715 2 12C2 17.5228 6.47715 22 12 22Z" fill="#FFC700"/>
<path id="Vector (Stroke)" fill-rule="evenodd" clip-rule="evenodd" d="M17.6566 7.75235C18.0474 8.1426 18.0478 8.77577 17.6576 9.16657L10.5876 16.2466C10.4001 16.4343 10.1457 16.5399 9.88034 16.54C9.615 16.5401 9.3605 16.4347 9.17288 16.2471L6.34288 13.4171C5.95236 13.0265 5.95236 12.3934 6.34288 12.0029C6.73341 11.6123 7.36657 11.6123 7.75709 12.0029L9.87949 14.1252L16.2424 7.75335C16.6326 7.36255 17.2658 7.36211 17.6566 7.75235Z" fill="white"/>
</g>
</svg>
