<svg width="65" height="64" viewBox="0 0 65 64" fill="none" xmlns="http://www.w3.org/2000/svg">
<path fill-rule="evenodd" clip-rule="evenodd" d="M64.5 32C64.5 49.6736 50.1736 64 32.5 64C14.8264 64 0.5 49.6736 0.5 32C0.5 14.3264 14.8264 0 32.5 0C50.1736 0 64.5 14.3264 64.5 32Z" fill="#FFF4CD"/>
<g clip-path="url(#clip0_1_13831)">
<path fill-rule="evenodd" clip-rule="evenodd" d="M39.125 28.1958C39.125 27.2531 39.8892 26.4889 40.8319 26.4889H49.7931C50.7358 26.4889 51.5 27.2531 51.5 28.1958C51.5 29.1385 50.7358 29.9027 49.7931 29.9027H40.8319C39.8892 29.9027 39.125 29.1385 39.125 28.1958Z" fill="#D68D00"/>
<path fill-rule="evenodd" clip-rule="evenodd" d="M45.3243 22C46.267 22.0018 47.0297 22.7675 47.0279 23.7101L47.0109 32.6714C47.0091 33.614 46.2434 34.3768 45.3007 34.375C44.358 34.3732 43.5953 33.6075 43.5971 32.6649L43.6141 23.7036C43.6159 22.761 44.3816 21.9982 45.3243 22Z" fill="#D68D00"/>
<path d="M30.5 31.0159C34.6465 31.0159 38.0079 27.6544 38.0079 23.5079C38.0079 19.3614 34.6465 16 30.5 16C26.3535 16 22.992 19.3614 22.992 23.5079C22.992 27.6544 26.3535 31.0159 30.5 31.0159Z" fill="#FFC700"/>
<path d="M42.5 45.9999H18.5C16.8492 45.9999 15.5 44.6507 15.5 42.9999V41.8094C15.5 38.2697 17.9127 35.2538 21.373 34.4919C27.3413 33.1586 33.6587 33.1586 39.627 34.4919C43.0873 35.2538 45.5 38.2697 45.5 41.8094V42.9999C45.5 44.6507 44.1508 45.9999 42.5 45.9999Z" fill="#FFC700"/>
</g>
<defs>
<clipPath id="clip0_1_13831">
<rect width="36" height="36" fill="white" transform="translate(15.5 13)"/>
</clipPath>
</defs>
</svg>
