<svg width="25" height="24" viewBox="0 0 25 24" fill="none" xmlns="http://www.w3.org/2000/svg">
<g clip-path="url(#clip0_703_2024)">
<path d="M12.5354 20C18.0583 20 22.5354 16.1944 22.5354 11.5C22.5354 6.80558 18.0583 3 12.5354 3C7.0126 3 2.53545 6.80558 2.53545 11.5C2.53545 16.1944 7.0126 20 12.5354 20Z" fill="#E2E2E2"/>
<path d="M15.6654 19.0499C15.4754 19.0499 18.3854 20.2799 20.5154 21.1599C21.3254 21.4999 22.1454 20.6999 21.8354 19.8799L19.8354 14.6899L15.6654 19.0599V19.0499Z" fill="#E2E2E2"/>
</g>
<path d="M8.53545 13C9.08773 13 9.53545 12.5523 9.53545 12C9.53545 11.4477 9.08773 11 8.53545 11C7.98316 11 7.53545 11.4477 7.53545 12C7.53545 12.5523 7.98316 13 8.53545 13Z" fill="white"/>
<path d="M12.5354 13C13.0877 13 13.5354 12.5523 13.5354 12C13.5354 11.4477 13.0877 11 12.5354 11C11.9832 11 11.5354 11.4477 11.5354 12C11.5354 12.5523 11.9832 13 12.5354 13Z" fill="white"/>
<path d="M16.5354 13C17.0877 13 17.5354 12.5523 17.5354 12C17.5354 11.4477 17.0877 11 16.5354 11C15.9832 11 15.5354 11.4477 15.5354 12C15.5354 12.5523 15.9832 13 16.5354 13Z" fill="white"/>
<defs>
<clipPath id="clip0_703_2024">
<rect width="20" height="18.24" fill="white" transform="translate(2.53545 3)"/>
</clipPath>
</defs>
</svg>
