<svg width="17" height="17" viewBox="0 0 17 17" fill="none" xmlns="http://www.w3.org/2000/svg">
<path d="M8.5 15.0485C12.1819 15.0485 15.1667 12.0637 15.1667 8.38182C15.1667 4.69992 12.1819 1.71515 8.5 1.71515C4.8181 1.71515 1.83333 4.69992 1.83333 8.38182C1.83333 12.0637 4.8181 15.0485 8.5 15.0485Z" fill="#D1C4AF"/>
<path fill-rule="evenodd" clip-rule="evenodd" d="M8.49999 4.38184C8.86818 4.38184 9.16666 4.68031 9.16666 5.0485V9.0485C9.16666 9.41669 8.86818 9.71517 8.49999 9.71517C8.13181 9.71517 7.83333 9.41669 7.83333 9.0485V5.0485C7.83333 4.68031 8.13181 4.38184 8.49999 4.38184Z" fill="white"/>
<path d="M8.49999 12.3819C8.86818 12.3819 9.16666 12.0834 9.16666 11.7152C9.16666 11.347 8.86818 11.0485 8.49999 11.0485C8.13181 11.0485 7.83333 11.347 7.83333 11.7152C7.83333 12.0834 8.13181 12.3819 8.49999 12.3819Z" fill="white"/>
</svg>
