<svg width="290" height="52" viewBox="0 0 290 52" fill="none" xmlns="http://www.w3.org/2000/svg">
<path d="M5.85938 40.0293C5.85938 42.2715 7.11719 44.5 8.99023 45.3477L8.19727 46.3867C6.80273 45.6895 5.75684 44.3018 5.2168 42.627C4.67676 44.3906 3.60352 45.8809 2.19531 46.6191L1.375 45.5664C3.27539 44.6641 4.54688 42.2988 4.54688 40.0293V37.9375H5.85938V40.0293ZM11.6562 36.9121V49.1895H10.3711V42.0391H7.63672V40.9863H10.3711V36.9121H11.6562ZM24.7539 46.6055V47.6992H13.543V46.6055H18.4785V44.459H14.9102V40.5625H22.1016V38.8398H14.8828V37.7734H23.3867V41.6016H16.1953V43.3926H23.6738V44.459H19.7637V46.6055H24.7539ZM38.6855 36.9121V39.4688H40.4629V40.5488H38.6855V43.1055H37.3867V36.9121H38.6855ZM38.6855 43.666V46.7695H32.0684V47.9727H39.1094V49.0117H30.7969V45.7988H37.4004V44.6777H30.7695V43.666H38.6855ZM32.4648 37.3359C34.3242 37.3359 35.6777 38.457 35.6777 40.0703C35.6777 41.6836 34.3242 42.8047 32.4648 42.8047C30.6055 42.8047 29.2383 41.6836 29.252 40.0703C29.2383 38.457 30.6055 37.3359 32.4648 37.3359ZM32.4648 38.4023C31.3301 38.4023 30.5098 39.0723 30.5098 40.0703C30.5098 41.0684 31.3301 41.7656 32.4648 41.7656C33.5859 41.7656 34.4199 41.0684 34.4199 40.0703C34.4199 39.0723 33.5859 38.4023 32.4648 38.4023ZM44.4414 37.8281C46.2734 37.8281 47.5723 39.4961 47.5859 42.1211C47.5723 44.7598 46.2734 46.4277 44.4414 46.4277C42.6094 46.4277 41.2969 44.7598 41.3105 42.1211C41.2969 39.4961 42.6094 37.8281 44.4414 37.8281ZM44.4414 38.9902C43.3203 38.9902 42.5547 40.1934 42.5547 42.1211C42.5547 44.0625 43.3203 45.2656 44.4414 45.2656C45.5762 45.2656 46.3418 44.0625 46.3418 42.1211C46.3418 40.1934 45.5762 38.9902 44.4414 38.9902ZM50.7031 36.9121V41.7109H52.6719V42.8047H50.7031V49.1621H49.4043V36.9121H50.7031ZM62.8027 36.9121V41.793H64.7031V42.873H62.8027V49.1484H61.5039V36.9121H62.8027ZM59.6035 38.1973C59.5898 41.7383 58.0312 44.8965 53.998 46.8926L53.2734 45.8809C56.3428 44.3496 58.0107 42.1348 58.2773 39.2773H53.8887V38.1973H59.6035ZM75.5449 36.9121V49.1621H74.2324V36.9121H75.5449ZM71.8945 38.2246C71.8945 41.8066 70.3633 44.9238 66.166 46.9336L65.4824 45.8809C68.7432 44.3291 70.3291 42.1211 70.582 39.2637H66.0703V38.2246H71.8945Z" fill="#AF7400"/>
<path d="M137.24 43.1055V44.1445H132.277V45.2793H135.846V49.0117H127.52V45.2793H130.992V44.1445H126.029V43.1055H137.24ZM128.805 46.3047V47.959H134.561V46.3047H128.805ZM135.832 37.1855V40.1797H128.75V41.2188H136.078V42.2578H127.465V39.2363H134.533V38.1836H127.438V37.1855H135.832ZM143.311 38.293V41.4785H144.951V37.1445H146.195V48.5605H144.951V42.5449H143.311V45.9355H138.553V38.293H143.311ZM139.783 39.3184V44.8965H142.094V39.3184H139.783ZM148.684 36.9121V49.1621H147.439V36.9121H148.684ZM163.818 36.9258V45.8945H162.52V36.9258H163.818ZM164.188 47.8496V48.9023H155.807V45.0469H157.119V47.8496H164.188ZM158.117 38.8125C158.104 40.6035 159.252 42.2441 161.139 42.9004L160.469 43.9395C159.054 43.4131 158.008 42.374 157.461 41.041C156.921 42.4629 155.861 43.6045 154.426 44.1582L153.729 43.1328C155.656 42.4219 156.791 40.6582 156.791 38.8125V37.5957H158.117V38.8125ZM170.053 39.5234C170.053 40.959 171.242 42.3125 173.102 42.832L172.486 43.8438C171.071 43.4404 169.998 42.5654 169.438 41.4375C168.904 42.7021 167.838 43.7002 166.375 44.1582L165.76 43.1602C167.619 42.5586 168.768 41.0957 168.768 39.5234V39.373H166.102V38.334H168.768V36.8574H170.066V38.334H172.719V39.373H170.053V39.5234ZM175.973 36.9121V44.3359H174.674V41.4102H172.336V40.3438H174.674V36.9121H175.973ZM171.871 44.6094C174.428 44.6094 176.014 45.4297 176.014 46.8652C176.014 48.3145 174.428 49.1484 171.871 49.1348C169.301 49.1484 167.715 48.3145 167.729 46.8652C167.715 45.4297 169.301 44.6094 171.871 44.6094ZM171.871 45.6211C170.08 45.6211 169.014 46.0723 169.014 46.8652C169.014 47.6582 170.08 48.1367 171.871 48.1367C173.676 48.1367 174.729 47.6582 174.729 46.8652C174.729 46.0723 173.676 45.6211 171.871 45.6211Z" fill="#AF7400"/>
<path d="M249.24 43.1055V44.1445H244.277V45.2793H247.846V49.0117H239.52V45.2793H242.992V44.1445H238.029V43.1055H249.24ZM240.805 46.3047V47.959H246.561V46.3047H240.805ZM247.832 37.1855V40.1797H240.75V41.2188H248.078V42.2578H239.465V39.2363H246.533V38.1836H239.438V37.1855H247.832ZM255.311 38.293V41.4785H256.951V37.1445H258.195V48.5605H256.951V42.5449H255.311V45.9355H250.553V38.293H255.311ZM251.783 39.3184V44.8965H254.094V39.3184H251.783ZM260.684 36.9121V49.1621H259.439V36.9121H260.684ZM275.299 36.9258V40.5625H277.049V41.6289H275.299V45.1699H274V36.9258H275.299ZM265.578 43.8027C266.528 43.8027 267.629 43.8027 268.777 43.7617V42.9414C267.383 42.7979 266.494 42.1416 266.508 41.1504C266.494 40.0293 267.656 39.332 269.42 39.3457C271.17 39.332 272.332 40.0293 272.332 41.1504C272.332 42.1348 271.457 42.791 270.076 42.9414V43.7207C271.17 43.666 272.277 43.5771 273.303 43.4336L273.412 44.3633C270.773 44.8281 267.875 44.8418 265.715 44.8418L265.578 43.8027ZM275.299 45.7441V49.1621H274V46.7559H267.109V45.7441H275.299ZM272.961 37.9648V38.9355H265.893V37.9648H268.777V36.8164H270.076V37.9648H272.961ZM269.42 40.2344C268.367 40.2207 267.738 40.5625 267.738 41.1504C267.738 41.7246 268.367 42.0938 269.42 42.0938C270.459 42.0938 271.088 41.7246 271.088 41.1504C271.088 40.5625 270.459 40.2207 269.42 40.2344ZM287.973 36.9121V44.1992H286.674V41.0957H284.391V40.0293H286.674V36.9121H287.973ZM283.871 44.541C286.441 44.541 288.014 45.3887 288.014 46.8516C288.014 48.3145 286.441 49.1484 283.871 49.1621C281.301 49.1484 279.715 48.3145 279.729 46.8516C279.715 45.3887 281.301 44.541 283.871 44.541ZM283.871 45.5527C282.08 45.5527 281.014 46.0176 281.014 46.8516C281.014 47.6719 282.08 48.1504 283.871 48.1367C285.662 48.1504 286.729 47.6719 286.729 46.8516C286.729 46.0176 285.662 45.5527 283.871 45.5527ZM282.148 39.0723C282.148 40.6309 283.256 42.1348 285.102 42.7637L284.432 43.7891C283.058 43.3105 282.046 42.333 281.52 41.123C280.979 42.4971 279.906 43.5977 278.443 44.1309L277.76 43.0918C279.66 42.4355 280.822 40.7812 280.822 39.0859V38.8125H278.17V37.7598H284.773V38.8125H282.148V39.0723Z" fill="#707070"/>
<rect x="30.5" y="10" width="233" height="4" fill="#EFEFEF"/>
<rect x="37.5" y="10" width="113.258" height="4" fill="#FEE384"/>
<circle cx="39.5" cy="12" r="8" fill="white" stroke="#FFC700" stroke-width="4"/>
<path d="M152 22C157.523 22 162 17.5228 162 12C162 6.47715 157.523 2 152 2C146.477 2 142 6.47715 142 12C142 17.5228 146.477 22 152 22Z" fill="#FFC700"/>
<path fill-rule="evenodd" clip-rule="evenodd" d="M157.657 7.75235C158.047 8.1426 158.048 8.77577 157.658 9.16657L150.588 16.2466C150.4 16.4343 150.146 16.5399 149.88 16.54C149.615 16.5401 149.361 16.4347 149.173 16.2471L146.343 13.4171C145.952 13.0265 145.952 12.3934 146.343 12.0029C146.733 11.6123 147.367 11.6123 147.757 12.0029L149.879 14.1252L156.242 7.75335C156.633 7.36255 157.266 7.36211 157.657 7.75235Z" fill="white"/>
<path d="M263.5 22C269.023 22 273.5 17.5228 273.5 12C273.5 6.47715 269.023 2 263.5 2C257.977 2 253.5 6.47715 253.5 12C253.5 17.5228 257.977 22 263.5 22Z" fill="#EFEFEF"/>
</svg>
