<svg width="29" height="28" viewBox="0 0 29 28" fill="none" xmlns="http://www.w3.org/2000/svg">
<g clip-path="url(#clip0_280_4327)">
<path d="M14.5 23.3333C20.9434 23.3333 26.1667 18.8935 26.1667 13.4167C26.1667 7.93984 20.9434 3.5 14.5 3.5C8.05672 3.5 2.83337 7.93984 2.83337 13.4167C2.83337 18.8935 8.05672 23.3333 14.5 23.3333Z" fill="#B7B7B7"/>
<path d="M18.1517 22.225C17.93 22.225 21.325 23.66 23.81 24.6867C24.755 25.0833 25.7117 24.15 25.35 23.1933L23.0167 17.1383L18.1517 22.2367V22.225Z" fill="#B7B7B7"/>
</g>
<path d="M9.83329 15.1667C10.4776 15.1667 11 14.6443 11 14C11 13.3557 10.4776 12.8333 9.83329 12.8333C9.18896 12.8333 8.66663 13.3557 8.66663 14C8.66663 14.6443 9.18896 15.1667 9.83329 15.1667Z" fill="white"/>
<path d="M14.4999 15.1667C15.1443 15.1667 15.6666 14.6443 15.6666 14C15.6666 13.3557 15.1443 12.8333 14.4999 12.8333C13.8556 12.8333 13.3333 13.3557 13.3333 14C13.3333 14.6443 13.8556 15.1667 14.4999 15.1667Z" fill="white"/>
<path d="M19.1667 15.1667C19.811 15.1667 20.3333 14.6443 20.3333 14C20.3333 13.3557 19.811 12.8333 19.1667 12.8333C18.5223 12.8333 18 13.3557 18 14C18 14.6443 18.5223 15.1667 19.1667 15.1667Z" fill="white"/>
<defs>
<clipPath id="clip0_280_4327">
<rect width="23.3333" height="21.28" fill="white" transform="translate(2.83337 3.5)"/>
</clipPath>
</defs>
</svg>
