<svg width="28" height="28" viewBox="0 0 28 28" fill="none" xmlns="http://www.w3.org/2000/svg">
<path fill-rule="evenodd" clip-rule="evenodd" d="M6.23568 7.54595C5.31915 7.74812 4.6665 8.56043 4.6665 9.499V21.3333C4.6665 22.4378 5.56193 23.3333 6.6665 23.3333H11.6665V16.3333H16.3332V23.3333H21.3332C22.4377 23.3333 23.3332 22.4378 23.3332 21.3333V9.49899C23.3332 8.56043 22.6805 7.74812 21.764 7.54595L14.4307 5.9283C14.1469 5.8657 13.8528 5.8657 13.569 5.9283L6.23568 7.54595Z" fill="#333333"/>
<path d="M3.0338 8.18176L3.03376 8.1816C2.90139 7.71724 3.16874 7.23102 3.63526 7.09743L3.63624 7.09715L13.8822 4.18579C13.9717 4.16036 14.0665 4.1604 14.156 4.18592L24.3646 7.09728L24.3661 7.0977C24.8323 7.23219 25.0984 7.71825 24.9662 8.18202L24.966 8.18279L24.6749 9.19772L24.6749 9.19789C24.5413 9.66318 24.0567 9.9321 23.5914 9.7992L3.0338 8.18176ZM3.0338 8.18176L3.32356 9.19696C3.32358 9.19701 3.32359 9.19706 3.32361 9.19712C3.4564 9.66265 3.94117 9.93273 4.407 9.79958C4.40714 9.79954 4.40728 9.7995 4.40742 9.79946L14.0174 7.06997L23.5909 9.79904L3.0338 8.18176Z" fill="#333333" stroke="#333333" stroke-linejoin="round"/>
</svg>
