<svg width="29" height="28" viewBox="0 0 29 28" fill="none" xmlns="http://www.w3.org/2000/svg">
<path fill-rule="evenodd" clip-rule="evenodd" d="M6.73581 7.54601C5.81928 7.74818 5.16663 8.56049 5.16663 9.49906V21.3333C5.16663 22.4379 6.06205 23.3333 7.16662 23.3333H12.1666V16.3333H16.8333V23.3333H21.8333C22.9379 23.3333 23.8333 22.4379 23.8333 21.3333V9.49906C23.8333 8.56049 23.1806 7.74818 22.2641 7.54601L14.9308 5.92836C14.647 5.86576 14.3529 5.86576 14.0691 5.92836L6.73581 7.54601Z" fill="#B7B7B7"/>
<path d="M3.5338 8.18167L3.53376 8.18151C3.40139 7.71715 3.66874 7.23093 4.13526 7.09734L4.13624 7.09706L14.3822 4.1857C14.4717 4.16027 14.5665 4.16031 14.656 4.18583L24.8646 7.09719L24.8661 7.0976C25.3323 7.2321 25.5984 7.71816 25.4662 8.18193L25.466 8.1827L25.1749 9.19763L25.1749 9.1978C25.0413 9.66309 24.5567 9.932 24.0914 9.79911L3.5338 8.18167ZM3.5338 8.18167L3.82356 9.19687C3.82358 9.19692 3.82359 9.19697 3.82361 9.19703C3.9564 9.66256 4.44117 9.93264 4.907 9.79949C4.90714 9.79945 4.90728 9.79941 4.90742 9.79937L14.5174 7.06988L24.0909 9.79894L3.5338 8.18167Z" fill="#B7B7B7" stroke="#B7B7B7" stroke-linejoin="round"/>
</svg>
