<svg width="25" height="24" viewBox="0 0 25 24" fill="none" xmlns="http://www.w3.org/2000/svg">
<g id="icon-error-circle-fill">
<path id="Vector" d="M12.5 22C18.0228 22 22.5 17.5228 22.5 12C22.5 6.47715 18.0228 2 12.5 2C6.97715 2 2.5 6.47715 2.5 12C2.5 17.5228 6.97715 22 12.5 22Z" fill="#F49779"/>
<path id="Vector (Stroke)" fill-rule="evenodd" clip-rule="evenodd" d="M12.5 6C13.0523 6 13.5 6.44772 13.5 7V13C13.5 13.5523 13.0523 14 12.5 14C11.9477 14 11.5 13.5523 11.5 13V7C11.5 6.44772 11.9477 6 12.5 6Z" fill="#FCEDE8"/>
<path id="Vector_2" d="M12.5 18C13.0523 18 13.5 17.5523 13.5 17C13.5 16.4477 13.0523 16 12.5 16C11.9477 16 11.5 16.4477 11.5 17C11.5 17.5523 11.9477 18 12.5 18Z" fill="#FCEDE8"/>
</g>
</svg>
