<svg width="78" height="26" viewBox="0 0 78 26" fill="none" xmlns="http://www.w3.org/2000/svg">
<g clip-path="url(#clip0_1218_8224)">
<path d="M6.87748 19.1242C2.71552 19.1242 0 16.1668 0 12.0021C0 7.5412 2.99466 4.75635 7.02969 4.75635C8.24789 4.75635 9.94817 5.02742 10.8618 5.84079L9.87214 9.31576C9.51682 8.9707 8.70469 8.69963 7.7658 8.69963C5.81166 8.69963 4.92335 10.0797 4.89806 11.8541C4.87261 14.3432 6.26847 15.1565 7.81653 15.1565C9.74522 15.1565 11.0649 13.5792 11.1411 11.7801V5.05229H16.0899V19.2967C16.0899 24.2011 13.1207 26 8.17186 26C5.9133 26 2.33491 25.2606 0.939219 24.5214L2.05577 20.4552C4.31433 21.3916 6.82691 21.6874 8.09584 21.6874C10.0753 21.6874 11.1411 21.1946 11.1411 19.5434V17.2022C10.1514 18.6808 8.60321 19.1244 6.87764 19.1244L6.87748 19.1242Z" fill="#D0D0D0"/>
<path d="M31.0376 15.3288L31.875 18.9024C29.7686 19.7403 27.5861 19.9621 25.8604 19.9621C19.8205 19.9621 16.978 17.1772 16.978 12.9138V12.4703C16.978 9.11845 19.5919 5.02752 25.023 4.70717C30.1493 4.41155 32.6871 6.8759 32.5602 10.0796C32.4334 13.7024 28.982 14.8114 25.8096 14.8114C24.0839 14.8114 22.739 14.4418 21.5462 13.8502C21.7492 15.3537 23.5003 16.1668 26.4441 16.1668C27.7383 16.1668 30.124 15.7233 31.0376 15.3288ZM27.84 9.95638C27.84 9.19228 27.3324 8.50233 25.7589 8.50233C24.1854 8.50233 22.7135 9.16772 21.9776 10.5971C22.8912 11.1147 24.1854 11.4597 25.3528 11.4597C26.3425 11.4597 27.8398 11.1886 27.8398 9.95638H27.84Z" fill="#D0D0D0"/>
<path d="M47.138 15.3288L47.9754 18.9024C45.8691 19.7403 43.6865 19.9621 41.961 19.9621C35.9211 19.9621 33.0786 17.1772 33.0786 12.9138V12.4703C33.0786 9.11845 35.6925 5.02752 41.1235 4.70717C46.2498 4.41155 48.7877 6.8759 48.6606 10.0796C48.5339 13.7024 45.0824 14.8114 41.9102 14.8114C40.1845 14.8114 38.8395 14.4418 37.6468 13.8502C37.8497 15.3537 39.6009 16.1668 42.5447 16.1668C43.8389 16.1668 46.2246 15.7233 47.1382 15.3288H47.138ZM43.9404 9.95638C43.9404 9.19228 43.4328 8.50233 41.8593 8.50233C40.2858 8.50233 38.8139 9.16772 38.078 10.5971C38.9916 11.1147 40.2858 11.4597 41.4533 11.4597C42.4429 11.4597 43.9402 11.1886 43.9402 9.95638H43.9404Z" fill="#D0D0D0"/>
<path d="M54.6003 0V10.0797C57.7219 9.3403 59.3714 7.63989 59.5491 5.07684H64.1678C63.9902 8.15732 62.1629 10.548 59.752 12.1497L64.6758 19.8389H59.3973L55.9201 13.9241C55.4886 14.0474 55.0319 14.1461 54.6004 14.2197V19.8387H49.6772V0H54.6004H54.6003Z" fill="#D0D0D0"/>
<path d="M72.137 8.52715C70.9188 8.52715 70.3605 8.82278 70.3098 9.31581C70.2336 9.98121 70.7411 10.1783 71.5533 10.3508C72.6445 10.5726 74.3195 10.9422 75.4615 11.4106C77.441 12.2239 78.4307 14.0969 77.8216 16.5614C77.314 18.5821 75.6392 19.8027 71.8831 19.8027C69.4216 19.8027 66.9091 18.9723 64.6758 18.0111L65.5894 14.068C66.7314 14.7825 69.9036 15.7611 71.4009 15.7611C72.2638 15.7611 73.0251 15.7726 73.1012 15.2304C73.2026 14.565 72.6951 14.2939 71.7562 14.0229C70.7157 13.7272 69.0661 13.4315 68.0003 13.0124C66.3761 12.3717 65.3103 11.1395 65.4117 8.9462C65.5385 5.42196 69.0152 4.6333 72.0101 4.6333C73.9895 4.6333 76.1466 5.00291 77.6946 5.69303L76.8827 9.38964C75.6898 8.87221 73.4819 8.52715 72.137 8.52715Z" fill="#D0D0D0"/>
</g>
<defs>
<clipPath id="clip0_1218_8224">
<rect width="78" height="26" fill="white"/>
</clipPath>
</defs>
</svg>
