<svg width="88" height="30" viewBox="0 0 88 30" fill="none" xmlns="http://www.w3.org/2000/svg">
<g clip-path="url(#clip0_2258_5358)">
<path d="M80.6932 9.30679C79.3541 9.30679 78.7405 9.64088 78.6846 10.2C78.6014 10.9527 79.1591 11.1763 80.0509 11.3713C81.6082 11.6972 83.4273 11.9741 84.8059 12.81C87.8468 14.6536 87.7582 19.5177 84.6368 21.2427C82.4168 22.47 79.5286 22.2191 77.1477 21.6641C76.3268 21.4732 75.5209 21.225 74.7273 20.9413C74.5296 20.8704 72.4677 20.1368 72.4909 20.04L73.4946 15.5782C74.7491 16.3868 78.2359 17.4941 79.8818 17.4941C80.4791 17.4941 81.3914 17.6536 81.7186 16.98C82.1305 16.1332 80.8473 15.6941 80.2732 15.5263C78.6518 15.0518 76.9323 14.7027 75.4582 13.8436C73.9255 12.9491 73.1346 11.3018 73.3091 9.52497C73.6732 5.82133 77.4246 4.90088 80.5514 4.90088C82.7264 4.90088 85.0977 5.31952 86.7996 6.10088L85.9077 10.2845C84.5973 9.69952 82.17 9.30815 80.6918 9.30815L80.6932 9.30679Z" fill="#D0D0D0"/>
<path d="M34.6718 16.7522L35.58 20.7436C33.2959 21.679 30.9286 21.9272 29.0577 21.9272C25.5668 21.9272 21.5836 20.9358 20.0659 17.4327C18.4691 13.7427 19.7032 9.12811 22.9009 6.72811C24.4159 5.59084 26.2691 5.00311 28.1495 4.89129C30.1527 4.77266 32.3345 5.00856 34.0309 6.17175C35.6332 7.27084 36.4527 9.12811 36.3109 11.059C36.03 14.8813 32.3345 16.1754 29.0032 16.1754C27.1322 16.1754 25.6732 15.7622 24.3791 15.1022C24.5986 16.7808 26.4982 17.689 29.6904 17.689C31.0936 17.689 33.6818 17.194 34.6718 16.7536V16.7522ZM31.2409 10.7522C31.26 10.4372 31.1618 10.1181 30.915 9.85493C30.4336 9.33947 29.6222 9.13084 28.9377 9.12811C27.2891 9.12129 25.5995 9.95993 24.8454 11.4681C25.8368 12.0463 27.24 12.4308 28.5054 12.4322C29.2186 12.4322 30.03 12.2808 30.6163 11.8513C30.9818 11.5827 31.2136 11.1722 31.2395 10.7536L31.2409 10.7522Z" fill="#D0D0D0"/>
<path d="M52.6923 16.7522L53.6005 20.7436C51.3164 21.679 48.9491 21.9272 47.0782 21.9272C43.5873 21.9272 39.6041 20.9358 38.0864 17.4327C36.4896 13.7427 37.7237 9.12811 40.9214 6.72811C42.4364 5.59084 44.2896 5.00311 46.17 4.89129C48.1732 4.77266 50.355 5.00856 52.0514 6.17175C53.6537 7.27084 54.4732 9.12811 54.3314 11.059C54.0505 14.8813 50.355 16.1754 47.0237 16.1754C45.1528 16.1754 43.6937 15.7622 42.3996 15.1022C42.6191 16.7808 44.5187 17.689 47.7109 17.689C49.1141 17.689 51.7023 17.194 52.6923 16.7536V16.7522ZM49.2614 10.7522C49.2805 10.4372 49.1823 10.1181 48.9355 9.85493C48.4541 9.33947 47.6427 9.13084 46.9582 9.12811C45.3096 9.12129 43.62 9.95993 42.8659 11.4681C43.8573 12.0463 45.2605 12.4308 46.5259 12.4322C47.2391 12.4322 48.0505 12.2808 48.6368 11.8513C49.0023 11.5827 49.2341 11.1722 49.26 10.7536L49.2614 10.7522Z" fill="#D0D0D0"/>
<path d="M9.22636 21.93C4.50954 21.93 0.672272 18.0927 0.672272 13.3759C0.672272 8.65905 4.50954 4.82178 9.22636 4.82178C13.9432 4.82178 17.7805 8.65905 17.7805 13.3759C17.7805 18.0927 13.9432 21.93 9.22636 21.93ZM9.22636 9.73087C7.21636 9.73087 5.58136 11.3659 5.58136 13.3759C5.58136 15.3859 7.21636 17.0209 9.22636 17.0209C11.2364 17.0209 12.8714 15.3859 12.8714 13.3759C12.8714 11.3659 11.2364 9.73087 9.22636 9.73087Z" fill="#D0D0D0"/>
<path d="M61.0978 0H56.1887V21.8795H61.0978V0Z" fill="#D0D0D0"/>
<path d="M8.84318 30.0001C5.69182 30.0001 2.28818 28.8151 0 26.0319L3.79227 22.9146C5.62091 25.1401 8.90455 25.511 11.0645 24.7323C12.0027 24.3942 13.1209 23.7123 13.1155 22.3937C13.1086 20.9483 12.3505 20.4751 12.1186 20.3646C12.1664 20.3864 12.1936 20.396 12.1936 20.396L13.9623 15.8169C15.4623 16.3964 18.0068 18.4296 18.0259 22.3719C18.0409 25.541 16.0609 28.1496 12.7323 29.351C11.5623 29.7737 10.2273 30.0014 8.84455 30.0014L8.84318 30.0001Z" fill="#D0D0D0"/>
<path d="M16.8645 4.89296L11.1888 7.71411L13.3738 12.1101L19.0495 9.28895L16.8645 4.89296Z" fill="#D0D0D0"/>
<path d="M59.9904 14.9972C58.9213 14.9972 58.1904 14.8704 58.0513 14.8431L58.9622 10.0186L58.9445 10.0159C58.9609 10.0186 60.5972 10.2927 62.3768 9.73906C64.5804 9.05451 66.0191 7.43997 66.7745 4.80542L71.4927 6.15951C69.9232 11.6277 66.3245 13.7141 63.5822 14.5009C62.2295 14.8895 60.9682 14.9959 59.9891 14.9959L59.9904 14.9972Z" fill="#D0D0D0"/>
<path d="M71.8486 21.8796L66.2618 10.395L61.8477 12.5427L66.39 21.8796H71.8486Z" fill="#D0D0D0"/>
</g>
<defs>
<clipPath id="clip0_2258_5358">
<rect width="87.0341" height="30" fill="white"/>
</clipPath>
</defs>
</svg>
