<svg width="138" height="48" viewBox="0 0 138 48" fill="none" xmlns="http://www.w3.org/2000/svg">
<g clip-path="url(#clip0_2293_2322)">
<path d="M127.946 14.8909C125.823 14.8909 124.85 15.4254 124.761 16.32C124.629 17.5243 125.514 17.8822 126.928 18.1942C129.397 18.7156 132.281 19.1585 134.467 20.496C139.289 23.4458 139.148 31.2283 134.199 33.9883C130.679 35.952 126.1 35.5505 122.325 34.6625C121.023 34.3571 119.745 33.96 118.487 33.5062C118.173 33.3927 114.904 32.2189 114.941 32.064L116.532 24.9251C118.521 26.2189 124.05 27.9905 126.66 27.9905C127.607 27.9905 129.053 28.2458 129.572 27.168C130.225 25.8131 128.19 25.1105 127.28 24.8422C124.709 24.0829 121.983 23.5243 119.646 22.1498C117.215 20.7185 115.961 18.0829 116.238 15.24C116.815 9.31416 122.763 7.84143 127.721 7.84143C131.17 7.84143 134.93 8.51125 137.628 9.76143L136.214 16.4552C134.136 15.5192 130.288 14.8931 127.944 14.8931L127.946 14.8909Z" fill="#FFC700"/>
<path d="M54.975 26.8036L56.415 33.1898C52.7934 34.6865 49.0399 35.0836 46.0734 35.0836C40.5382 35.0836 34.2226 33.4974 31.8161 27.8923C29.2842 21.9883 31.2409 14.605 36.3112 10.765C38.7134 8.94541 41.6517 8.00505 44.6334 7.82614C47.8096 7.63632 51.269 8.01378 53.9588 9.87487C56.4993 11.6334 57.7988 14.605 57.5739 17.6945C57.1285 23.8101 51.269 25.8807 45.9869 25.8807C43.0204 25.8807 40.7069 25.2196 38.655 24.1636C39.0031 26.8494 42.015 28.3025 47.0766 28.3025C49.3015 28.3025 53.4053 27.5105 54.975 26.8058V26.8036ZM49.535 17.2036C49.5653 16.6996 49.4096 16.189 49.0182 15.768C48.255 14.9432 46.9685 14.6094 45.8831 14.6051C43.269 14.5941 40.5901 15.936 39.3944 18.349C40.9663 19.2741 43.1912 19.8894 45.1977 19.8916C46.3285 19.8916 47.615 19.6494 48.5447 18.9621C49.1242 18.5323 49.4917 17.8756 49.5328 17.2058L49.535 17.2036Z" fill="#FFC700"/>
<path d="M83.5482 26.8036L84.9882 33.1898C81.3666 34.6865 77.6131 35.0836 74.6466 35.0836C69.1115 35.0836 62.7958 33.4974 60.3893 27.8923C57.8574 21.9883 59.8142 14.605 64.8844 10.765C67.2866 8.94541 70.225 8.00505 73.2066 7.82614C76.3828 7.63632 79.8423 8.01378 82.532 9.87487C85.0726 11.6334 86.372 14.605 86.1472 17.6945C85.7017 23.8101 79.8423 25.8807 74.5601 25.8807C71.5936 25.8807 69.2801 25.2196 67.2282 24.1636C67.5763 26.8494 70.5882 28.3025 75.6499 28.3025C77.8747 28.3025 81.9785 27.5105 83.5482 26.8058V26.8036ZM78.1082 17.2036C78.1385 16.6996 77.9828 16.189 77.5915 15.768C76.8282 14.9432 75.5417 14.6094 74.4563 14.6051C71.8423 14.5941 69.1634 15.936 67.9677 18.349C69.5396 19.2741 71.7645 19.8894 73.7709 19.8916C74.9017 19.8916 76.1882 19.6494 77.118 18.9621C77.6974 18.5323 78.065 17.8756 78.1061 17.2058L78.1082 17.2036Z" fill="#FFC700"/>
<path d="M14.6292 35.0881C7.15024 35.0881 1.06592 28.9484 1.06592 21.4015C1.06592 13.8546 7.15024 7.71497 14.6292 7.71497C22.1081 7.71497 28.1924 13.8546 28.1924 21.4015C28.1924 28.9484 22.1081 35.0881 14.6292 35.0881ZM14.6292 15.5695C11.4421 15.5695 8.8497 18.1855 8.8497 21.4015C8.8497 24.6175 11.4421 27.2335 14.6292 27.2335C17.8162 27.2335 20.4086 24.6175 20.4086 21.4015C20.4086 18.1855 17.8162 15.5695 14.6292 15.5695Z" fill="#FFC700"/>
<path d="M96.8756 0H89.0918V35.0073H96.8756V0Z" fill="#FFC700"/>
<path d="M14.0216 48C9.02486 48 3.62811 46.104 0 41.6509L6.01297 36.6632C8.91243 40.224 14.1189 40.8174 17.5438 39.5716C19.0314 39.0305 20.8043 37.9396 20.7957 35.8298C20.7849 33.5171 19.5827 32.76 19.2151 32.5832C19.2908 32.6182 19.3341 32.6334 19.3341 32.6334L22.1384 25.3069C24.5168 26.2342 28.5514 29.4872 28.5816 35.7949C28.6054 40.8654 25.4659 45.0392 20.1881 46.9614C18.333 47.6378 16.2162 48.0022 14.0238 48.0022L14.0216 48Z" fill="#FFC700"/>
<path d="M26.74 7.82869L17.7407 12.3425L21.2053 19.3761L30.2046 14.8623L26.74 7.82869Z" fill="#FFC700"/>
<path d="M95.12 23.9956C93.4249 23.9956 92.266 23.7927 92.0454 23.7491L93.4897 16.0298L93.4616 16.0254C93.4876 16.0298 96.0822 16.4684 98.9038 15.5825C102.398 14.4873 104.679 11.904 105.877 7.68872L113.358 9.85527C110.869 18.6044 105.163 21.9425 100.815 23.2014C98.6703 23.8233 96.6703 23.9934 95.1178 23.9934L95.12 23.9956Z" fill="#FFC700"/>
<path d="M113.922 35.0072L105.064 16.632L98.0649 20.0683L105.267 35.0072H113.922Z" fill="#FFC700"/>
</g>
<defs>
<clipPath id="clip0_2293_2322">
<rect width="138" height="48" fill="white"/>
</clipPath>
</defs>
</svg>
