<svg width="56" height="56" viewBox="0 0 56 56" fill="none" xmlns="http://www.w3.org/2000/svg">
<path d="M27.9998 51.3334C40.8865 51.3334 51.3332 40.8867 51.3332 28.0001C51.3332 15.1134 40.8865 4.66675 27.9998 4.66675C15.1132 4.66675 4.6665 15.1134 4.6665 28.0001C4.6665 40.8867 15.1132 51.3334 27.9998 51.3334Z" fill="#EFEFEF"/>
<path fill-rule="evenodd" clip-rule="evenodd" d="M27.9998 14.1167C29.2885 14.1167 30.3332 15.1614 30.3332 16.45V39.55C30.3332 40.8387 29.2885 41.8834 27.9998 41.8834C26.7112 41.8834 25.6665 40.8387 25.6665 39.55V16.45C25.6665 15.1614 26.7112 14.1167 27.9998 14.1167Z" fill="white"/>
<path fill-rule="evenodd" clip-rule="evenodd" d="M14.1167 28.0001C14.1167 26.7114 15.1614 25.6667 16.45 25.6667H39.55C40.8387 25.6667 41.8834 26.7114 41.8834 28.0001C41.8834 29.2887 40.8387 30.3334 39.55 30.3334H16.45C15.1614 30.3334 14.1167 29.2887 14.1167 28.0001Z" fill="white"/>
</svg>
