<svg width="46" height="46" viewBox="0 0 46 46" fill="none" xmlns="http://www.w3.org/2000/svg">
<rect width="46" height="46" rx="23" fill="#FAF6F1"/>
<path fill-rule="evenodd" clip-rule="evenodd" d="M25.7564 13.3956C25.621 12.2387 24.6305 11.3333 23.4388 11.3333C22.2485 11.3333 21.2589 12.2265 21.1217 13.3893C17.0925 14.4215 14.1054 18.0804 14.1054 22.4399V25.6599C14.1054 25.8466 14.0587 26.0216 13.9771 26.1849L12.6237 28.9149C12.2387 29.6849 12.7987 30.6066 13.6621 30.6066L19.9388 30.6066C19.9388 32.5433 21.5021 34.1066 23.4388 34.1066C25.3754 34.1066 26.9388 32.5433 26.9388 30.6066L33.2154 30.6066C34.0787 30.6066 34.6504 29.6966 34.2537 28.9149L32.8887 26.1849C32.8071 26.0216 32.7604 25.8466 32.7604 25.6599H32.772V22.7549C32.772 18.3709 29.8489 14.477 25.7564 13.3956Z" fill="#93897A"/>
</svg>
