<svg width="24" height="24" viewBox="0 0 24 24" fill="none" xmlns="http://www.w3.org/2000/svg">
<g clip-path="url(#clip0_1_11777)">
<path d="M6.60513 17.437C4.9951 15.8316 3.79463 13.9624 2.98884 11.8379C2.62705 10.8833 2.35376 9.90369 2.20497 8.89273C2.13214 8.39625 2.08202 7.89586 2.04444 7.39547C2.01311 6.97574 1.98257 6.55052 2.0092 6.13157C2.05853 5.3383 2.38743 4.6578 2.9489 4.0932C3.43128 3.60768 4.01546 3.31638 4.68735 3.20048C4.833 3.17542 4.98179 3.16289 5.12979 3.16211C5.18539 3.16211 5.25352 3.19891 5.29502 3.24042C6.15642 4.09241 7.02643 4.93658 7.86903 5.80659C8.38038 6.33517 8.56597 6.98513 8.46182 7.72436C8.38273 8.2827 8.13527 8.73924 7.7406 9.13079C7.30129 9.56618 6.86981 10.0102 6.43363 10.4487C6.36942 10.5129 6.33966 10.5584 6.38273 10.6633C6.85023 11.8027 7.44381 12.8677 8.21906 13.8269C8.50881 14.1856 8.82596 14.5231 9.13058 14.87C9.07341 14.9225 9.0139 14.9734 8.95908 15.0282C8.26057 15.7259 7.56127 16.4229 6.86589 17.1237C6.77036 17.2193 6.69205 17.332 6.60591 17.437H6.60513Z" fill="#707070"/>
<path d="M6.60528 17.4369C6.69141 17.332 6.77051 17.22 6.86526 17.1237C7.56142 16.4236 8.25993 15.7259 8.95845 15.0282C9.01326 14.9734 9.07278 14.9225 9.12994 14.87C9.38053 15.0955 9.62877 15.3234 9.88249 15.5458C10.4518 16.0446 11.0657 16.4855 11.7306 16.8465C12.2458 17.1268 12.7862 17.3618 13.3116 17.6241C13.4385 17.6875 13.5254 17.6648 13.6202 17.5677C14.0485 17.13 14.4902 16.7055 14.9091 16.26C15.6296 15.4933 16.6585 15.3626 17.5763 15.7298C17.8386 15.8348 18.0853 16.0203 18.2897 16.22C19.1237 17.0344 19.9404 17.8669 20.7541 18.7016C20.8214 18.7705 20.848 18.9131 20.8379 19.0164C20.7407 20.0258 20.2991 20.8504 19.4612 21.433C18.9624 21.7799 18.3993 21.9898 17.7838 21.9953C17.2592 22 16.729 22.0149 16.2106 21.9514C15.4682 21.8606 14.7314 21.7149 13.996 21.5701C13.1229 21.3978 12.2819 21.1057 11.4753 20.7392C10.7689 20.4182 10.0728 20.0611 9.4142 19.6523C8.7478 19.2388 8.12133 18.7564 7.49878 18.2764C7.17693 18.0282 6.90128 17.7196 6.60449 17.4377L6.60528 17.4369Z" fill="#707070"/>
<path d="M12.0228 3.16601V2C14.7753 2.02036 17.1426 2.97651 19.0807 4.91151C21.0196 6.84808 21.982 9.21535 22.0032 11.9749H20.8395C20.8043 9.5646 19.9672 7.46829 18.2569 5.75568C16.5451 4.04229 14.4511 3.20047 12.022 3.16523L12.0228 3.16601Z" fill="#3ABDBD"/>
<path d="M12.0269 5.51996C13.8131 5.53954 15.344 6.15817 16.5969 7.41268C17.8491 8.6664 18.4654 10.1973 18.4842 11.9804H17.3604C17.0394 8.75723 15.2696 6.98198 12.0269 6.64369V5.51996Z" fill="#3ABDBD"/>
</g>
<defs>
<clipPath id="clip0_1_11777">
<rect width="20.0031" height="20" fill="white" transform="translate(2 2)"/>
</clipPath>
</defs>
</svg>
