<svg width="44" height="44" viewBox="0 0 44 44" fill="none" xmlns="http://www.w3.org/2000/svg">
<path fill-rule="evenodd" clip-rule="evenodd" d="M15.3999 3.30005H30.7999C32.0099 3.30005 32.9999 4.29005 32.9999 5.50005V38.5C32.9999 39.71 32.0099 40.7 30.7999 40.7H6.5999C5.3899 40.7 4.3999 39.71 4.3999 38.5V14.3" fill="#E2E2E2"/>
<path fill-rule="evenodd" clip-rule="evenodd" d="M15.3999 3.30005V12.1C15.3999 13.31 14.4099 14.3 13.1999 14.3H4.3999" fill="#949494"/>
<path d="M38.8599 24.6685L32.6373 18.4459L34.9708 16.1125C35.8264 15.2569 37.2264 15.2569 38.082 16.1125L41.1933 19.2237C42.0489 20.0793 42.0489 21.4794 41.1933 22.335L38.8599 24.6685Z" fill="#FD871A"/>
<path d="M17.0738 34.0113L23.2964 40.2339L38.8527 24.6775L32.6302 18.455L17.0738 34.0113Z" fill="#FFAF52"/>
<path fill-rule="evenodd" clip-rule="evenodd" d="M16.2905 37.895L19.4035 41.008L23.2975 40.227L17.0715 34.012L16.2905 37.895Z" fill="#FFD9AC"/>
<path fill-rule="evenodd" clip-rule="evenodd" d="M16.324 41.624L19.404 41.008L16.291 37.895L15.675 40.975C15.598 41.36 15.939 41.701 16.324 41.624Z" fill="#333333"/>
</svg>
