<svg width="28" height="28" viewBox="0 0 28 28" fill="none" xmlns="http://www.w3.org/2000/svg">
<path d="M24.309 26.0007C24.1126 25.8449 24.0367 25.632 23.9708 25.395C23.8126 24.8305 23.4886 24.3607 23.0705 23.9514C22.7559 23.6432 22.7565 23.4827 23.0758 23.1716C23.5539 22.7059 23.8809 22.1596 24.0355 21.5057C24.082 21.3093 24.2008 21.154 24.443 21.1622C24.6647 21.1693 24.7729 21.2898 24.827 21.4963C24.9864 22.109 25.2781 22.6482 25.7344 23.0952C25.8491 23.2075 25.9432 23.341 26.0467 23.4645V23.6991C25.9355 23.8185 25.8291 23.9431 25.7121 24.0566C25.2828 24.4747 25.0082 24.9863 24.8459 25.5526C24.7847 25.7667 24.7006 25.919 24.4966 26.0001H24.309V26.0007Z" fill="#A2C9ED"/>
<path d="M7.17089 26.0007C7.06857 25.829 6.92802 25.669 6.87039 25.4832C6.68633 24.8899 6.39466 24.3671 5.93069 23.9537C5.65548 23.7079 5.6202 23.4409 5.92775 23.1775C6.42054 22.7553 6.70162 22.199 6.89274 21.585C6.94096 21.4304 7.05563 21.2469 7.19088 21.1793C7.4067 21.0717 7.62016 21.2398 7.68896 21.4909C7.85244 22.0908 8.11883 22.6347 8.57692 23.0699C8.61103 23.1022 8.64278 23.1369 8.67689 23.1687C8.96033 23.4356 8.96386 23.7038 8.68159 23.9578C8.17234 24.4165 7.86303 24.9934 7.67955 25.6508C7.64251 25.7825 7.49961 25.8849 7.40552 26.0001H7.17089V26.0007Z" fill="#A2C9ED"/>
<path d="M24.4966 26.0007C24.7006 25.919 24.7847 25.7672 24.8459 25.5532C25.0076 24.9869 25.2828 24.4753 25.7121 24.0572C25.8291 23.9437 25.9355 23.819 26.0467 23.6996V26.0007H24.4972H24.4966Z" fill="white"/>
<path d="M17.7829 24.076C17.2001 24.2318 16.6203 24.4018 16.0328 24.5382C15.7476 24.6041 15.4454 24.6488 15.156 24.6294C14.6779 24.597 14.1969 24.537 13.73 24.4324C12.768 24.2171 11.9541 23.7232 11.2602 23.0234C10.1635 21.9179 9.06206 20.8176 7.9624 19.715C8.29112 19.3945 8.62337 19.0782 8.94739 18.753C9.46958 18.2296 9.98589 17.7004 10.5051 17.174C10.6251 17.2834 10.7421 17.3963 10.865 17.5022C11.0773 17.6857 11.3014 17.6921 11.4684 17.5251C11.6354 17.3581 11.6283 17.1346 11.4448 16.9218C11.339 16.7989 11.2267 16.6813 11.1167 16.5613C11.6054 16.0803 12.0935 15.5975 12.5851 15.1194C12.6498 15.0565 12.7327 15.0135 12.8074 14.9612C13.179 15.3282 13.5442 15.7022 13.9264 16.0579C14.0182 16.1432 14.1746 16.2261 14.2863 16.2096C14.6515 16.1555 14.7615 15.7786 14.5009 15.5075C14.1769 15.17 13.8394 14.8454 13.5118 14.5119C13.4542 14.4531 13.4148 14.3767 13.3666 14.3085C13.8994 13.7745 14.4327 13.24 14.9655 12.706C15.0496 12.7584 15.1349 12.8089 15.2172 12.8636C15.4013 12.9859 15.6124 12.9771 15.7511 12.8383C15.8923 12.6972 15.8999 12.4555 15.7717 12.2803C15.7176 12.2068 15.6688 12.1297 15.6177 12.0545C15.6494 12.0327 15.6853 12.0157 15.7123 11.9886C16.435 11.2677 17.1572 10.5461 17.8775 9.82223C17.9181 9.78107 17.9381 9.71932 17.9675 9.66757C18.4474 10.0886 18.9196 10.5191 19.4088 10.9295C20.6714 11.9892 21.961 13.0106 23.4523 13.7439C23.9315 13.9798 24.4284 14.1497 24.96 14.2144C25.1711 14.2403 25.3076 14.3884 25.294 14.6213C25.2711 15.0147 25.2729 15.4205 25.1723 15.7968C25.0047 16.4237 24.7648 17.0317 24.5549 17.6474C24.452 17.6351 24.349 17.6116 24.2467 17.6127C23.881 17.6169 23.5075 17.6815 23.1506 17.6286C22.0839 17.471 21.1042 17.0894 20.2768 16.3702C20.2039 16.3067 20.1045 16.2555 20.0104 16.2396C19.8222 16.2079 19.667 16.2855 19.5941 16.4684C19.5076 16.686 19.5876 16.8612 19.7593 17.0082C20.4591 17.6098 21.2618 18.015 22.1491 18.2514C22.7807 18.4195 23.4217 18.5307 24.0803 18.4484C23.8351 18.8265 23.6163 19.2258 23.3388 19.5774C22.9195 20.109 22.4585 20.6077 22.0151 21.1205C21.7046 21.0052 21.3817 20.9141 21.0854 20.77C20.2109 20.3448 19.4864 19.718 18.8184 19.0217C18.7432 18.9435 18.6802 18.8506 18.5967 18.783C18.4003 18.6254 18.1869 18.6395 18.0316 18.8053C17.8805 18.9664 17.8828 19.1905 18.0428 19.3769C18.552 19.9732 19.1213 20.5089 19.7799 20.9317C20.2686 21.2451 20.7972 21.4968 21.3076 21.7756C20.9089 22.1184 20.5279 22.4842 20.1068 22.7964C19.697 23.1004 19.2471 23.3504 18.8125 23.6214C18.7761 23.6444 18.7249 23.6444 18.6802 23.655C18.6385 23.6367 18.592 23.6256 18.5556 23.5997C17.6129 22.9281 16.732 22.1819 15.9017 21.3757C15.8241 21.3004 15.7376 21.2304 15.6459 21.1746C15.4724 21.0693 15.3107 21.1152 15.1807 21.2557C15.0455 21.4027 15.0026 21.5744 15.1384 21.7432C15.2454 21.8761 15.3613 22.0055 15.4906 22.1166C16.2528 22.7735 17.0196 23.4239 17.7852 24.0772L17.7829 24.076Z" fill="#FEE384"/>
<path d="M7.06566 18.8159C6.36941 18.1202 5.65669 17.441 4.98455 16.7236C4.58879 16.3008 4.62289 15.5687 5.06864 15.1235C5.90367 14.2897 6.73812 13.4558 7.56962 12.619C7.61902 12.569 7.6443 12.4943 7.68017 12.4314C7.76074 12.3756 7.85247 12.3303 7.92127 12.2621C8.72808 11.4605 9.53136 10.6555 10.3346 9.85046C10.4276 9.75755 10.5122 9.6564 10.601 9.55879C10.6657 9.50469 10.7351 9.4547 10.7945 9.39531C11.6136 8.57792 12.4499 7.77699 13.2426 6.9349C13.7012 6.448 14.5345 6.33568 15.0179 6.80318C15.7059 7.46885 16.3739 8.1557 17.0508 8.83313C16.2622 9.62406 15.4742 10.4156 14.6856 11.2065C14.4969 11.3953 14.3087 11.584 14.1199 11.7722C13.5577 12.3344 12.995 12.8966 12.4328 13.4587C12.2446 13.6475 12.0565 13.8357 11.8683 14.0245C11.3196 14.5731 10.7704 15.1223 10.2217 15.671C10.0194 15.8733 9.81774 16.075 9.61545 16.2773C8.76572 17.1235 7.91598 17.9691 7.06566 18.8153V18.8159Z" fill="#949494"/>
<path d="M6.27163 10.9754C5.98172 10.6914 5.68946 10.4097 5.40191 10.1233C4.36694 9.09011 3.33667 8.05278 2.29817 7.02369C2.02061 6.74849 1.92005 6.43917 2.06824 6.07752C2.12175 5.94697 2.2329 5.83407 2.33463 5.72998C2.84506 5.21191 3.38254 4.71912 3.86827 4.1787C4.2652 3.73649 4.89207 3.82646 5.25666 4.19811C6.44452 5.40949 7.65179 6.60206 8.85083 7.80227C8.96667 7.91812 9.08017 8.03573 9.19425 8.15275C9.11898 8.20391 9.03312 8.24449 8.9702 8.30741C8.13399 9.1395 7.30072 9.97453 6.46569 10.8078C6.40571 10.8678 6.33691 10.9195 6.27222 10.9748L6.27163 10.9754Z" fill="#949494"/>
<path d="M6.27148 10.9754C6.33617 10.9201 6.40497 10.8684 6.46495 10.8084C7.29999 9.97513 8.13267 9.13951 8.96946 8.30801C9.03297 8.24509 9.11824 8.20451 9.19351 8.15335C9.66278 8.62203 10.1315 9.09012 10.6007 9.55879C10.5119 9.65641 10.4272 9.75755 10.3343 9.85047C9.53105 10.6555 8.72778 11.4606 7.92097 12.2621C7.85217 12.3303 7.76102 12.3756 7.67987 12.4314C7.2306 11.9863 6.78074 11.5417 6.33323 11.0948C6.30265 11.0648 6.29148 11.0154 6.27148 10.9748V10.9754Z" fill="#949494"/>
<path d="M12.6191 4.39099C12.5432 4.51331 12.4979 4.63562 12.4127 4.71501C11.8799 5.20956 11.5194 5.80232 11.346 6.50857C11.2966 6.70968 11.1395 6.83788 10.9637 6.82141C10.8426 6.81024 10.692 6.66911 10.6303 6.54797C10.4774 6.24747 10.401 5.90523 10.2328 5.61591C10.0546 5.31012 9.81937 5.03373 9.58356 4.76735C9.30012 4.44627 9.28189 4.31866 9.59238 4.02052C10.0575 3.5736 10.3798 3.0473 10.5521 2.42396C10.6491 2.07348 10.7391 2.01233 10.989 2.00057C11.1931 1.99116 11.3018 2.09995 11.346 2.26813C11.5294 2.96203 11.8646 3.56067 12.3939 4.0511C12.485 4.13578 12.5368 4.26339 12.6197 4.39099H12.6191Z" fill="#A2C9ED"/>
<path d="M7.06543 18.8159C7.91516 17.9697 8.7649 17.1241 9.61463 16.2779C9.91101 16.5766 10.208 16.8747 10.5044 17.1735C9.98569 17.7004 9.4688 18.229 8.94661 18.7524C8.62259 19.0776 8.29034 19.3939 7.96162 19.7144C7.66289 19.4145 7.36416 19.1152 7.06543 18.8153V18.8159Z" fill="#FEE384"/>
<path d="M14.6852 11.2071C15.4737 10.4162 16.2617 9.62467 17.0503 8.83374C17.3555 9.1113 17.6607 9.38886 17.9659 9.66642C17.9365 9.71876 17.9165 9.7805 17.8759 9.82108C17.1561 10.545 16.4334 11.2665 15.7107 11.9875C15.6843 12.0139 15.6478 12.0316 15.616 12.0533C15.5484 12.0075 15.4726 11.9698 15.4138 11.914C15.1679 11.6811 14.9268 11.4435 14.6846 11.2071H14.6852Z" fill="#FEE384"/>
<path d="M24.0787 18.4472C23.4201 18.5295 22.7791 18.4184 22.1476 18.2502C21.2602 18.0138 20.4575 17.6086 19.7577 17.007C19.586 16.8594 19.5066 16.6842 19.5925 16.4672C19.6648 16.2843 19.8201 16.2067 20.0088 16.2385C20.1029 16.2543 20.2023 16.3055 20.2752 16.369C21.1026 17.0882 22.0823 17.4698 23.149 17.6274C23.506 17.6804 23.8794 17.6151 24.2451 17.6116C24.3475 17.6104 24.4504 17.6345 24.5533 17.6463C24.3951 17.9132 24.2369 18.1802 24.0793 18.4472H24.0787Z" fill="#D68D00"/>
<path d="M21.3052 21.775C20.7942 21.4962 20.2661 21.2446 19.7774 20.9311C19.1188 20.5083 18.5496 19.972 18.0403 19.3763C17.881 19.1899 17.8786 18.9653 18.0291 18.8047C18.1844 18.6389 18.3984 18.6254 18.5943 18.7824C18.6783 18.8494 18.7407 18.9423 18.816 19.0211C19.484 19.7174 20.2085 20.3442 21.0829 20.7694C21.3799 20.9135 21.7021 21.0046 22.0126 21.1199C21.7762 21.3381 21.5404 21.5568 21.304 21.775H21.3052Z" fill="#D68D00"/>
<path d="M17.7825 24.076C17.0175 23.4233 16.2501 22.7723 15.4879 22.1155C15.3586 22.0043 15.2427 21.875 15.1357 21.7421C14.9999 21.5733 15.0428 21.4016 15.178 21.2546C15.308 21.114 15.4691 21.0682 15.6432 21.1734C15.7355 21.2293 15.822 21.2993 15.899 21.3745C16.7293 22.1808 17.6102 22.9264 18.5529 23.5985C18.5893 23.6244 18.6358 23.6356 18.6775 23.6538C18.3788 23.7944 18.0807 23.9355 17.7819 24.076H17.7825Z" fill="#D68D00"/>
<path d="M10.2207 15.6722C10.7694 15.1235 11.3186 14.5743 11.8672 14.0256C12.1801 14.3373 12.4935 14.6496 12.8064 14.9612C12.7317 15.0136 12.6482 15.0571 12.5841 15.1194C12.0925 15.5981 11.605 16.0803 11.1157 16.5613C10.8176 16.2649 10.5188 15.968 10.2207 15.6716V15.6722Z" fill="#FEE384"/>
<path d="M12.4321 13.4599C12.9943 12.8978 13.5571 12.3356 14.1192 11.7734C14.2951 11.9563 14.4744 12.1356 14.6461 12.3226C14.7585 12.445 14.859 12.5773 14.9649 12.7049C14.4321 13.2388 13.8987 13.7734 13.366 14.3073C13.2977 14.2615 13.2219 14.2232 13.1631 14.168C12.9167 13.9351 12.6756 13.6963 12.4327 13.4599H12.4321Z" fill="#FEE384"/>
<path d="M12.4318 13.4599C12.6747 13.6963 12.9164 13.9351 13.1622 14.1679C13.221 14.2238 13.2968 14.2614 13.3651 14.3073C13.4127 14.3755 13.4527 14.4525 13.5103 14.5108C13.8384 14.8448 14.1754 15.1694 14.4994 15.5063C14.7599 15.7774 14.6499 16.1544 14.2848 16.2085C14.173 16.2249 14.0166 16.142 13.9249 16.0568C13.5426 15.701 13.1775 15.3276 12.8058 14.96C12.493 14.6484 12.1795 14.3361 11.8667 14.0244C12.0549 13.8357 12.2431 13.6475 12.4312 13.4587L12.4318 13.4599Z" fill="#D68D00"/>
<path d="M10.221 15.6722C10.5192 15.9686 10.8179 16.2655 11.116 16.5619C11.2254 16.6819 11.3377 16.7995 11.4442 16.9224C11.6276 17.1353 11.6347 17.3587 11.4677 17.5257C11.3007 17.6927 11.0772 17.6863 10.8644 17.5028C10.7415 17.3969 10.6244 17.284 10.5045 17.1747C10.2081 16.8759 9.91112 16.5778 9.61475 16.279C9.81704 16.0768 10.0187 15.8751 10.221 15.6728V15.6722Z" fill="#D68D00"/>
<path d="M14.9648 12.7049C14.8589 12.5773 14.7584 12.4444 14.646 12.3226C14.4743 12.1356 14.295 11.9563 14.1191 11.7734C14.3079 11.5846 14.4961 11.3959 14.6848 11.2077C14.9277 11.4435 15.1682 11.6817 15.414 11.9145C15.4728 11.9704 15.5487 12.008 15.6163 12.0539C15.6675 12.1292 15.7163 12.2068 15.7704 12.2797C15.8986 12.4544 15.8909 12.6961 15.7498 12.8378C15.611 12.9766 15.3999 12.9854 15.2159 12.8631C15.1335 12.8084 15.0483 12.7578 14.9642 12.7055L14.9648 12.7049Z" fill="#D68D00"/>
</svg>
