<svg width="20" height="20" viewBox="0 0 20 20" fill="none" xmlns="http://www.w3.org/2000/svg">
<g id="icon-close">
<path id="Union" fill-rule="evenodd" clip-rule="evenodd" d="M6.42259 5.24408C6.09715 4.91864 5.56951 4.91864 5.24408 5.24408C4.91864 5.56951 4.91864 6.09715 5.24408 6.42259L9.23816 10.4167L5.24408 14.4107C4.91864 14.7362 4.91864 15.2638 5.24408 15.5893C5.56951 15.9147 6.09715 15.9147 6.42259 15.5893L10.4167 11.5952L14.4107 15.5893C14.7362 15.9147 15.2638 15.9147 15.5893 15.5893C15.9147 15.2638 15.9147 14.7362 15.5893 14.4107L11.5952 10.4167L15.5893 6.42259C15.9147 6.09715 15.9147 5.56951 15.5893 5.24408C15.2638 4.91864 14.7362 4.91864 14.4107 5.24408L10.4167 9.23816L6.42259 5.24408Z" fill="#B7B7B7"/>
</g>
</svg>
