<svg width="28" height="28" viewBox="0 0 28 28" fill="none" xmlns="http://www.w3.org/2000/svg">
<g clip-path="url(#clip0_1_11723)">
<path d="M14.0005 25.9934C12.0529 25.9962 10.1062 25.9981 8.15857 26.0009C8.12033 26.0009 8.08115 25.9962 8.04291 25.9934C8.03078 25.9803 8.01866 25.9672 8.00653 25.954C8.00466 25.5714 8 25.1888 8 24.8062C8 21.7191 8 18.633 8 15.5468C8 15.453 8 15.3602 8 15.2148H10.3692C10.3851 15.2148 10.4 15.2148 10.4159 15.2148C11.6117 15.2186 12.8075 15.2223 14.0033 15.2261C14.0023 16.7846 14.0014 18.3432 14.0005 19.9018C13.3559 19.9018 12.7114 19.9018 12.0687 19.9018V21.3243H14.0042C14.0033 22.8801 14.0023 24.4358 14.0005 25.9925V25.9934Z" fill="#582669"/>
<path d="M14.0003 25.9934C14.0012 24.4377 14.0021 22.8819 14.004 21.3253L14.0003 21.314H15.9358V19.9111H13.9956L14.0003 19.9027C14.0012 18.3441 14.0021 16.7856 14.0031 15.227L13.9993 15.2177C15.1951 15.2158 16.3919 15.2139 17.5877 15.212C18.3833 15.212 19.179 15.212 19.9895 15.212C19.9942 15.2936 19.9998 15.3461 19.9998 15.3977C19.9998 18.8777 19.9998 22.3577 19.9998 25.8378C19.9998 25.8762 19.9951 25.9156 19.9923 25.954C19.9802 25.9672 19.9672 25.9794 19.955 25.9925C18.4971 25.9953 17.0392 25.999 15.5822 26C15.0552 26 14.5282 25.9953 14.0012 25.9925L14.0003 25.9934Z" fill="#582669"/>
<path d="M15.3521 11.5051C15.8548 9.96435 16.3557 8.42268 16.8594 6.88288C17.2997 5.53439 17.7427 4.18683 18.1821 2.8374C18.2557 2.61046 18.3182 2.37978 18.3975 2.10876C18.8462 2.25505 19.2809 2.39572 19.7528 2.54951C19.4879 3.34379 19.2286 4.10712 18.9786 4.87421C18.5887 6.06797 18.2054 7.26361 17.8192 8.45925C17.4909 9.47484 17.1607 10.4904 16.8314 11.506C16.338 11.506 15.8445 11.506 15.3521 11.506V11.5051Z" fill="#FFD540"/>
<path d="M11.1648 11.5069C10.9092 10.7136 10.6555 9.92026 10.3971 9.12786C9.70689 7.00947 9.01758 4.89108 8.31987 2.7755C8.26017 2.59357 8.30588 2.52699 8.47564 2.47729C8.75827 2.39477 9.03996 2.30662 9.31233 2.19596C9.52034 2.11157 9.60242 2.15845 9.67238 2.37601C10.2703 4.22996 10.8812 6.07921 11.4866 7.93128C11.8765 9.12317 12.2617 10.3169 12.6488 11.5098C12.1545 11.5098 11.6601 11.5098 11.1657 11.5098L11.1648 11.5069Z" fill="#FFD540"/>
<path d="M11.1646 11.507C11.659 11.507 12.1534 11.507 12.6477 11.507C12.8651 11.507 13.0824 11.507 13.2997 11.507C13.5329 11.5117 13.7652 11.5164 13.9984 11.522C13.9984 12.7533 13.9984 13.9845 13.9984 15.2167L14.0021 15.2261C12.8063 15.2224 11.6105 15.2186 10.4147 15.2149C10.4147 15.1989 10.4119 15.1839 10.4072 15.1689V11.506H11.1646V11.507Z" fill="#C479DD"/>
<path d="M13.9995 15.2167C13.9995 13.9855 13.9995 12.7542 13.9995 11.522V11.506C14.2317 11.506 14.464 11.5042 14.6962 11.5042C14.9145 11.5042 15.1328 11.5042 15.352 11.5042C15.8454 11.5042 16.3388 11.5042 16.8313 11.5042C17.0701 11.5042 17.3089 11.5042 17.5869 11.5042C17.5869 12.7551 17.5869 13.9826 17.5869 15.2102C16.3911 15.212 15.1943 15.2139 13.9985 15.2158L13.9995 15.2167Z" fill="#C479DD"/>
<path d="M13.9994 11.5229C13.7662 11.5182 13.534 11.5135 13.3008 11.5079C13.3008 8.35049 13.3008 5.19212 13.3008 2C13.5452 2 13.7737 2 14.0022 2C14.0022 5.16868 14.0004 8.3383 13.9994 11.507V11.5229Z" fill="#FFD540"/>
<path d="M13.9995 11.507C13.9995 8.3383 14.0014 5.16868 14.0023 2C14.2252 2 14.4472 2 14.6963 2C14.6963 5.18181 14.6963 8.34299 14.6963 11.5051C14.464 11.5051 14.2318 11.506 13.9995 11.507Z" fill="#FFD540"/>
<path d="M10.4083 15.1699C10.413 15.1849 10.4158 15.1999 10.4158 15.2158C10.3999 15.2158 10.385 15.2158 10.3691 15.2158C10.3822 15.2008 10.3953 15.1858 10.4083 15.1699Z" fill="#F9F1FC"/>
<path d="M14.0034 21.3253H12.0679V19.9027C12.7105 19.9027 13.3551 19.9027 13.9996 19.9027L13.995 19.9111C13.9968 20.3791 13.9978 20.847 13.9996 21.314L14.0034 21.3253Z" fill="#C479DD"/>
<path d="M14.0003 21.314C13.9984 20.8461 13.9975 20.3781 13.9956 19.9111C14.6373 19.9111 15.2782 19.9111 15.9358 19.9111V21.314H14.0003Z" fill="#C479DD"/>
</g>
<defs>
<clipPath id="clip0_1_11723">
<rect width="12" height="24" fill="white" transform="translate(8 2)"/>
</clipPath>
</defs>
</svg>
