<svg width="44" height="44" viewBox="0 0 44 44" fill="none" xmlns="http://www.w3.org/2000/svg">
<path d="M2.2002 22.748L3.8502 18.634C4.1802 17.798 4.9942 17.248 5.8962 17.248H38.1152C39.0172 17.248 39.8202 17.798 40.1612 18.634L41.8112 22.748H2.2002Z" fill="#2B75CB"/>
<path d="M23.5508 13.299C22.6928 12.441 21.2958 12.441 20.4378 13.299L10.9888 22.748H13.1888L20.4378 15.499C21.2958 14.641 22.6928 14.641 23.5508 15.499L30.7998 22.748H32.9998L23.5508 13.299Z" fill="#2B75CB"/>
<path d="M2.2002 22.748H13.2002V39.248H3.3002C2.6952 39.248 2.2002 38.753 2.2002 38.148V22.748Z" fill="#B7B7B7"/>
<path d="M30.7998 22.748H41.7998V38.148C41.7998 38.753 41.3048 39.248 40.6998 39.248H30.7998V22.748Z" fill="#B7B7B7"/>
<path d="M30.8002 39.248H13.2002V23.199C13.2002 22.902 13.3212 22.627 13.5192 22.418L21.2192 14.718C21.6482 14.289 22.3412 14.289 22.7702 14.718L30.4702 22.418C30.6792 22.627 30.7892 22.902 30.7892 23.199V39.248H30.8002Z" fill="#E2E2E2"/>
<path d="M25.3002 31.262H18.7002V39.248H25.3002V31.262Z" fill="#525252"/>
<path d="M22 25.498C23.5188 25.498 24.75 24.2668 24.75 22.748C24.75 21.2293 23.5188 19.998 22 19.998C20.4812 19.998 19.25 21.2293 19.25 22.748C19.25 24.2668 20.4812 25.498 22 25.498Z" fill="white"/>
<path d="M22 4.3999V13.1009" stroke="#2B75CB" stroke-miterlimit="10"/>
<path d="M29.722 9.5479H22V4.3999H29.722L28.006 6.9739L29.722 9.5479Z" fill="#2B75CB"/>
</svg>
