<svg width="28" height="28" viewBox="0 0 28 28" fill="none" xmlns="http://www.w3.org/2000/svg">
<path d="M13.9998 9.33341C15.2885 9.33341 16.3332 8.28875 16.3332 7.00008C16.3332 5.71142 15.2885 4.66675 13.9998 4.66675C12.7112 4.66675 11.6665 5.71142 11.6665 7.00008C11.6665 8.28875 12.7112 9.33341 13.9998 9.33341Z" fill="#333333"/>
<path d="M13.9998 23.3334C15.2885 23.3334 16.3332 22.2887 16.3332 21.0001C16.3332 19.7114 15.2885 18.6667 13.9998 18.6667C12.7112 18.6667 11.6665 19.7114 11.6665 21.0001C11.6665 22.2887 12.7112 23.3334 13.9998 23.3334Z" fill="#333333"/>
<path d="M13.9998 16.3334C15.2885 16.3334 16.3332 15.2887 16.3332 14.0001C16.3332 12.7114 15.2885 11.6667 13.9998 11.6667C12.7112 11.6667 11.6665 12.7114 11.6665 14.0001C11.6665 15.2887 12.7112 16.3334 13.9998 16.3334Z" fill="#333333"/>
</svg>
