<svg width="28" height="28" viewBox="0 0 28 28" fill="none" xmlns="http://www.w3.org/2000/svg">
<path d="M25.6145 11.3668C25.7437 11.3733 25.8728 11.3792 26.0027 11.3857V12.851C25.955 13.0905 25.8944 13.3286 25.8617 13.57C25.7567 14.3444 25.5571 15.0927 25.2994 15.8306C24.9719 16.7681 24.5113 17.6325 23.9567 18.4526C23.1712 19.6139 22.2109 20.6075 21.0424 21.3728C20.3365 21.8353 19.5673 22.2013 18.8171 22.5934C18.6696 22.6704 18.6181 22.7441 18.6246 22.9033C18.6324 23.0873 18.6357 23.2791 18.592 23.4552C18.5072 23.7964 18.3102 23.9452 17.965 23.9465C16.6883 23.9491 15.4115 23.9445 14.1348 23.9426C14.1641 23.8871 14.1804 23.8154 14.2254 23.7788C14.4009 23.634 14.4492 23.4507 14.4303 23.2347C14.4212 23.1297 14.4368 23.0227 14.427 22.9176C14.4101 22.7428 14.4962 22.6521 14.6463 22.5823C15.0723 22.3846 15.5029 22.1941 15.9145 21.9697C17.2422 21.2475 18.3552 20.2676 19.2966 19.0906C20.118 18.0631 20.7404 16.924 21.1742 15.6825C21.6596 14.2909 21.8462 12.8543 21.8031 11.3851C22.0948 11.3838 22.3857 11.3818 22.6774 11.3805C23.6566 11.376 24.6359 11.3714 25.6151 11.3675L25.6145 11.3668Z" fill="#FFAF52"/>
<path d="M21.8023 11.3851C21.8453 12.855 21.6587 14.2909 21.1733 15.6825C20.7402 16.924 20.1178 18.0638 19.2957 19.0906C18.3543 20.2676 17.2413 21.2475 15.9137 21.9697C15.5013 22.1941 15.0708 22.3846 14.6454 22.5823C14.4953 22.6521 14.4092 22.7428 14.4262 22.9177C14.4366 23.022 14.4203 23.1297 14.4294 23.2347C14.4484 23.4507 14.3994 23.6346 14.2246 23.7788C14.1796 23.816 14.1633 23.8871 14.1339 23.9426C12.5975 23.9543 11.0611 23.9739 9.52531 23.9739C9.08559 23.9739 8.79527 23.6575 8.82202 23.2138C8.83964 22.9255 8.7359 22.8087 8.47168 22.7134C7.24124 22.2692 6.1315 21.6089 5.12941 20.7673C3.78415 19.6374 2.74096 18.2738 2.01744 16.6754C1.55293 15.6492 1.21172 14.5786 1.10146 13.4513C1.04014 12.825 1.031 12.1934 1.00034 11.5645C0.997731 11.5097 1.01078 11.4542 1.01665 11.3929C1.14648 11.3792 1.26587 11.3668 1.38526 11.3544C1.49813 11.3623 1.61099 11.376 1.72386 11.376C8.31119 11.3773 14.8985 11.3766 21.4858 11.3773C21.5915 11.3773 21.6972 11.3831 21.8023 11.3857V11.3851Z" fill="#FFAF52"/>
<path d="M21.8023 11.3851C21.6966 11.3818 21.5909 11.3766 21.4858 11.3766C14.8985 11.3766 8.31118 11.3766 1.72385 11.3753C1.61099 11.3753 1.49812 11.3616 1.38525 11.3538C1.38721 10.9891 1.36699 10.6218 1.57902 10.2936C1.87195 9.84085 2.28557 9.59163 2.81793 9.53161C2.85577 9.52705 2.89296 9.51596 2.93211 9.50747C2.50869 8.37816 3.14609 7.28473 4.40067 7.1549C4.44438 6.71975 4.59052 6.32961 4.92324 6.01711C5.22792 5.73005 5.57434 5.56108 5.99384 5.57869C6.25872 5.58978 6.41529 5.57282 6.53338 5.24531C6.82566 4.43111 7.68944 4.20342 8.40709 4.68881C8.46711 4.72926 8.52517 4.77297 8.60737 4.83104C8.85594 4.38871 9.23564 4.13623 9.73669 4.05076C10.254 3.96269 10.6703 4.14666 11.0565 4.50157C11.7043 3.91832 12.3698 3.80611 13.0607 4.51332C13.3151 4.11861 13.6785 3.94572 14.1352 4.01488C14.6147 4.08795 14.8418 4.42459 14.9638 4.89562C15.4491 4.47156 15.9959 4.34043 16.5843 4.50744C17.1767 4.67576 17.5336 5.10439 17.7039 5.71048C18.137 5.51149 18.5572 5.44886 18.993 5.6224C19.4366 5.79921 19.6702 6.15542 19.8124 6.58144C20.8406 6.31656 21.4389 6.73736 21.7983 7.43152C22.1467 7.17056 22.5277 7.08575 22.9303 7.28799C23.3289 7.48763 23.4933 7.82949 23.4692 8.29661C23.8221 8.28617 24.1359 8.37033 24.3629 8.64891C24.5893 8.92683 24.6396 9.24325 24.5639 9.51204C24.8509 9.75865 25.1321 9.95307 25.352 10.201C25.6423 10.5291 25.6658 10.9473 25.6156 11.3681C24.6363 11.3727 23.657 11.3766 22.6778 11.3812C22.3862 11.3825 22.0952 11.3838 21.8036 11.3857L21.8023 11.3851ZM12.835 6.99115C13.2062 6.99245 13.4469 6.75759 13.4515 6.38963C13.4554 6.05821 13.2107 5.82269 12.8591 5.81878C12.5205 5.81486 12.2393 6.07256 12.2315 6.39289C12.2237 6.71061 12.5061 6.98984 12.8356 6.99115H12.835ZM11.0095 8.46102C11.0128 8.19027 10.7603 7.92865 10.4876 7.91952C10.2103 7.91039 9.93632 8.17918 9.93828 8.45841C9.94024 8.7135 10.2208 8.99142 10.4746 8.99012C10.7453 8.98881 11.0063 8.72981 11.0095 8.46102ZM21.5491 9.23738C21.784 9.2426 22.0371 8.9986 22.0436 8.76047C22.0502 8.52169 21.8303 8.31292 21.57 8.30966C21.2856 8.3064 21.0853 8.49168 21.0768 8.76504C21.0703 8.98098 21.3221 9.23216 21.5491 9.23673V9.23738ZM5.49214 8.22811C5.48888 8.4845 5.69373 8.69523 5.95013 8.69914C6.16347 8.70306 6.41595 8.4421 6.41725 8.21637C6.41856 7.98215 6.20261 7.77338 5.95796 7.77273C5.69113 7.77208 5.4954 7.96323 5.49214 8.22811ZM18.6668 9.04231C18.9082 9.03774 19.0693 8.87921 19.068 8.64826C19.0661 8.40948 18.8906 8.25225 18.6361 8.26073C18.4221 8.26791 18.2825 8.4297 18.2865 8.66652C18.2904 8.89682 18.4417 9.04622 18.6668 9.04166V9.04231ZM16.3332 7.1014C16.3358 7.30822 16.4969 7.47589 16.6946 7.47915C16.8923 7.48241 17.071 7.30104 17.0651 7.10401C17.0593 6.89655 16.8838 6.74258 16.6587 6.74715C16.4258 6.75172 16.3299 6.8561 16.3332 7.1014ZM8.34772 9.38547C8.16048 9.38613 7.9902 9.55249 7.98368 9.74038C7.97715 9.9361 8.1533 10.1175 8.35033 10.1168C8.53757 10.1162 8.70784 9.9498 8.71437 9.76191C8.72089 9.56554 8.54474 9.38482 8.34772 9.38547ZM12.7671 10.5265C12.773 10.2042 12.6458 10.0666 12.4246 10.0712C12.2635 10.0744 12.1036 10.2382 12.0997 10.4039C12.0951 10.5905 12.2595 10.7516 12.4526 10.7523C12.6608 10.7529 12.7586 10.6433 12.7678 10.5265H12.7671ZM15.9913 10.4026C15.9893 10.6342 16.0872 10.7464 16.2953 10.7516C16.5126 10.7568 16.6274 10.6453 16.6267 10.43C16.6261 10.2082 16.5126 10.0751 16.3188 10.0692C16.1211 10.0633 15.9939 10.1932 15.9913 10.4026ZM15.3461 8.30901C15.1171 8.3064 15.0022 8.44666 15.0336 8.59411C15.0577 8.70893 15.2136 8.8505 15.333 8.87529C15.4857 8.90726 15.5914 8.76178 15.5972 8.59737C15.6044 8.40948 15.4837 8.32988 15.3461 8.30901ZM9.25325 6.28264C9.26108 6.11758 9.19389 6.01189 9.00534 6.01515C8.83376 6.01841 8.72481 6.11171 8.72089 6.27546C8.71633 6.45618 8.83311 6.54882 9.01382 6.55078C9.18801 6.55338 9.25652 6.45422 9.25325 6.28198V6.28264ZM13.6602 8.94836C13.5911 9.03383 13.4874 9.11081 13.4613 9.20802C13.4208 9.36003 13.4985 9.4742 13.6766 9.48203C13.841 9.48921 13.9369 9.4207 13.9408 9.24586C13.944 9.09059 13.8749 9.00316 13.6602 8.94902V8.94836ZM4.69295 10.3178C4.74644 10.2199 4.80646 10.1586 4.79798 10.1109C4.7882 10.0588 4.71578 9.98634 4.66685 9.98308C4.62118 9.98047 4.52463 10.0698 4.5318 10.0966C4.54942 10.1631 4.61401 10.2166 4.69229 10.3178H4.69295Z" fill="#EFEFEF"/>
<path d="M12.8357 6.99114C12.5063 6.98984 12.2238 6.71061 12.2316 6.39289C12.2394 6.0719 12.5206 5.81486 12.8592 5.81877C13.2109 5.82268 13.4555 6.0582 13.4516 6.38962C13.447 6.75758 13.2063 6.99245 12.8351 6.99114H12.8357Z" fill="#949494"/>
<path d="M11.0097 8.46037C11.0065 8.72981 10.7455 8.98816 10.4748 8.98947C10.2216 8.99077 9.94044 8.71285 9.93849 8.45776C9.93653 8.17787 10.2105 7.90908 10.4878 7.91887C10.7605 7.928 11.0123 8.18962 11.0097 8.46037Z" fill="#949494"/>
<path d="M21.5491 9.23671C21.3221 9.23214 21.0703 8.98032 21.0768 8.76502C21.0846 8.49166 21.2856 8.30638 21.57 8.30964C21.831 8.31291 22.0508 8.52167 22.0436 8.76045C22.0371 8.99858 21.784 9.24258 21.5491 9.23736V9.23671Z" fill="#949494"/>
<path d="M5.49174 8.22812C5.495 7.96259 5.69007 7.77144 5.95755 7.77274C6.20221 7.77339 6.41815 7.98216 6.41685 8.21638C6.41554 8.44211 6.16371 8.70307 5.94973 8.69916C5.69333 8.69459 5.48848 8.48452 5.49174 8.22812Z" fill="#949494"/>
<path d="M18.6661 9.04166C18.441 9.04558 18.2896 8.89618 18.2857 8.66653C18.2818 8.42971 18.4214 8.26791 18.6354 8.26073C18.8899 8.25225 19.0653 8.40948 19.0673 8.64826C19.0693 8.87921 18.9075 9.03775 18.6661 9.04231V9.04166Z" fill="#949494"/>
<path d="M16.3331 7.10075C16.3298 6.85545 16.4251 6.75107 16.6586 6.7465C16.8837 6.74193 17.0592 6.89525 17.0651 7.10336C17.071 7.30039 16.8922 7.48176 16.6945 7.4785C16.4968 7.47523 16.3364 7.30757 16.3331 7.10075Z" fill="#949494"/>
<path d="M8.34762 9.38416C8.54464 9.3835 8.72079 9.56422 8.71427 9.76059C8.70774 9.94849 8.53747 10.1149 8.35023 10.1155C8.1532 10.1162 7.97705 9.93479 7.98357 9.73907C7.9901 9.55117 8.16038 9.38481 8.34762 9.38416Z" fill="#949494"/>
<path d="M12.7668 10.5252C12.7583 10.6427 12.6604 10.7523 12.4517 10.751C12.2586 10.7503 12.0942 10.5892 12.0987 10.4026C12.1026 10.2362 12.2625 10.0731 12.4236 10.0698C12.6448 10.0653 12.772 10.2029 12.7661 10.5252H12.7668Z" fill="#949494"/>
<path d="M15.9912 10.4019C15.9932 10.1932 16.1211 10.0627 16.3187 10.0685C16.5125 10.0744 16.626 10.2075 16.6267 10.4293C16.6273 10.6453 16.5125 10.7568 16.2953 10.751C16.0871 10.7457 15.9893 10.6329 15.9912 10.4019Z" fill="#949494"/>
<path d="M15.3454 8.30835C15.4831 8.32988 15.6038 8.40948 15.5966 8.59672C15.5907 8.76112 15.485 8.90661 15.3324 8.87464C15.213 8.84985 15.057 8.70763 15.0329 8.59346C15.0016 8.44601 15.1164 8.30575 15.3454 8.30835Z" fill="#949494"/>
<path d="M9.25271 6.28198C9.25662 6.45422 9.18812 6.55273 9.01327 6.55077C8.83256 6.54816 8.71578 6.45552 8.72034 6.27546C8.72491 6.11105 8.83321 6.01776 9.00479 6.01515C9.19334 6.01189 9.26054 6.11758 9.25271 6.28264V6.28198Z" fill="#949494"/>
<path d="M13.6597 8.9477C13.875 9.00251 13.9435 9.08928 13.9402 9.24455C13.9363 9.41939 13.8404 9.4879 13.676 9.48072C13.4979 9.47289 13.4202 9.35872 13.4607 9.20671C13.4861 9.1095 13.5905 9.03317 13.6597 8.94705V8.9477Z" fill="#949494"/>
<path d="M4.69163 10.3171C4.61334 10.216 4.5481 10.1625 4.53114 10.0959C4.52396 10.0685 4.62052 9.97981 4.66619 9.98242C4.71512 9.98503 4.78754 10.0581 4.79732 10.1103C4.80646 10.1586 4.74578 10.2192 4.69228 10.3171H4.69163Z" fill="#949494"/>
</svg>
