<svg width="20" height="20" viewBox="0 0 20 20" fill="none" xmlns="http://www.w3.org/2000/svg">
<g id="icon-search">
<path id="Union" fill-rule="evenodd" clip-rule="evenodd" d="M13.0917 8.33341C13.0917 5.70841 10.9584 3.57508 8.33341 3.57508C5.70841 3.57508 3.57508 5.70841 3.57508 8.33341C3.57508 10.9584 5.70841 13.0917 8.33341 13.0917C10.9584 13.0917 13.0917 10.9584 13.0917 8.33341ZM1.66675 8.33341C1.66675 4.65008 4.65008 1.66675 8.33341 1.66675C12.0167 1.66675 15.0001 4.65008 15.0001 8.33341C15.0001 9.87513 14.4774 11.2942 13.5995 12.4232L17.9148 16.7385C18.2402 17.0639 18.2402 17.5915 17.9148 17.917C17.5893 18.2424 17.0617 18.2424 16.7363 17.917L12.4207 13.6014C11.2921 14.4782 9.874 15.0001 8.33341 15.0001C4.65008 15.0001 1.66675 12.0167 1.66675 8.33341Z" fill="#B7B7B7"/>
</g>
</svg>
