<svg width="44" height="44" viewBox="0 0 44 44" fill="none" xmlns="http://www.w3.org/2000/svg">
<g clip-path="url(#clip0_5204_7414)">
<rect x="23.3623" y="13.1982" width="12.1472" height="2.80312" fill="#949494"/>
<path d="M7.00434 13.0069C7.03658 11.5717 7.62647 10.4089 8.80948 9.60144C9.99008 8.79562 11.2077 8.04459 12.4254 7.29437C13.44 6.66905 14.5835 7.09775 15.001 8.21784C15.7681 10.2743 16.5281 12.334 17.3202 14.3808C17.6104 15.131 17.5846 15.7982 17.1099 16.4622C16.7118 17.019 16.3725 17.617 15.9785 18.1762C15.4224 18.9651 15.4305 19.7137 15.9704 20.5228C17.0527 22.1465 18.2696 23.6558 19.6758 25.0056C20.891 26.1724 22.2094 27.2135 23.6326 28.1193C24.2821 28.5327 24.9317 28.5689 25.5892 28.1475C26.3274 27.6753 27.0632 27.1998 27.7997 26.726C28.2639 26.4278 28.7619 26.3739 29.2745 26.564C31.182 27.2707 33.0854 27.9863 34.9905 28.6987C35.2451 28.7937 35.499 28.8912 35.7544 28.9847C36.8988 29.4013 37.3218 30.5271 36.6933 31.5746C36.1445 32.4892 35.553 33.3789 34.9808 34.2798C34.7116 34.7045 34.4739 35.1485 34.133 35.5264C33 36.7843 31.5881 37.2476 29.957 36.8729C26.1509 35.9986 22.6752 34.3741 19.4816 32.1339C17.6353 30.8381 15.9656 29.3385 14.4401 27.6857C10.8443 23.792 8.37915 19.2794 7.12764 14.1173C7.0398 13.7539 6.985 13.3864 7.00515 13.0069H7.00434Z" fill="#3ABDBD"/>
<path d="M36.9999 14.5789C36.9942 18.388 34.1697 21.5928 30.4023 22.0666C29.3998 22.1923 28.4134 22.1141 27.4431 21.8418C27.153 21.7604 26.883 21.7507 26.5865 21.8337C25.4228 22.1609 24.2535 22.4671 23.0858 22.7765C22.5773 22.9111 22.4024 22.7241 22.5402 22.2141C22.7933 21.2809 23.0382 20.3454 23.2969 19.4146C23.3582 19.1954 23.3396 19.0262 23.2034 18.828C21.2831 16.0173 21.4515 12.2863 23.6451 9.70285C24.9425 8.1742 26.6026 7.28215 28.6116 7.05491C30.9905 6.78576 33.0399 7.51423 34.737 9.1573C36.252 10.6247 36.9983 12.458 36.9999 14.5789ZM26.2303 14.5612C26.2303 14.1034 25.9611 13.8327 25.5026 13.8327C25.0932 13.8327 24.7531 14.1429 24.7435 14.5257C24.733 14.9496 25.065 15.284 25.4977 15.2856C25.9563 15.2872 26.2287 15.0173 26.2295 14.562L26.2303 14.5612ZM33.3574 13.8327C32.8996 13.8351 32.6321 14.1107 32.6369 14.574C32.6418 15.0173 32.9117 15.2832 33.3582 15.2848C33.7901 15.2864 34.1149 14.9745 34.1149 14.5579C34.1149 14.1413 33.7901 13.8303 33.3574 13.8319V13.8327ZM30.1597 14.5644C30.1613 14.1026 29.8921 13.8319 29.432 13.8327C28.9847 13.8327 28.714 14.097 28.7075 14.5378C28.7011 15.0027 28.967 15.2808 29.4199 15.2848C29.8825 15.2888 30.1573 15.0205 30.1597 14.5644Z" fill="#E2E2E2"/>
</g>
<defs>
<clipPath id="clip0_5204_7414">
<rect width="30" height="30" fill="white" transform="translate(7 7)"/>
</clipPath>
</defs>
</svg>
