<svg width="14" height="14" viewBox="0 0 14 14" fill="none" xmlns="http://www.w3.org/2000/svg">
<g id="Component 72">
<path id="Union" fill-rule="evenodd" clip-rule="evenodd" d="M4.3109 1.9624C2.73683 1.9624 0.795898 3.38511 0.795898 5.93824C0.795898 6.96496 1.23029 7.88446 1.78571 8.64537C2.34321 9.4091 3.06709 10.075 3.75877 10.6151C4.45468 11.1585 5.14605 11.5962 5.66153 11.8975C5.92025 12.0488 6.13705 12.167 6.29111 12.2485C6.44615 12.3304 6.53907 12.3757 6.53788 12.3751C6.66146 12.4369 6.79773 12.4691 6.9359 12.4691C7.03552 12.4635 7.16735 12.4385 7.2005 12.4288C7.21699 12.4235 7.24316 12.4144 7.25298 12.4107C7.27035 12.4041 7.28381 12.3983 7.28825 12.3964C7.29942 12.3916 7.30852 12.3874 7.31227 12.3857L7.33755 12.3738C7.3528 12.3665 7.37194 12.3571 7.3942 12.346C7.43913 12.3235 7.50159 12.2917 7.57899 12.251C7.73385 12.1696 7.95107 12.0514 8.20995 11.9002C8.72583 11.5989 9.41732 11.161 10.1133 10.6171C10.805 10.0766 11.5288 9.41011 12.0863 8.64595C12.6416 7.88468 13.0759 6.96488 13.0759 5.93824C13.0759 3.36996 11.0847 1.9624 9.5609 1.9624C8.35602 1.9624 7.48187 2.53362 6.93703 3.15267C6.40373 2.53771 5.55529 1.9624 4.3109 1.9624Z" fill="#FFBBC3"/>
</g>
</svg>
