<svg width="28" height="28" viewBox="0 0 28 28" fill="none" xmlns="http://www.w3.org/2000/svg">
<path fill-rule="evenodd" clip-rule="evenodd" d="M16.7567 4.39877C16.6228 3.24034 15.6316 2.33325 14.4388 2.33325C13.2454 2.33325 12.2538 3.23108 12.1207 4.39823C8.08282 5.43082 5.10539 9.08606 5.10539 13.4399V16.6599C5.10539 16.8466 5.05872 17.0216 4.97705 17.1849L3.62372 19.9149C3.23872 20.6849 3.79872 21.6066 4.66205 21.6066H24.2154C25.0787 21.6066 25.6504 20.6966 25.2537 19.9149L23.8887 17.1849C23.8071 17.0216 23.7604 16.8466 23.7604 16.6599V13.7549C23.7604 9.37514 20.843 5.4846 16.7567 4.39877ZM18.5221 21.6066C18.5221 23.8583 16.6904 25.6899 14.4388 25.6899C12.1871 25.6899 10.3554 23.8583 10.3554 21.6066H12.6888C12.6888 22.5749 13.4704 23.3566 14.4388 23.3566C15.4071 23.3566 16.1888 22.5749 16.1888 21.6066H18.5221ZM14.9054 6.4516C14.7537 6.43993 14.5904 6.43993 14.4387 6.43993H14.4504C10.5887 6.43993 7.45039 9.57826 7.45039 13.4399V16.6599C7.45039 17.1966 7.32205 17.7449 7.07705 18.2233L6.55205 19.2616H22.3371L21.812 18.2233C21.5671 17.7449 21.4387 17.1966 21.4387 16.6599V13.7549C21.4387 9.89326 18.5687 6.68493 14.9054 6.4516Z" fill="#333333"/>
</svg>
