<svg width="28" height="28" viewBox="0 0 28 28" fill="none" xmlns="http://www.w3.org/2000/svg">
<g clip-path="url(#clip0_1_11791)">
<path d="M7.0036 13.9747C7.0036 10.195 6.9966 6.41419 7.00826 2.63335C7.0106 1.87673 7.7036 1.13583 8.46543 1.05613C8.72326 1.02919 8.98343 1.00337 9.24243 1.00225C12.5079 1 15.7734 1 19.0389 1C19.9419 1 20.6641 1.51751 20.8893 2.25504C20.9499 2.45598 20.9931 2.66927 20.9931 2.87807C20.9978 10.2904 20.9954 17.7017 20.9989 25.1141C20.9989 26.2075 20.0948 27.0034 19.0436 27C15.5926 26.9854 12.1428 27.0034 8.69176 26.982C7.78876 26.9764 7.01643 26.2243 7.0106 25.3734C6.99076 21.5735 7.0036 17.7747 7.0036 13.9747ZM8.87843 21.597H19.1101V4.60123H8.87726V21.5982L8.87843 21.597ZM12.1451 3.21597H17.7066V2.36505H12.1451V3.21597ZM13.0644 24.3002C13.0644 24.8042 13.4658 25.2028 13.9721 25.2028C14.4808 25.2028 14.9369 24.7728 14.9299 24.3025C14.9229 23.8276 14.4598 23.4021 13.9581 23.4111C13.4634 23.4201 13.0644 23.8164 13.0644 24.3002ZM10.2819 3.21933H11.1779V2.36281H10.2819V3.21933Z" fill="#525252"/>
<path d="M8.87695 21.597V4.6012H19.1086V21.5981H8.87695V21.597ZM14.1958 10.5239C14.1456 10.5329 14.0955 10.543 14.0453 10.552C13.9823 10.635 13.9286 10.7271 13.854 10.8001C12.8401 11.7778 11.8216 12.75 10.809 13.7289C10.3213 14.2015 10.3283 14.0533 10.8031 14.5483C11.0015 14.756 11.1216 14.7223 11.3118 14.5382C12.3875 13.4886 13.4771 12.4514 14.561 11.4096C14.6275 11.3456 14.6905 11.276 14.8351 11.1256C14.6146 10.9179 14.4046 10.7215 14.1958 10.5239ZM16.836 10.0592C16.7776 10.1579 16.7403 10.2646 16.6668 10.3353C15.6483 11.3209 14.6228 12.2987 13.6043 13.2832C13.1201 13.7513 13.1248 13.6065 13.6043 14.1016C13.7851 14.2879 13.8995 14.2946 14.092 14.1072C15.1805 13.0452 16.283 11.9956 17.3796 10.9415C17.4403 10.8843 17.494 10.8203 17.5535 10.7563C17.3341 10.543 17.1265 10.3421 16.8348 10.0603L16.836 10.0592Z" fill="#FEE384"/>
<path d="M12.145 3.21603V2.36511H17.7065V3.21603H12.145Z" fill="#949494"/>
<path d="M13.0654 24.3002C13.0654 23.8164 13.4644 23.419 13.9591 23.4112C14.4608 23.4022 14.9239 23.8276 14.9309 24.3025C14.9379 24.7728 14.4806 25.2028 13.9731 25.2028C13.4668 25.2028 13.0654 24.8043 13.0654 24.3002Z" fill="#EFEFEF"/>
<path d="M10.2817 3.21932V2.36279H11.1777V3.21932H10.2817Z" fill="#949494"/>
<path d="M14.1959 10.525C14.4048 10.7215 14.6148 10.919 14.8353 11.1267C14.6894 11.2783 14.6276 11.3468 14.5611 11.4107C13.4773 12.4525 12.3888 13.4897 11.3119 14.5394C11.1218 14.7246 11.0028 14.7571 10.8033 14.5495C10.3284 14.0544 10.3203 14.2015 10.8091 13.73C11.8218 12.7511 12.8403 11.7789 13.8541 10.8012C13.9288 10.7293 13.9824 10.6362 14.0454 10.5531C14.0956 10.5441 14.1458 10.534 14.1959 10.525Z" fill="#FEE384"/>
<path d="M16.8374 10.0603C17.129 10.3421 17.3367 10.543 17.556 10.7563C17.4965 10.8203 17.4429 10.8843 17.3822 10.9415C16.2855 11.9956 15.183 13.0453 14.0945 14.1072C13.902 14.2958 13.7877 14.288 13.6069 14.1016C13.1262 13.6065 13.1215 13.7514 13.6069 13.2832C14.6254 12.2987 15.6509 11.321 16.6694 10.3354C16.7429 10.2646 16.779 10.158 16.8385 10.0592L16.8374 10.0603Z" fill="#FEE384"/>
</g>
<defs>
<clipPath id="clip0_1_11791">
<rect width="14" height="26" fill="white" transform="translate(7 1)"/>
</clipPath>
</defs>
</svg>
