<svg width="28" height="28" viewBox="0 0 28 28" fill="none" xmlns="http://www.w3.org/2000/svg">
<path fill-rule="evenodd" clip-rule="evenodd" d="M18.3285 11.6666C18.3285 7.99158 15.3418 5.00492 11.6668 5.00492C7.99183 5.00492 5.00516 7.99158 5.00516 11.6666C5.00516 15.3416 7.99183 18.3283 11.6668 18.3283C15.3418 18.3283 18.3285 15.3416 18.3285 11.6666ZM2.3335 11.6666C2.3335 6.50992 6.51016 2.33325 11.6668 2.33325C16.8235 2.33325 21.0002 6.50992 21.0002 11.6666C21.0002 13.825 20.2684 15.8117 19.0394 17.3923L25.0807 23.4337C25.5363 23.8893 25.5363 24.628 25.0807 25.0836C24.6251 25.5392 23.8864 25.5392 23.4308 25.0836L17.3891 19.0418C15.809 20.2693 13.8236 20.9999 11.6668 20.9999C6.51016 20.9999 2.3335 16.8233 2.3335 11.6666Z" fill="#333333"/>
</svg>
