<svg width="28" height="28" viewBox="0 0 28 28" fill="none" xmlns="http://www.w3.org/2000/svg">
<g clip-path="url(#clip0_1_11746)">
<path d="M2.88086 15.5231C2.92682 15.0194 3.08915 14.5561 3.36883 14.1321C3.38643 14.1033 3.40501 14.0754 3.42262 14.0466C3.73261 13.7919 4.0426 13.5371 4.35358 13.2824C4.61468 13.1969 4.87577 13.1113 5.13687 13.0248C5.82043 13.0113 6.50398 12.9988 7.18753 12.9854C9.11986 12.9854 11.0522 12.9844 12.9855 12.9835C13.4901 12.9835 13.9947 12.9835 14.5003 12.9835C16.4365 12.9835 18.3727 12.9835 20.309 12.9835C20.8077 12.9835 21.3064 12.9844 21.8052 12.9854C21.9401 13.0008 22.0751 13.0152 22.21 13.0306C23.3962 13.1007 24.5707 14.2244 24.6029 15.5702C24.6215 16.3526 24.6059 17.136 24.6059 17.9195C24.3135 17.9243 24.0211 17.93 23.7287 17.9348C23.4392 17.9339 23.1498 17.9329 22.8603 17.931C20.4762 17.931 18.0921 17.931 15.708 17.931C15.5945 17.9262 15.4811 17.9166 15.3677 17.9166C11.4991 17.9146 7.6315 17.9137 3.76292 17.9137C3.76097 17.4417 3.75901 16.9707 3.75804 16.4987C3.75608 15.9133 3.46858 15.5932 2.88086 15.5221V15.5231Z" fill="#C6DDF2"/>
<path d="M7.18764 12.9864C6.50409 12.9998 5.82053 13.0123 5.13698 13.0258C5.13503 10.3824 5.13307 7.73895 5.13405 5.09649C5.13405 5.03593 5.16143 4.97633 5.1761 4.91577C10.6289 4.91577 16.0807 4.91577 21.5334 4.91769C21.6302 4.91769 21.728 4.92442 21.8248 4.92827C21.8248 6.35764 21.8248 7.78701 21.8209 9.21638C21.8209 9.30577 21.7847 9.39517 21.7662 9.48457C21.5931 8.95588 21.2381 8.62233 20.667 8.57811C20.2895 8.54831 19.9082 8.57811 19.5278 8.58196C18.2359 8.57619 16.9441 8.56177 15.6523 8.5685C15.1311 8.57138 14.6656 8.97414 14.5444 9.47495C14.4974 9.42208 14.4358 9.37594 14.4055 9.31539C14.1972 8.89436 13.8765 8.60791 13.3914 8.57619C12.9973 8.55024 12.5993 8.57811 12.2033 8.58196C10.9271 8.57523 9.65194 8.5685 8.37579 8.56369C7.93866 8.56177 7.62671 8.79535 7.38713 9.12314C7.21697 9.35576 7.18764 9.6374 7.18862 9.92001C7.18959 10.9428 7.18862 11.9655 7.18862 12.9883L7.18764 12.9864Z" fill="#AF7400"/>
<path d="M3.76416 17.9137C7.63273 17.9137 11.5003 17.9156 15.3689 17.9175C15.4823 17.9175 15.5958 17.9272 15.7092 17.932C15.7728 17.9935 15.8295 18.0617 15.8989 18.1136C16.9267 18.8884 17.9574 19.6603 18.9842 20.436C19.2736 20.6542 19.2932 20.6561 19.5807 20.436C20.1831 19.9775 20.7904 19.5257 21.3918 19.0672C21.8837 18.6913 22.3707 18.3097 22.8606 17.931C23.15 17.932 23.4395 17.9329 23.729 17.9348C23.726 19.2662 23.7231 20.5975 23.7202 21.9288C22.8665 21.9279 22.0127 21.925 21.1581 21.925C15.4647 21.925 9.77238 21.925 4.07905 21.925C3.97343 21.925 3.86782 21.9269 3.76221 21.9279C3.76221 20.5898 3.76318 19.2517 3.76416 17.9137Z" fill="#AF7400"/>
<path d="M21.7651 9.48362C21.7847 9.39422 21.8199 9.30483 21.8199 9.21543C21.8238 7.78606 21.8228 6.35669 21.8238 4.92732C22.4907 4.92252 23.1577 4.91771 23.8246 4.9129C23.8373 4.97442 23.8608 5.03498 23.8608 5.0965C23.8608 7.73896 23.8588 10.3814 23.8578 13.0248C23.4403 13.0123 23.0227 12.996 22.6052 12.9912C22.4731 12.9893 22.3411 13.0172 22.2101 13.0316C22.0751 13.0162 21.9402 13.0018 21.8052 12.9864C21.8072 11.9848 21.8111 10.9832 21.8091 9.98154C21.8091 9.81621 21.7808 9.64991 21.7651 9.48458V9.48362Z" fill="#AF7400"/>
<path d="M4.35388 13.2824C4.04388 13.5372 3.73389 13.7919 3.42292 14.0466C3.40825 14.0418 3.3926 14.038 3.37696 14.0351C3.375 10.6823 3.37402 7.32944 3.37402 3.97662C3.37402 3.91413 3.39554 3.85165 3.40043 3.78821C3.42585 3.47773 3.57645 3.24799 3.85515 3.099C4.18079 3.32585 4.30009 3.63633 4.29912 4.02564C4.29227 7.01319 4.29423 10.0007 4.29814 12.9892C4.29814 13.0873 4.3353 13.1844 4.35486 13.2824H4.35388Z" fill="#FEE384"/>
<path d="M24.2969 3.1432C24.7027 2.84041 25.353 3.03939 25.5378 3.53155C25.5877 3.66324 25.621 3.81031 25.6219 3.95065C25.6258 7.29578 25.6239 10.6419 25.6229 13.987C25.6229 14.0033 25.621 14.0187 25.62 14.0351C25.6043 14.0389 25.5887 14.0437 25.574 14.0495C25.2982 13.8111 25.0235 13.5737 24.7477 13.3353C24.7496 12.2327 24.7536 11.1302 24.7536 10.0276C24.7536 7.9898 24.7536 5.95196 24.7536 3.91508C24.7536 3.53828 24.5863 3.25759 24.2979 3.14417L24.2969 3.1432Z" fill="#FEE384"/>
<path d="M24.2972 3.14323C24.5856 3.25666 24.7529 3.53638 24.7529 3.91415C24.7529 5.95199 24.7538 7.98983 24.7529 10.0267C24.7529 11.1293 24.7489 12.2318 24.747 13.3343C24.4507 13.2305 24.1544 13.1267 23.8571 13.0239C23.8591 10.3814 23.861 7.73894 23.86 5.09552C23.86 5.034 23.8366 4.97344 23.8239 4.91192C23.8239 4.57837 23.8082 4.2429 23.8297 3.91031C23.8503 3.58445 23.9568 3.2903 24.2972 3.14227V3.14323Z" fill="#FEE384"/>
<path d="M4.35371 13.2824C4.33415 13.1844 4.29797 13.0873 4.29699 12.9893C4.29406 10.0017 4.29113 7.01417 4.29797 4.02566C4.29797 3.63635 4.17964 3.32587 3.854 3.09902C4.48279 2.80776 5.11745 3.19034 5.1331 3.86705C5.14092 4.21598 5.16048 4.56492 5.17417 4.91385C5.1595 4.97441 5.13212 5.034 5.13212 5.09456C5.13212 7.73798 5.13407 10.3814 5.13505 13.0239C4.87395 13.1094 4.61285 13.195 4.35175 13.2815L4.35371 13.2824Z" fill="#FEE384"/>
<path d="M26.1158 15.5222C26.2409 15.5529 26.371 15.5693 26.4883 15.6173C26.8736 15.773 26.9939 16.1008 26.9949 16.469C27.0008 19.0192 26.9998 21.5693 26.9959 24.1195C26.9959 24.4675 26.8296 24.7405 26.5108 24.8933C26.2566 25.0154 25.9867 25.0567 25.7266 24.8876C26.107 24.5905 26.1285 24.1868 26.1255 23.7466C26.1119 21.405 26.1119 19.0634 26.1255 16.7218C26.1285 16.295 26.0972 15.9105 25.7285 15.6289C25.8576 15.5933 25.9857 15.5577 26.1148 15.5231L26.1158 15.5222Z" fill="#FEE384"/>
<path d="M2.48699 24.8866C2.1506 24.7251 2.00293 24.4454 2.00196 24.0935C1.99902 21.5376 2 18.9826 2.00098 16.4276C2.00098 16.0546 2.17798 15.772 2.46841 15.6653C2.89282 15.8932 2.92314 16.2988 2.92412 16.6987C2.93096 19.0681 2.92803 21.4376 2.92705 23.8071C2.92705 24.2223 2.85468 24.6136 2.48699 24.8866Z" fill="#FEE384"/>
<path d="M2.48684 24.8866C2.85453 24.6136 2.92592 24.2233 2.9269 23.8071C2.92787 21.4376 2.93081 19.0681 2.92396 16.6987C2.92298 16.2988 2.89267 15.8931 2.46826 15.6653C2.60615 15.6182 2.74305 15.5702 2.88094 15.5231C3.46963 15.5942 3.75713 15.9143 3.75811 16.4997C3.75909 16.9717 3.76104 17.4427 3.763 17.9146C3.763 19.2527 3.76202 20.5908 3.76104 21.9288C3.76007 22.6699 3.76398 23.411 3.7542 24.1522C3.75029 24.4924 3.57329 24.7491 3.26721 24.8952C3.01491 25.0154 2.74403 25.0567 2.48586 24.8875L2.48684 24.8866Z" fill="#FEE384"/>
<path d="M25.7297 15.6288C26.0984 15.9105 26.1297 16.295 26.1268 16.7218C26.1131 19.0634 26.1131 21.405 26.1268 23.7466C26.1297 24.1868 26.1082 24.5905 25.7278 24.8876C25.3992 24.7213 25.2408 24.455 25.2418 24.0945C25.2418 23.463 25.2437 22.8305 25.2398 22.1989C25.2398 22.1163 25.2075 22.0346 25.1909 21.9519C25.2075 21.8683 25.2398 21.7847 25.2398 21.701C25.2427 20.5149 25.2427 19.3287 25.2398 18.1415C25.2398 18.0675 25.2095 17.9935 25.1939 17.9195C25.2095 17.8359 25.2388 17.7522 25.2398 17.6686C25.2447 17.2485 25.2427 16.8285 25.2418 16.4084C25.2418 16.0489 25.4051 15.7903 25.7307 15.6288H25.7297Z" fill="#FEE384"/>
<path d="M25.1929 17.9195C25.2086 17.9935 25.2389 18.0675 25.2389 18.1415C25.2418 19.3277 25.2418 20.5139 25.2389 21.701C25.2389 21.7847 25.2066 21.8683 25.19 21.9519C24.7001 21.9442 24.2101 21.9365 23.7202 21.9288C23.7231 20.5975 23.7261 19.2662 23.729 17.9349C24.0214 17.9301 24.3138 17.9243 24.6062 17.9195C24.8018 17.9195 24.9974 17.9195 25.1929 17.9195Z" fill="#AF7400"/>
<path d="M25.193 17.9195C24.9975 17.9195 24.8019 17.9195 24.6063 17.9195C24.6063 17.136 24.6219 16.3526 24.6034 15.5702C24.5711 14.2244 23.3966 13.1007 22.2104 13.0306C22.3425 13.0162 22.4745 12.9892 22.6055 12.9902C23.0231 12.996 23.4406 13.0123 23.8582 13.0238C24.1545 13.1277 24.4508 13.2305 24.7471 13.3343C25.0229 13.5727 25.2977 13.8101 25.5734 14.0485C25.592 14.0754 25.6116 14.1024 25.6302 14.1293C25.9069 14.5551 26.0771 15.0165 26.1162 15.5221C25.9871 15.5577 25.859 15.5932 25.7299 15.6279C25.4052 15.7893 25.241 16.0479 25.241 16.4074C25.241 16.8275 25.2439 17.2475 25.239 17.6676C25.239 17.7512 25.2087 17.8349 25.193 17.9185V17.9195Z" fill="#C6DDF2"/>
<path d="M3.37794 14.0351C3.39359 14.038 3.40923 14.0418 3.4239 14.0466C3.4063 14.0755 3.38772 14.1033 3.37012 14.1322C3.37305 14.0995 3.37598 14.0678 3.37794 14.0351Z" fill="#FEE384"/>
<path d="M25.63 14.1293C25.6114 14.1024 25.5918 14.0755 25.5732 14.0485C25.5879 14.0418 25.6036 14.037 25.6192 14.0341C25.6221 14.0658 25.626 14.0976 25.63 14.1293Z" fill="#FEE384"/>
<path d="M7.18799 12.9864C7.18799 11.9636 7.18995 10.9409 7.18799 9.91809C7.18799 9.63548 7.21733 9.35384 7.3865 9.12121C7.62609 8.79343 7.93706 8.56081 8.37516 8.56177C9.65132 8.56658 10.9265 8.57427 12.2027 8.58003C12.2398 8.61848 12.2692 8.67039 12.3141 8.69346C12.7816 8.93185 12.982 9.32596 12.984 9.82485C12.9889 10.8784 12.985 11.9309 12.985 12.9845C11.0526 12.9845 9.12032 12.9854 7.18701 12.9864H7.18799Z" fill="#F7F7F7"/>
<path d="M14.5445 9.474C14.6658 8.97319 15.1303 8.57043 15.6525 8.56755C16.9443 8.56082 18.2361 8.57524 19.5279 8.58101C19.5699 8.62618 19.6041 8.68386 19.655 8.71462C20.1303 9.00395 20.3121 9.43555 20.3112 9.96616C20.3082 10.9716 20.3102 11.978 20.3102 12.9835C18.3739 12.9835 16.4377 12.9835 14.5015 12.9835C14.5161 11.8137 14.5308 10.6429 14.5455 9.47304L14.5445 9.474Z" fill="#F7F7F7"/>
<path d="M22.8604 17.931C22.3714 18.3098 21.8834 18.6923 21.3916 19.0672C20.7901 19.5257 20.1829 19.9785 19.5805 20.436C19.292 20.6552 19.2724 20.6533 18.984 20.436C17.9562 19.6603 16.9265 18.8884 15.8987 18.1137C15.8293 18.0608 15.7716 17.9925 15.709 17.932C18.0931 17.932 20.4772 17.932 22.8613 17.932L22.8604 17.931Z" fill="#C6DDF2"/>
<path d="M14.5447 9.47395C14.53 10.6438 14.5154 11.8146 14.5007 12.9844C13.9961 12.9844 13.4915 12.9844 12.9859 12.9844C12.9859 11.9309 12.9898 10.8783 12.985 9.82481C12.983 9.32592 12.7825 8.93277 12.3151 8.69342C12.2701 8.67035 12.2408 8.61845 12.2036 8.58C12.5997 8.57615 12.9977 8.54731 13.3918 8.57423C13.8758 8.60691 14.1976 8.8924 14.4058 9.31343C14.4362 9.37398 14.4978 9.42012 14.5447 9.47299V9.47395Z" fill="#F7F7F7"/>
<path d="M20.3092 12.9835C20.3092 11.978 20.3082 10.9716 20.3102 9.96613C20.3111 9.43552 20.1292 9.00296 19.654 8.71459C19.6031 8.68383 19.5689 8.62616 19.5269 8.58098C19.9063 8.57713 20.2886 8.54733 20.6661 8.57713C21.2372 8.62135 21.5922 8.9549 21.7653 9.48358C21.7809 9.64892 21.8083 9.81521 21.8093 9.98055C21.8112 10.9822 21.8073 11.9838 21.8054 12.9854C21.3066 12.9854 20.8079 12.9844 20.3092 12.9835Z" fill="#F7F7F7"/>
</g>
<defs>
<clipPath id="clip0_1_11746">
<rect width="25" height="22" fill="white" transform="translate(2 3)"/>
</clipPath>
</defs>
</svg>
