<svg width="44" height="44" viewBox="0 0 44 44" fill="none" xmlns="http://www.w3.org/2000/svg">
<path d="M12.1 6.32495H32.45C33.055 6.32495 33.55 6.81995 33.55 7.42495V37.125H11V7.42495C11 6.81995 11.495 6.32495 12.1 6.32495Z" fill="#D1C4AF"/>
<path d="M26.4002 8.5249H13.2002V37.1249H26.4002V8.5249Z" fill="#665D4F"/>
<path d="M33.5502 6.32502L20.0422 3.32202C19.3602 3.16802 18.7002 3.69602 18.7002 4.40002V39.061C18.7002 39.765 19.3492 40.282 20.0422 40.139L33.5502 37.136V6.32502Z" fill="#AF7400"/>
<path d="M22.8252 23.1001C23.5846 23.1001 24.2002 22.4845 24.2002 21.7251C24.2002 20.9657 23.5846 20.3501 22.8252 20.3501C22.0658 20.3501 21.4502 20.9657 21.4502 21.7251C21.4502 22.4845 22.0658 23.1001 22.8252 23.1001Z" fill="#4B4336"/>
</svg>
