<svg width="22" height="22" viewBox="0 0 22 22" fill="none" xmlns="http://www.w3.org/2000/svg">
<g clip-path="url(#clip0_1_11706)">
<path d="M0 11.2864C0.0241077 7.95528 1.11154 5.34429 3.23646 3.20537C5.13064 1.29816 7.45186 0.212766 10.1502 0.0301432C13.3832 -0.189521 16.2185 0.789922 18.5819 3.01671C20.625 4.942 21.7667 7.33936 21.9673 10.1373C22.1989 13.3625 21.2131 16.2034 18.984 18.5577C16.9606 20.6949 14.4414 21.8518 11.502 21.9871C8.38087 22.1309 5.66445 21.0903 3.41038 18.9264C1.16406 16.7694 0.0516594 14.1059 0 11.2864ZM11.0009 0.970822C5.3786 0.899324 1.19161 5.47781 0.966891 10.4586C0.834299 13.4107 1.80808 15.9838 3.90631 18.0727C6.076 20.2323 8.7201 21.2385 11.7818 20.999C14.4233 20.7923 16.6644 19.6905 18.4476 17.723C20.3082 15.6694 21.1468 13.2229 21.0262 10.4663C20.8067 5.43905 16.649 0.926028 11.0009 0.971684V0.970822Z" fill="#DC5A31"/>
<path d="M1.30361 10.9651C1.2554 5.71559 5.67658 1.05096 11.4332 1.26718C16.2995 1.4498 20.9454 5.5614 20.7284 11.432C20.5484 16.2853 16.4346 20.9284 10.5687 20.7062C5.63439 20.5192 1.27262 16.3766 1.30361 10.9651ZM10.8873 9.68074C10.2502 9.04243 9.63196 8.42564 9.01808 7.80628C8.7615 7.54785 8.29657 7.50995 8.05721 7.73564C7.73348 8.04231 7.69388 8.45407 7.98489 8.74954C8.79939 9.57479 9.62077 10.394 10.4456 11.2089C10.6953 11.4561 11.1129 11.4329 11.3626 11.1814C11.8576 10.6843 12.3536 10.1881 12.8495 9.69194C13.1388 9.4025 13.162 8.99074 12.9037 8.72887C12.5809 8.40152 12.1762 8.3886 11.8593 8.70302C11.5391 9.02003 11.2239 9.34134 10.8873 9.68074ZM18.5423 11.4191C18.8282 11.4191 19.1149 11.4251 19.4007 11.4174C19.6453 11.4105 19.8226 11.2201 19.8252 10.9815C19.8278 10.7369 19.6685 10.556 19.4162 10.5525C18.8583 10.5448 18.3004 10.5456 17.7416 10.5542C17.4868 10.5585 17.3249 10.7489 17.3318 11.0013C17.3387 11.246 17.5135 11.4157 17.7683 11.4182C18.0257 11.4208 18.2832 11.4182 18.5415 11.4182L18.5423 11.4191ZM10.5747 3.40438C10.5747 3.66195 10.5713 3.92038 10.5747 4.17794C10.5791 4.48375 10.7392 4.66896 10.9906 4.66896C11.242 4.66896 11.4409 4.46394 11.4435 4.18225C11.4487 3.65936 11.4495 3.13648 11.4435 2.61359C11.44 2.33018 11.2765 2.17512 11.0078 2.17512C10.7358 2.17512 10.5825 2.32415 10.5765 2.60928C10.5704 2.8746 10.5756 3.13906 10.5747 3.40438ZM3.4139 11.4191C3.4139 11.4191 3.4139 11.4191 3.4139 11.42C3.68597 11.42 3.95804 11.4234 4.23012 11.4191C4.48497 11.4157 4.65286 11.264 4.65544 11.0444C4.65975 10.7351 4.5151 10.5542 4.23873 10.5508C3.69458 10.5448 3.15044 10.5456 2.60629 10.5516C2.37727 10.5542 2.15771 10.7756 2.16288 10.9789C2.16891 11.2132 2.37296 11.4139 2.6192 11.4182C2.88439 11.4226 3.14871 11.4191 3.4139 11.4191ZM11.4659 18.5672C11.459 18.5672 11.453 18.5672 11.4461 18.5664C11.4461 18.3011 11.453 18.0357 11.4443 17.7713C11.4357 17.5128 11.2842 17.3552 11.0638 17.3526C10.7271 17.3483 10.5902 17.4319 10.5842 17.6972C10.5713 18.27 10.5739 18.8429 10.5816 19.4157C10.5842 19.613 10.7909 19.8206 10.9734 19.8439C11.1146 19.862 11.3755 19.6802 11.3996 19.5002C11.4409 19.1918 11.4452 18.8782 11.465 18.5664L11.4659 18.5672Z" fill="white"/>
<path d="M10.887 9.68158C11.2237 9.34218 11.5388 9.02001 11.8591 8.70386C12.1759 8.3903 12.5806 8.40236 12.9035 8.72971C13.1618 8.99158 13.1385 9.40334 12.8492 9.69278C12.3533 10.189 11.8574 10.6851 11.3623 11.1822C11.1118 11.4337 10.695 11.457 10.4454 11.2098C9.62053 10.3948 8.80001 9.57563 7.98465 8.75038C7.69364 8.45577 7.73238 8.04315 8.05698 7.73648C8.29633 7.50993 8.76126 7.54783 9.01784 7.80712C9.63259 8.42648 10.2499 9.04327 10.887 9.68158Z" fill="#525252"/>
<path d="M18.5424 11.4199C18.285 11.4199 18.0276 11.4225 17.7693 11.4199C17.5144 11.4174 17.3396 11.2468 17.3327 11.003C17.3258 10.7506 17.4877 10.5594 17.7426 10.5559C18.3005 10.5473 18.8584 10.5465 19.4172 10.5542C19.6695 10.5576 19.8287 10.7385 19.8262 10.9832C19.8236 11.2209 19.6462 11.4113 19.4017 11.4191C19.1158 11.4277 18.8291 11.4208 18.5433 11.4208L18.5424 11.4199Z" fill="#525252"/>
<path d="M10.5755 3.40437C10.5755 3.13905 10.5712 2.87459 10.5764 2.60927C10.5824 2.32414 10.7357 2.17511 11.0077 2.17511C11.2772 2.17511 11.44 2.33017 11.4434 2.61358C11.4503 3.13646 11.4494 3.65935 11.4434 4.18224C11.4408 4.46392 11.2419 4.66894 10.9905 4.66894C10.7391 4.66894 10.579 4.4846 10.5747 4.17793C10.5704 3.92036 10.5747 3.66193 10.5747 3.40437H10.5755Z" fill="#525252"/>
<path d="M3.4137 11.42C3.14852 11.42 2.88333 11.4234 2.61901 11.4191C2.37277 11.4148 2.16957 11.2141 2.16269 10.9798C2.15752 10.7765 2.37707 10.5551 2.6061 10.5525C3.15024 10.5465 3.69439 10.5448 4.23853 10.5516C4.51491 10.5551 4.65956 10.736 4.65525 11.0452C4.65267 11.2649 4.48478 11.4165 4.22992 11.42C3.95785 11.4243 3.68578 11.4208 3.4137 11.4208C3.4137 11.4208 3.4137 11.4208 3.4137 11.42Z" fill="#525252"/>
<path d="M11.466 18.5681C11.4462 18.8799 11.441 19.1935 11.4006 19.5019C11.3765 19.6811 11.1156 19.8637 10.9744 19.8456C10.7918 19.8215 10.5852 19.6139 10.5826 19.4175C10.5749 18.8446 10.5723 18.2718 10.5852 17.6989C10.5912 17.4336 10.7281 17.35 11.0648 17.3543C11.2852 17.3578 11.4359 17.5146 11.4453 17.773C11.4548 18.0375 11.4471 18.3028 11.4471 18.5681C11.4539 18.5681 11.46 18.5681 11.4669 18.569L11.466 18.5681Z" fill="#525252"/>
</g>
<defs>
<clipPath id="clip0_1_11706">
<rect width="22" height="22" fill="white"/>
</clipPath>
</defs>
</svg>
