<svg width="28" height="28" viewBox="0 0 28 28" fill="none" xmlns="http://www.w3.org/2000/svg">
<path d="M23.1447 5.41597H4.5752V24.1534H23.1447V5.41597Z" fill="#A2C9ED"/>
<path d="M12.7107 20.2866C12.7402 20.3257 12.7762 20.3622 12.7993 20.4051C12.9304 20.6495 13.1189 20.7402 13.4073 20.7294C14.0782 20.7048 14.5954 21.0147 14.9784 21.5541C15.1642 21.8157 15.1868 21.8243 15.4086 21.6007C16.4468 20.5546 18.3176 20.6571 19.2183 21.8179C19.3821 22.0291 19.5513 22.0993 19.8097 22.0988C20.3903 22.0977 20.8565 22.3476 21.0869 22.8902C21.1986 23.154 21.1927 23.4676 21.24 23.7588C21.1761 23.7609 21.1116 23.7657 21.0477 23.7657C16.8728 23.7657 12.6978 23.7657 8.52285 23.7657C8.45894 23.7657 8.39448 23.762 8.33057 23.7598C8.45571 23.176 9.11152 22.6301 9.80654 22.5749C10.0482 22.5556 10.1374 22.4473 10.2067 22.2446C10.5521 21.2329 11.2718 20.6372 12.3014 20.3943C12.4389 20.3622 12.5743 20.323 12.7112 20.2866H12.7107Z" fill="#59C757"/>
<path d="M3.63232 4.24016C4.02227 4.23908 4.41221 4.23801 4.80215 4.23694C4.80215 7.87697 4.80161 11.517 4.80215 15.1576C4.80215 15.2144 4.80806 15.2713 4.81128 15.3281C4.8188 15.3533 4.82632 15.3785 4.8333 15.4037C4.83223 17.8776 4.83062 20.3514 4.83008 22.8253C4.83008 22.8607 4.83813 22.8961 4.84297 22.9309L4.84243 22.9288C4.83115 22.9926 4.81934 23.0559 4.80806 23.1197C4.80752 23.3336 4.80645 23.5481 4.80591 23.762C4.41489 23.7615 4.02388 23.7604 3.6334 23.7598C3.63394 20.7348 3.63555 17.7103 3.63555 14.6852C3.63555 11.2039 3.63394 7.72256 3.6334 4.24069L3.63232 4.24016Z" fill="#865800"/>
<path d="M14.7061 13.0118C14.7635 12.9486 14.8183 12.8832 14.879 12.8226C17.0849 10.6195 19.2914 8.41689 21.4989 6.21539C21.5682 6.14623 21.6525 6.09154 21.7298 6.02988C21.7298 7.16119 21.7304 8.29197 21.7309 9.42328C21.6525 9.48172 21.5655 9.53105 21.4967 9.59968C20.0358 11.0554 18.5765 12.5127 17.1177 13.971C17.0527 14.0359 16.9974 14.1104 16.9372 14.1807C16.7267 14.1914 16.5161 14.2091 16.305 14.2112C15.9441 14.215 15.5826 14.2096 15.2217 14.2086C15.2206 14.1957 15.2195 14.1834 15.2185 14.1705C15.2201 13.992 15.2238 13.8139 15.2228 13.6354C15.2206 13.2713 15.0724 13.0939 14.7061 13.0124V13.0118Z" fill="#A2C9ED"/>
<path d="M16.937 14.1807C16.9966 14.1104 17.0525 14.0359 17.1175 13.971C18.5763 12.5127 20.0356 11.0554 21.4965 9.59968C21.5653 9.53158 21.6523 9.48172 21.7307 9.42328C21.7307 9.87634 21.7302 10.3299 21.7296 10.783C21.6679 10.8296 21.5991 10.8688 21.5449 10.9229C20.526 11.9379 19.5082 12.9539 18.4925 13.9721C18.435 14.03 18.4001 14.1099 18.3544 14.1796C17.8818 14.1796 17.4097 14.1802 16.937 14.1807Z" fill="#A2C9ED"/>
<path d="M21.7309 11.7358C21.7325 12.4558 21.7357 13.1759 21.7341 13.8954C21.7341 14.1271 21.6777 14.1785 21.4344 14.1791C20.7061 14.1807 19.9778 14.1791 19.25 14.178C19.2763 14.1442 19.2989 14.1067 19.3284 14.0767C20.0755 13.3293 20.8227 12.5818 21.5725 11.8371C21.616 11.7937 21.6777 11.769 21.7309 11.7358Z" fill="#A2C9ED"/>
<path d="M21.7308 11.7358C21.6776 11.769 21.6158 11.7942 21.5723 11.8371C20.823 12.5824 20.0754 13.3293 19.3283 14.0767C19.2982 14.1067 19.2756 14.1437 19.2499 14.178C18.9512 14.178 18.6526 14.1786 18.3545 14.1791C18.4001 14.1094 18.4351 14.0295 18.4925 13.9716C19.5082 12.9534 20.526 11.9374 21.5449 10.9224C21.5992 10.8683 21.6679 10.8286 21.7297 10.7825C21.7297 11.0999 21.7297 11.4178 21.7302 11.7352L21.7308 11.7358Z" fill="#A2C9ED"/>
<path d="M12.5208 14.1791C12.5208 13.9732 12.5165 13.7678 12.5213 13.5619C12.5283 13.2526 12.7496 13.022 13.059 13.0172C13.4634 13.0113 13.8684 13.0199 14.2734 13.0226C13.9801 13.1662 13.8491 13.3936 13.8883 13.7244C13.9055 13.8702 13.8894 14.0198 13.8883 14.1678C13.775 14.1812 13.6622 14.1941 13.5488 14.2075C13.2062 14.1978 12.8635 14.1882 12.5208 14.1791Z" fill="#949494"/>
<path d="M6.04478 5.52213C6.04155 5.53607 6.03564 5.54894 6.02705 5.5602C6.02007 5.55215 6.01416 5.54304 6.00879 5.53339C6.02061 5.52963 6.03296 5.52588 6.04478 5.52159V5.52213Z" fill="#A2C9ED"/>
<path d="M6.02446 14.0445C6.03091 14.0579 6.03789 14.0719 6.04434 14.0853C6.03252 14.0815 6.02017 14.0778 6.00781 14.074C6.01211 14.0633 6.01802 14.0536 6.02446 14.0445Z" fill="#A2C9ED"/>
<path d="M15.2182 14.17C14.775 14.1694 14.3314 14.1689 13.8883 14.1684C13.8894 14.0204 13.9055 13.8708 13.8883 13.725C13.8485 13.3941 13.9801 13.1668 14.2734 13.0231C14.4179 13.0194 14.5618 13.0161 14.7063 13.0124C15.0726 13.0939 15.2203 13.2714 15.223 13.6354C15.2241 13.814 15.2203 13.992 15.2187 14.1705L15.2182 14.17Z" fill="#E2E2E2"/>
<path d="M24.3872 3H3.61284C3.27438 3 3 3.27378 3 3.6115C3 3.94922 3.27438 4.223 3.61284 4.223H24.3872C24.7256 4.223 25 3.94922 25 3.6115C25 3.27378 24.7256 3 24.3872 3Z" fill="#865800"/>
<path d="M4.82192 4.22301H3.6333V23.777H4.82192V4.22301Z" fill="#865800"/>
<path d="M24.13 4.22301H22.9414V23.777H24.13V4.22301Z" fill="#865800"/>
<path d="M6.01333 4.22301H4.82471V15.4026H6.01333V4.22301Z" fill="#E2E2E2"/>
<path d="M7.28643 5.41597H6.01562V14.2075H7.28643V5.41597Z" fill="#A2C9ED"/>
<path d="M6.00283 15.4026H4.82227V23.7765H6.00283V15.4026Z" fill="#A2C9ED"/>
<path d="M21.7698 4.22301V4.22944H6.00293V5.41598H21.3342C21.5748 5.41598 21.7703 5.61061 21.7703 5.85135V13.7679C21.7703 14.0081 21.5753 14.2032 21.3342 14.2032H6.00293V15.3898H21.7703V15.4026H22.9407V4.22301H21.7703H21.7698Z" fill="#E2E2E2"/>
<path d="M24.3872 23.777H3.61284C3.27438 23.777 3 24.0508 3 24.3885C3 24.7262 3.27438 25 3.61284 25H24.3872C24.7256 25 25 24.7262 25 24.3885C25 24.0508 24.7256 23.777 24.3872 23.777Z" fill="#865800"/>
<path d="M12.7108 20.2865C12.5744 20.3225 12.4385 20.3616 12.301 20.3943C11.2714 20.6372 10.5517 21.2329 10.2063 22.2446C10.137 22.4478 10.0479 22.5561 9.80615 22.5749C9.11113 22.6301 8.45532 23.1754 8.33018 23.7598C7.85859 23.7636 7.38701 23.7673 6.91489 23.7706C6.54482 23.7673 6.17476 23.7641 5.80469 23.7609C5.80522 23.547 5.8063 23.3325 5.80684 23.1186L5.84121 22.9277V22.9298C5.85679 22.8982 5.8772 22.8687 5.88525 22.8355C6.03833 22.22 6.4186 21.805 7.00298 21.5696C7.15605 21.5433 7.30913 21.5101 7.46328 21.4935C7.63677 21.4747 7.72915 21.3975 7.78823 21.2222C8.13843 20.1841 8.84365 19.5059 9.92969 19.3118C11.0222 19.1161 11.99 19.3756 12.7108 20.2865Z" fill="#0DB431"/>
</svg>
