<svg width="29" height="28" viewBox="0 0 29 28" fill="none" xmlns="http://www.w3.org/2000/svg">
<path d="M21.85 3.5H7.15C5.4103 3.5 4 4.9103 4 6.65V21.35C4 23.0897 5.4103 24.5 7.15 24.5H21.85C23.5897 24.5 25 23.0897 25 21.35V6.65C25 4.9103 23.5897 3.5 21.85 3.5Z" fill="#B7B7B7"/>
<path d="M10.4167 12.8333C12.0275 12.8333 13.3333 11.5275 13.3333 9.91667C13.3333 8.30584 12.0275 7 10.4167 7C8.80584 7 7.5 8.30584 7.5 9.91667C7.5 11.5275 8.80584 12.8333 10.4167 12.8333Z" fill="white"/>
<path d="M11.8764 16.8152L9.96757 19.9506C9.58378 20.5931 10.0686 21.3889 10.8462 21.3889H14.6538C15.4315 21.3889 15.9163 20.5931 15.5325 19.9506L13.6237 16.8152C13.2399 16.1727 12.2602 16.1727 11.8764 16.8152Z" fill="white"/>
<path d="M20.4137 10.5H16.7529C16.153 10.5 15.6666 10.9863 15.6666 11.5863V15.2471C15.6666 15.847 16.153 16.3333 16.7529 16.3333H20.4137C21.0136 16.3333 21.5 15.847 21.5 15.2471V11.5863C21.5 10.9863 21.0136 10.5 20.4137 10.5Z" fill="white"/>
</svg>
