<svg width="29" height="28" viewBox="0 0 29 28" fill="none" xmlns="http://www.w3.org/2000/svg">
<g clip-path="url(#clip0_280_4317)">
<path d="M19.4791 13.6163C21.8278 13.6163 23.7317 11.7124 23.7317 9.36373C23.7317 7.01509 21.8278 5.11115 19.4791 5.11115C17.1305 5.11115 15.2266 7.01509 15.2266 9.36373C15.2266 11.7124 17.1305 13.6163 19.4791 13.6163Z" fill="#333333"/>
<path d="M26.2779 22.1084H12.6802C11.7483 22.1084 10.9739 21.3471 10.9739 20.4021V19.7327C10.9739 17.7246 12.3389 16.0183 14.2946 15.5852C17.6809 14.837 21.2509 14.837 24.6373 15.5852C26.5929 16.0183 27.958 17.7246 27.958 19.7327V20.4021C27.958 21.334 27.1967 22.1084 26.2517 22.1084H26.2779Z" fill="#333333"/>
<path d="M8.9789 13.6163C11.3283 13.6163 13.2315 11.7131 13.2315 9.36373C13.2315 7.01431 11.3283 5.11115 8.9789 5.11115C6.62948 5.11115 4.72632 7.01431 4.72632 9.36373C4.72632 11.7131 6.62948 13.6163 8.9789 13.6163Z" fill="#333333"/>
<path d="M9.67455 19.7326C9.67455 17.882 10.5671 16.2413 11.9977 15.2307C9.28079 14.8894 6.48511 14.9944 3.82069 15.5851C1.86503 16.0182 0.5 17.7245 0.5 19.7326V20.402C0.5 21.3339 1.26126 22.0952 2.19316 22.0952H10.2127C9.88455 21.6096 9.68767 21.032 9.68767 20.402V19.7326H9.67455Z" fill="#333333"/>
</g>
<defs>
<clipPath id="clip0_280_4317">
<rect width="28" height="28" fill="white" transform="translate(0.5)"/>
</clipPath>
</defs>
</svg>
