<svg width="28" height="28" viewBox="0 0 28 28" fill="none" xmlns="http://www.w3.org/2000/svg">
<g clip-path="url(#clip0_280_5167)">
<path d="M14 23.3333C20.4434 23.3333 25.6667 18.8935 25.6667 13.4167C25.6667 7.93984 20.4434 3.5 14 3.5C7.55672 3.5 2.33337 7.93984 2.33337 13.4167C2.33337 18.8935 7.55672 23.3333 14 23.3333Z" fill="#333333"/>
<path d="M17.6517 22.225C17.43 22.225 20.825 23.66 23.31 24.6867C24.255 25.0833 25.2117 24.15 24.85 23.1933L22.5167 17.1383L17.6517 22.2367V22.225Z" fill="#333333"/>
</g>
<path d="M9.33329 15.1667C9.97762 15.1667 10.5 14.6443 10.5 14C10.5 13.3557 9.97762 12.8333 9.33329 12.8333C8.68896 12.8333 8.16663 13.3557 8.16663 14C8.16663 14.6443 8.68896 15.1667 9.33329 15.1667Z" fill="white"/>
<path d="M13.9999 15.1667C14.6443 15.1667 15.1666 14.6443 15.1666 14C15.1666 13.3557 14.6443 12.8333 13.9999 12.8333C13.3556 12.8333 12.8333 13.3557 12.8333 14C12.8333 14.6443 13.3556 15.1667 13.9999 15.1667Z" fill="white"/>
<path d="M18.6667 15.1667C19.311 15.1667 19.8333 14.6443 19.8333 14C19.8333 13.3557 19.311 12.8333 18.6667 12.8333C18.0223 12.8333 17.5 13.3557 17.5 14C17.5 14.6443 18.0223 15.1667 18.6667 15.1667Z" fill="white"/>
<defs>
<clipPath id="clip0_280_5167">
<rect width="23.3333" height="21.28" fill="white" transform="translate(2.33337 3.5)"/>
</clipPath>
</defs>
</svg>
