<svg width="29" height="28" viewBox="0 0 29 28" fill="none" xmlns="http://www.w3.org/2000/svg">
<path fill-rule="evenodd" clip-rule="evenodd" d="M14.5 14C17.7217 14 20.3334 11.3883 20.3334 8.16668C20.3334 4.94502 17.7217 2.33334 14.5 2.33334C11.2784 2.33334 8.66671 4.94502 8.66671 8.16668C8.66671 11.3883 11.2784 14 14.5 14ZM7.39862 16.7228C12.0794 15.6827 16.93 15.6824 21.6 16.7225C24.274 17.3082 26.1667 19.6874 26.1667 22.4117V23.3334C26.1667 24.6194 25.1194 25.6667 23.8334 25.6667H5.16671C3.88071 25.6667 2.83337 24.6194 2.83337 23.3334V22.4117C2.83337 19.6818 4.73092 17.3205 7.39665 16.7233L7.39862 16.7228Z" fill="#B7B7B7"/>
</svg>
