<svg width="28" height="18" viewBox="0 0 28 18" fill="none" xmlns="http://www.w3.org/2000/svg">
<path d="M18.9791 8.61625C21.3278 8.61625 23.2317 6.7123 23.2317 4.36366C23.2317 2.01503 21.3278 0.111084 18.9791 0.111084C16.6305 0.111084 14.7266 2.01503 14.7266 4.36366C14.7266 6.7123 16.6305 8.61625 18.9791 8.61625Z" fill="#B7B7B7"/>
<path d="M25.7782 17.1083H12.1804C11.2485 17.1083 10.4741 16.347 10.4741 15.402V14.7326C10.4741 12.7244 11.8391 11.0182 13.7948 10.585C17.1811 9.83689 20.7512 9.83689 24.1375 10.585C26.0932 11.0182 27.4582 12.7244 27.4582 14.7326V15.402C27.4582 16.3339 26.6969 17.1083 25.7519 17.1083H25.7782Z" fill="#B7B7B7"/>
<path d="M8.47865 8.61625C10.8281 8.61625 12.7312 6.71308 12.7312 4.36366C12.7312 2.01425 10.8281 0.111084 8.47865 0.111084C6.12924 0.111084 4.22607 2.01425 4.22607 4.36366C4.22607 6.71308 6.12924 8.61625 8.47865 8.61625Z" fill="#B7B7B7"/>
<path d="M9.17455 14.7326C9.17455 12.882 10.0671 11.2413 11.4977 10.2307C8.78079 9.88943 5.98511 9.99443 3.32069 10.5851C1.36503 11.0182 0 12.7245 0 14.7326V15.402C0 16.3339 0.761264 17.0952 1.69316 17.0952H9.71268C9.38455 16.6096 9.18767 16.032 9.18767 15.402V14.7326H9.17455Z" fill="#B7B7B7"/>
</svg>
