<svg width="72" height="72" viewBox="0 0 72 72" fill="none" xmlns="http://www.w3.org/2000/svg">
<rect x="0.5" y="0.5" width="71" height="71" rx="7.5" fill="white" stroke="#E2E2E2"/>
<path d="M41.6666 27.7833H28.3333C25.5719 27.7833 23.3333 30.0219 23.3333 32.7833V46.1167C23.3333 48.8781 25.5719 51.1167 28.3333 51.1167H41.6666C44.4281 51.1167 46.6666 48.8781 46.6666 46.1167V32.7833C46.6666 30.0219 44.4281 27.7833 41.6666 27.7833Z" fill="#E2E2E2"/>
<path d="M43.0333 45.2833L40.25 40.4667C39.75 39.6 38.5 39.6 38 40.4667L36.3666 43.2833L33.3666 38.0833C32.8666 37.2167 31.6166 37.2167 31.1166 38.0833L26.9666 45.2833C26.4666 46.15 27.0833 47.2333 28.0833 47.2333H41.9C42.9 47.2333 43.5166 46.15 43.0166 45.2833H43.0333Z" fill="white"/>
<path d="M40.8333 35.5666C41.9103 35.5666 42.7833 34.6936 42.7833 33.6166C42.7833 32.5397 41.9103 31.6666 40.8333 31.6666C39.7563 31.6666 38.8833 32.5397 38.8833 33.6166C38.8833 34.6936 39.7563 35.5666 40.8333 35.5666Z" fill="white"/>
<path fill-rule="evenodd" clip-rule="evenodd" d="M51.8833 19.5858C51.8846 18.8954 51.3261 18.3347 50.6357 18.3334C49.9453 18.3321 49.3846 18.8906 49.3833 19.581L49.3774 22.7002H46.25C45.5596 22.7002 45 23.2599 45 23.9502C45 24.6406 45.5596 25.2002 46.25 25.2002H49.3726L49.3667 28.331C49.3653 29.0213 49.9239 29.5821 50.6143 29.5834C51.3046 29.5847 51.8653 29.0261 51.8667 28.3358L51.8726 25.2002H55C55.6904 25.2002 56.25 24.6406 56.25 23.9502C56.25 23.2599 55.6904 22.7002 55 22.7002H51.8774L51.8833 19.5858Z" fill="#E2E2E2"/>
</svg>
