<svg width="20" height="20" viewBox="0 0 20 20" fill="none" xmlns="http://www.w3.org/2000/svg">
<g id="Component 84">
<path id="Vector" d="M15 3.33329C15.9167 3.33329 16.6667 4.08329 16.6667 4.99996V15C16.6667 15.9166 15.9167 16.6666 15 16.6666H5.00002C4.08335 16.6666 3.33335 15.9166 3.33335 15V4.99996C3.33335 4.08329 4.08335 3.33329 5.00002 3.33329H15ZM15 1.66663H5.00002C3.15835 1.66663 1.66669 3.15829 1.66669 4.99996V15C1.66669 16.8416 3.15835 18.3333 5.00002 18.3333H15C16.8417 18.3333 18.3334 16.8416 18.3334 15V4.99996C18.3334 3.15829 16.8417 1.66663 15 1.66663Z" fill="#D0D0D0"/>
</g>
</svg>
