<svg width="16" height="16" viewBox="0 0 16 16" fill="none" xmlns="http://www.w3.org/2000/svg">
<g id="icon-dots-vertical">
<path id="Vector" d="M7.99996 5.33341C8.73634 5.33341 9.33329 4.73646 9.33329 4.00008C9.33329 3.2637 8.73634 2.66675 7.99996 2.66675C7.26358 2.66675 6.66663 3.2637 6.66663 4.00008C6.66663 4.73646 7.26358 5.33341 7.99996 5.33341Z" fill="#E2E2E2"/>
<path id="Vector_2" d="M7.99996 13.3334C8.73634 13.3334 9.33329 12.7365 9.33329 12.0001C9.33329 11.2637 8.73634 10.6667 7.99996 10.6667C7.26358 10.6667 6.66663 11.2637 6.66663 12.0001C6.66663 12.7365 7.26358 13.3334 7.99996 13.3334Z" fill="#E2E2E2"/>
<path id="Vector_3" d="M7.99996 9.33341C8.73634 9.33341 9.33329 8.73646 9.33329 8.00008C9.33329 7.2637 8.73634 6.66675 7.99996 6.66675C7.26358 6.66675 6.66663 7.2637 6.66663 8.00008C6.66663 8.73646 7.26358 9.33341 7.99996 9.33341Z" fill="#E2E2E2"/>
</g>
</svg>
