<svg width="20" height="20" viewBox="0 0 20 20" fill="none" xmlns="http://www.w3.org/2000/svg">
<g id="close">
<rect x="0.5" y="0.5" width="19" height="19" rx="9.5" fill="#F7F7F7"/>
<rect x="0.5" y="0.5" width="19" height="19" rx="9.5" stroke="#E2E2E2"/>
<path id="Vector" d="M14.0956 5.91101C13.842 5.65747 13.4325 5.65747 13.1789 5.91101L10 9.08344L6.82107 5.90451C6.56754 5.65097 6.15798 5.65097 5.90445 5.90451C5.65091 6.15804 5.65091 6.5676 5.90445 6.82113L9.08338 10.0001L5.90445 13.179C5.65091 13.4325 5.65091 13.8421 5.90445 14.0956C6.15798 14.3492 6.56754 14.3492 6.82107 14.0956L10 10.9167L13.1789 14.0956C13.4325 14.3492 13.842 14.3492 14.0956 14.0956C14.3491 13.8421 14.3491 13.4325 14.0956 13.179L10.9166 10.0001L14.0956 6.82113C14.3426 6.5741 14.3426 6.15804 14.0956 5.91101Z" fill="#949494"/>
</g>
</svg>
