<svg width="16" height="16" viewBox="0 0 16 16" fill="none" xmlns="http://www.w3.org/2000/svg">
<g id="Component 67">
<path id="Line 4 (Stroke)" fill-rule="evenodd" clip-rule="evenodd" d="M14.48 1.52028C14.7294 1.76965 14.7294 2.17396 14.48 2.42333L3.75683 13.1462C3.50746 13.3956 3.10315 13.3956 2.85378 13.1462C2.60441 12.8969 2.60441 12.4925 2.85378 12.2432L13.577 1.52028C13.8263 1.27091 14.2306 1.27091 14.48 1.52028Z" fill="#E2E2E2"/>
<path id="Subtract" fill-rule="evenodd" clip-rule="evenodd" d="M11.2818 2H3.56659C2.33325 2 1.33325 3.01333 1.33325 4.25333V9.58667C1.33325 10.2355 1.60884 10.8222 2.04733 11.2342L11.2818 2ZM3.2945 11.8232C3.38373 11.8343 3.47454 11.84 3.56659 11.84H7.11325L10.6866 14.02C10.7999 14.0933 10.9333 14.1267 11.0666 14.1267C11.1933 14.1267 11.3133 14.0933 11.4266 14.0333C11.6599 13.9 11.7999 13.66 11.7999 13.3933V11.84H12.5666C13.7999 11.84 14.7999 10.8267 14.7999 9.58667V4.25333C14.7999 3.18514 14.0529 2.28516 13.0617 2.05627L3.2945 11.8232Z" fill="#E2E2E2"/>
</g>
</svg>
