<svg width="28" height="28" viewBox="0 0 28 28" fill="none" xmlns="http://www.w3.org/2000/svg">
<g id="icon-dots-vertical">
<path id="Vector" d="M14 9.33329C15.2886 9.33329 16.3333 8.28862 16.3333 6.99996C16.3333 5.71129 15.2886 4.66663 14 4.66663C12.7113 4.66663 11.6666 5.71129 11.6666 6.99996C11.6666 8.28862 12.7113 9.33329 14 9.33329Z" fill="#333333"/>
<path id="Vector_2" d="M14 23.3333C15.2886 23.3333 16.3333 22.2886 16.3333 21C16.3333 19.7113 15.2886 18.6666 14 18.6666C12.7113 18.6666 11.6666 19.7113 11.6666 21C11.6666 22.2886 12.7113 23.3333 14 23.3333Z" fill="#333333"/>
<path id="Vector_3" d="M14 16.3333C15.2886 16.3333 16.3333 15.2886 16.3333 14C16.3333 12.7113 15.2886 11.6666 14 11.6666C12.7113 11.6666 11.6666 12.7113 11.6666 14C11.6666 15.2886 12.7113 16.3333 14 16.3333Z" fill="#333333"/>
</g>
</svg>
