<svg width="32" height="32" viewBox="0 0 32 32" fill="none" xmlns="http://www.w3.org/2000/svg">
<circle cx="16" cy="16" r="16" fill="#FFECAC"/>
<path d="M12.0942 15.5C14.1653 15.5 15.8442 13.8211 15.8442 11.75C15.8442 9.67893 14.1653 8 12.0942 8C10.0232 8 8.34424 9.67893 8.34424 11.75C8.34424 13.8211 10.0232 15.5 12.0942 15.5Z" fill="#EC5062"/>
<path d="M13.77 18.3257L11.3523 22.5087C10.8662 23.3657 11.4803 24.4275 12.4653 24.4275H17.2879C18.2729 24.4275 18.8869 23.3657 18.4008 22.5087L15.9831 18.3257C15.497 17.4686 14.2561 17.4686 13.77 18.3257Z" fill="#1EAEAE"/>
<path d="M24.4266 11.8911H20.2847C19.6059 11.8911 19.0557 12.4414 19.0557 13.1202V17.2621C19.0557 17.9408 19.6059 18.4911 20.2847 18.4911H24.4266C25.1054 18.4911 25.6557 17.9408 25.6557 17.2621V13.1202C25.6557 12.4414 25.1054 11.8911 24.4266 11.8911Z" fill="#FFC700"/>
</svg>
