<svg width="16" height="16" viewBox="0 0 16 16" fill="none" xmlns="http://www.w3.org/2000/svg">
<g id="Component 71">
<path id="Vector" d="M11.3267 14.14C11.12 14.14 10.92 14.0934 10.7267 13.9934L8.08001 12.6067C8.02667 12.58 7.96667 12.58 7.92001 12.6067L5.27334 14C4.83334 14.2267 4.32001 14.1934 3.92001 13.9C3.52001 13.6067 3.32667 13.1267 3.40667 12.64L3.91334 9.69336C3.92001 9.64003 3.90667 9.58003 3.86001 9.54003L1.72001 7.45336C1.36667 7.10669 1.24001 6.60003 1.39334 6.13336C1.54667 5.66669 1.94667 5.32669 2.43334 5.26003L5.38667 4.83336C5.44667 4.82669 5.49334 4.79336 5.52001 4.74003L6.84001 2.06003C7.06001 1.62003 7.50001 1.34003 7.99334 1.34003C8.48667 1.34003 8.92667 1.61336 9.14667 2.06003L10.4667 4.74003C10.4933 4.79336 10.54 4.82669 10.6 4.83336L13.56 5.26003C14.0467 5.33336 14.4467 5.66669 14.6 6.13336C14.7533 6.60003 14.6267 7.10669 14.2733 7.45336L12.1333 9.54003C12.0933 9.58003 12.0733 9.64003 12.08 9.69336L12.5867 12.64C12.6733 13.1267 12.4733 13.6067 12.0733 13.9C11.8467 14.0667 11.58 14.1467 11.32 14.1467L11.3267 14.14Z" fill="#ECAA00"/>
</g>
</svg>
