<svg width="16" height="16" viewBox="0 0 16 16" fill="none" xmlns="http://www.w3.org/2000/svg">
<g id="Component 72">
<path id="Union" fill-rule="evenodd" clip-rule="evenodd" d="M4.92662 2.36987C3.19672 2.36987 1.03662 3.94008 1.03662 6.78654C1.03662 7.92347 1.51778 8.94839 2.14339 9.80544C2.77106 10.6653 3.58854 11.4181 4.37386 12.0313C5.16342 12.6479 5.94849 13.1449 6.53436 13.4874C6.82827 13.6592 7.07445 13.7935 7.24913 13.8858C7.42479 13.9786 7.52958 14.0297 7.5286 14.0292C7.65218 14.091 7.78845 14.1232 7.92662 14.1232C8.02625 14.1176 8.15808 14.0926 8.19125 14.083C8.20774 14.0777 8.23392 14.0685 8.24376 14.0648C8.26115 14.0582 8.27465 14.0524 8.27915 14.0505C8.29042 14.0456 8.29967 14.0414 8.30361 14.0396C8.31316 14.0352 8.32269 14.0307 8.33057 14.0269C8.34729 14.0188 8.36858 14.0084 8.39362 13.9959C8.44412 13.9707 8.5147 13.9347 8.60241 13.8886C8.7779 13.7964 9.02449 13.6621 9.31856 13.4904C9.90483 13.148 10.69 12.6507 11.4796 12.0337C12.265 11.4199 13.0824 10.6665 13.71 9.80615C14.3355 8.94866 14.8166 7.92339 14.8166 6.78654C14.8166 3.9241 12.6004 2.36987 10.9266 2.36987C9.52062 2.36987 8.52178 3.07234 7.92726 3.80031C7.34398 3.07739 6.38007 2.36987 4.92662 2.36987Z" fill="#EC5062"/>
</g>
</svg>
