<svg width="20" height="20" viewBox="0 0 20 20" fill="none" xmlns="http://www.w3.org/2000/svg">
<g id="Component 84">
<path id="Vector" d="M15 1.66663H5.00002C3.15907 1.66663 1.66669 3.15901 1.66669 4.99996V15C1.66669 16.8409 3.15907 18.3333 5.00002 18.3333H15C16.841 18.3333 18.3334 16.8409 18.3334 15V4.99996C18.3334 3.15901 16.841 1.66663 15 1.66663Z" fill="#D0D0D0"/>
<path id="Vector (Stroke)" fill-rule="evenodd" clip-rule="evenodd" d="M14.7139 6.46034C15.0395 6.78554 15.0399 7.31318 14.7147 7.63885L8.82303 13.5388C8.66678 13.6953 8.45476 13.7833 8.23365 13.7833C8.01253 13.7834 7.80045 13.6956 7.6441 13.5393L5.28576 11.1809C4.96033 10.8555 4.96033 10.3279 5.28576 10.0024C5.6112 9.67698 6.13884 9.67698 6.46428 10.0024L8.23294 11.7711L13.5353 6.46117C13.8606 6.1355 14.3882 6.13513 14.7139 6.46034Z" fill="white"/>
</g>
</svg>
