<svg width="32" height="32" viewBox="0 0 32 32" fill="none" xmlns="http://www.w3.org/2000/svg">
<circle cx="16" cy="16" r="16" fill="#FFECAC"/>
<path fill-rule="evenodd" clip-rule="evenodd" d="M22.469 12.6722H20.1429V19.0461H15.2341V14.9284C15.2341 14.5034 14.8895 14.1589 14.4646 14.1589H12.6858C8.99335 14.1589 6 17.1522 6 20.8447C6 21.1804 6.27212 21.4525 6.6078 21.4525H12.7793V21.4526H22.5258V21.4525H23.7044L22.469 12.6722Z" fill="#3ABDBD"/>
<path fill-rule="evenodd" clip-rule="evenodd" d="M22.1474 9.54683C22.1474 9.38904 22.0847 9.23772 21.9732 9.12615L21.7886 8.94159C21.6582 8.8112 21.6582 8.59978 21.7886 8.46939C21.919 8.33899 22.1304 8.33898 22.2608 8.46937L22.5837 8.79224C22.7319 8.94049 22.8152 9.14156 22.8152 9.35123V9.69908V10.7596C22.8152 10.944 22.6657 11.0935 22.4813 11.0935C22.2969 11.0935 22.1474 10.944 22.1474 10.7596V9.54683Z" fill="#707070"/>
<ellipse cx="21.1975" cy="7.92994" rx="1.13649" ry="1.13649" fill="#EFEFEF"/>
<rect x="9.68774" y="13.1453" width="5.84485" height="1.84504" rx="0.922521" fill="#EFEFEF"/>
<path d="M18.9319 11.4691C18.9319 10.8046 19.4706 10.2659 20.1351 10.2659H22.5257V12.6723H20.1351C19.4706 12.6723 18.9319 12.1336 18.9319 11.4691Z" fill="#1EAEAE"/>
<circle cx="23.2464" cy="21.4526" r="2.75377" fill="#525252"/>
<circle cx="10.3959" cy="21.4526" r="2.75377" fill="#525252"/>
<circle cx="23.2461" cy="21.4525" r="1.13204" fill="#EFEFEF"/>
<circle cx="10.396" cy="21.4525" r="1.13204" fill="#EFEFEF"/>
<path d="M22.4736 10.2659H22.9145C23.4668 10.2659 23.9145 10.7136 23.9145 11.2659V11.6723C23.9145 12.2246 23.4668 12.6723 22.9145 12.6723H22.4736V10.2659Z" fill="#EFEFEF"/>
</svg>
