<svg width="18" height="18" viewBox="0 0 18 18" fill="none" xmlns="http://www.w3.org/2000/svg">
<g id="Component 84">
<path id="Vector" d="M13.5 1.5H4.5C2.84315 1.5 1.5 2.84315 1.5 4.5V13.5C1.5 15.1569 2.84315 16.5 4.5 16.5H13.5C15.1569 16.5 16.5 15.1569 16.5 13.5V4.5C16.5 2.84315 15.1569 1.5 13.5 1.5Z" fill="#949494"/>
<path id="Vector (Stroke)" fill-rule="evenodd" clip-rule="evenodd" d="M13.2426 5.81427C13.5357 6.10695 13.536 6.58183 13.2433 6.87493L7.9408 12.1849C7.80018 12.3257 7.60937 12.4049 7.41036 12.405C7.21136 12.405 7.02048 12.326 6.87977 12.1853L4.75727 10.0628C4.46437 9.76991 4.46437 9.29503 4.75727 9.00214C5.05016 8.70925 5.52503 8.70925 5.81793 9.00214L7.40972 10.5939L12.1819 5.81502C12.4746 5.52192 12.9495 5.52158 13.2426 5.81427Z" fill="white"/>
</g>
</svg>
