<svg width="16" height="16" viewBox="0 0 16 16" fill="none" xmlns="http://www.w3.org/2000/svg">
<g id="icon-dots-vertical">
<path id="Vector" d="M7.99996 5.33329C8.73634 5.33329 9.33329 4.73634 9.33329 3.99996C9.33329 3.26358 8.73634 2.66663 7.99996 2.66663C7.26358 2.66663 6.66663 3.26358 6.66663 3.99996C6.66663 4.73634 7.26358 5.33329 7.99996 5.33329Z" fill="#949494"/>
<path id="Vector_2" d="M7.99996 13.3333C8.73634 13.3333 9.33329 12.7363 9.33329 12C9.33329 11.2636 8.73634 10.6666 7.99996 10.6666C7.26358 10.6666 6.66663 11.2636 6.66663 12C6.66663 12.7363 7.26358 13.3333 7.99996 13.3333Z" fill="#949494"/>
<path id="Vector_3" d="M7.99996 9.33329C8.73634 9.33329 9.33329 8.73634 9.33329 7.99996C9.33329 7.26358 8.73634 6.66663 7.99996 6.66663C7.26358 6.66663 6.66663 7.26358 6.66663 7.99996C6.66663 8.73634 7.26358 9.33329 7.99996 9.33329Z" fill="#949494"/>
</g>
</svg>
