<svg width="16" height="16" viewBox="0 0 16 16" fill="none" xmlns="http://www.w3.org/2000/svg">
<g id="Component 72">
<path id="Vector (Stroke)" fill-rule="evenodd" clip-rule="evenodd" d="M1.33337 6.85996C1.33337 4.13136 3.3923 2.66663 5.00004 2.66663C6.52346 2.66663 7.47307 3.48751 7.99945 4.2442C7.99966 4.24448 7.99985 4.24474 8.00003 4.24496C8.00003 4.24496 8.00004 4.24496 8.00004 4.24496C8.00005 4.24496 8.00005 4.24496 8.00006 4.24496C8.00023 4.24473 8.00043 4.24447 8.00064 4.24418C8.53115 3.48169 9.52887 2.66663 11 2.66663C12.5549 2.66663 14.6667 4.12527 14.6667 6.85996C14.6667 7.93278 14.2124 8.9125 13.603 9.74795C12.992 10.5856 12.1918 11.3245 11.4155 11.9311C10.6361 12.5402 9.85982 13.032 9.27936 13.371C8.98842 13.5409 8.74475 13.6735 8.57191 13.7644C8.48551 13.8098 8.41633 13.845 8.36731 13.8695C8.34296 13.8816 8.3227 13.8916 8.30724 13.899C8.30237 13.9013 8.29711 13.9038 8.29182 13.9063C8.2891 13.9076 8.28637 13.9089 8.28367 13.9101C8.28034 13.9117 8.27311 13.915 8.26446 13.9187C8.26099 13.9202 8.25079 13.9245 8.23771 13.9295C8.2303 13.9323 8.21067 13.9392 8.1983 13.9431C8.17344 13.9504 8.07467 13.9691 8.00004 13.9733C7.89654 13.9733 7.79447 13.9492 7.7019 13.9029C7.70222 13.9031 7.59988 13.8532 7.4269 13.7618C7.25466 13.6707 7.0113 13.538 6.72049 13.368C6.14032 13.0289 5.36416 12.5374 4.58474 11.9287C3.80849 11.3226 3.00825 10.5843 2.3972 9.74718C1.78769 8.91219 1.33337 7.93284 1.33337 6.85996ZM5.00004 3.99996C4.11445 3.99996 2.66671 4.88189 2.66671 6.85996C2.66671 7.55041 2.96073 8.25773 3.47413 8.96107C3.98599 9.66228 4.68326 10.314 5.40535 10.8778C6.12426 11.4392 6.84726 11.8977 7.39335 12.2169C7.63918 12.3606 7.8477 12.4752 8.00196 12.5575C8.15546 12.476 8.36271 12.3622 8.60697 12.2196C9.15276 11.9009 9.87567 11.4422 10.5946 10.8805C11.3166 10.3163 12.0139 9.66394 12.5258 8.96218C13.0393 8.25826 13.3334 7.55048 13.3334 6.85996C13.3334 4.88798 11.8452 3.99996 11 3.99996C10.0725 3.99996 9.44407 4.50342 9.09421 5.007L9.09241 5.00958C8.56028 5.76786 7.4398 5.76786 6.90767 5.00958L6.90586 5.007L6.90587 5.007C6.55196 4.49758 5.96857 3.99996 5.00004 3.99996Z" fill="#707070"/>
</g>
</svg>
