<svg width="28" height="28" viewBox="0 0 28 28" fill="none" xmlns="http://www.w3.org/2000/svg">
<g id="icon-list">
<path id="Vector" d="M24.5 5.83333H8.16667C7.52233 5.83333 7 6.35566 7 6.99999C7 7.64433 7.52233 8.16666 8.16667 8.16666H24.5C25.1443 8.16666 25.6667 7.64433 25.6667 6.99999C25.6667 6.35566 25.1443 5.83333 24.5 5.83333Z" fill="#D0D0D0"/>
<path id="Vector_2" d="M3.49992 8.16666C4.14425 8.16666 4.66659 7.64433 4.66659 6.99999C4.66659 6.35566 4.14425 5.83333 3.49992 5.83333C2.85559 5.83333 2.33325 6.35566 2.33325 6.99999C2.33325 7.64433 2.85559 8.16666 3.49992 8.16666Z" fill="#D0D0D0"/>
<path id="Vector_3" d="M24.5 12.8333H8.16667C7.52233 12.8333 7 13.3557 7 14C7 14.6443 7.52233 15.1667 8.16667 15.1667H24.5C25.1443 15.1667 25.6667 14.6443 25.6667 14C25.6667 13.3557 25.1443 12.8333 24.5 12.8333Z" fill="#D0D0D0"/>
<path id="Vector_4" d="M3.49992 15.1667C4.14425 15.1667 4.66659 14.6443 4.66659 14C4.66659 13.3557 4.14425 12.8333 3.49992 12.8333C2.85559 12.8333 2.33325 13.3557 2.33325 14C2.33325 14.6443 2.85559 15.1667 3.49992 15.1667Z" fill="#D0D0D0"/>
<path id="Vector_5" d="M24.5 19.8333H8.16667C7.52233 19.8333 7 20.3557 7 21C7 21.6443 7.52233 22.1667 8.16667 22.1667H24.5C25.1443 22.1667 25.6667 21.6443 25.6667 21C25.6667 20.3557 25.1443 19.8333 24.5 19.8333Z" fill="#D0D0D0"/>
<path id="Vector_6" d="M3.49992 22.1667C4.14425 22.1667 4.66659 21.6443 4.66659 21C4.66659 20.3557 4.14425 19.8333 3.49992 19.8333C2.85559 19.8333 2.33325 20.3557 2.33325 21C2.33325 21.6443 2.85559 22.1667 3.49992 22.1667Z" fill="#D0D0D0"/>
</g>
</svg>
