<svg width="28" height="28" viewBox="0 0 28 28" fill="none" xmlns="http://www.w3.org/2000/svg">
<g id="Component 75">
<path id="Vector" d="M14.0001 4.66671C15.9251 4.66671 17.5001 6.24171 17.5001 8.16671C17.5001 10.0917 15.9251 11.6667 14.0001 11.6667C12.0751 11.6667 10.5001 10.0917 10.5001 8.16671C10.5001 6.24171 12.0751 4.66671 14.0001 4.66671ZM14.0001 2.33337C10.7801 2.33337 8.16675 4.94671 8.16675 8.16671C8.16675 11.3867 10.7801 14 14.0001 14C17.2201 14 19.8334 11.3867 19.8334 8.16671C19.8334 4.94671 17.2201 2.33337 14.0001 2.33337Z" fill="#333333"/>
<path id="Vector (Stroke)" fill-rule="evenodd" clip-rule="evenodd" d="M6.8985 16.7228C11.5793 15.6826 16.4298 15.6823 21.0998 16.7225C23.7739 17.3082 25.6666 19.6873 25.6666 22.4117V23.3333C25.6666 24.6193 24.6193 25.6667 23.3333 25.6667H4.66659C3.38059 25.6667 2.33325 24.6193 2.33325 23.3333V22.4117C2.33325 19.6818 4.2308 17.3205 6.89652 16.7232L6.8985 16.7228ZM7.40571 19.0003C5.80193 19.3601 4.66659 20.7785 4.66659 22.4117V23.3333H23.3333V22.4117C23.3333 20.7735 22.1938 19.35 20.5991 19.0014L20.5945 19.0004C16.2589 18.0344 11.7539 18.0342 7.40571 19.0003Z" fill="#333333"/>
</g>
</svg>
