<svg width="28" height="28" viewBox="0 0 28 28" fill="none" xmlns="http://www.w3.org/2000/svg">
<g id="Component 71">
<path id="Vector" d="M19.8217 24.745C19.46 24.745 19.11 24.6633 18.7717 24.4883L14.14 22.0617C14.0467 22.015 13.9417 22.015 13.86 22.0617L9.22837 24.5C8.45837 24.8967 7.56004 24.8383 6.86004 24.325C6.16004 23.8117 5.82171 22.9717 5.96171 22.12L6.84837 16.9633C6.86004 16.87 6.83671 16.765 6.75504 16.695L3.01004 13.0433C2.39171 12.4367 2.17004 11.55 2.43838 10.7333C2.70671 9.91667 3.40671 9.32167 4.25838 9.205L9.42671 8.45833C9.53171 8.44667 9.61338 8.38833 9.66004 8.295L11.97 3.605C12.355 2.835 13.125 2.345 13.9884 2.345C14.8517 2.345 15.6217 2.82333 16.0067 3.605L18.3167 8.295C18.3634 8.38833 18.445 8.44667 18.55 8.45833L23.73 9.205C24.5817 9.33333 25.2817 9.91667 25.55 10.7333C25.8184 11.55 25.5967 12.4367 24.9784 13.0433L21.2334 16.695C21.1634 16.765 21.1284 16.87 21.14 16.9633L22.0267 22.12C22.1784 22.9717 21.8284 23.8117 21.1284 24.325C20.7317 24.6167 20.265 24.7567 19.81 24.7567L19.8217 24.745Z" fill="#D0D0D0"/>
</g>
</svg>
