<svg width="16" height="16" viewBox="0 0 16 16" fill="none" xmlns="http://www.w3.org/2000/svg">
<g id="Component 71">
<path id="Vector" d="M8.00416 2.72671L9.28416 5.32004C9.50416 5.76671 9.93082 6.07337 10.4175 6.14671L13.2842 6.56004L11.2108 8.58004C10.8508 8.92671 10.6908 9.42671 10.7775 9.92004L11.2642 12.7734L8.71749 11.4334C8.49749 11.3134 8.25082 11.2534 8.00416 11.2534C7.75749 11.2534 7.50416 11.3134 7.30416 11.4267L4.74416 12.7734L5.23082 9.92671C5.31749 9.42671 5.15082 8.92671 4.79749 8.58671L2.72416 6.56671L5.57749 6.15337C6.07082 6.08671 6.49749 5.77337 6.71749 5.32671L7.99749 2.73337M7.99749 1.34004C7.50416 1.34004 7.06416 1.61337 6.84416 2.06004L5.52416 4.74004C5.49749 4.79337 5.45082 4.82671 5.39082 4.83337L2.43749 5.26004C1.95082 5.33337 1.55082 5.66671 1.39749 6.13337C1.24416 6.60004 1.37082 7.10671 1.72416 7.45337L3.86416 9.54004C3.90416 9.58004 3.92416 9.64004 3.91749 9.69337L3.41082 12.64C3.33082 13.1267 3.52416 13.6067 3.92416 13.9C4.15082 14.0667 4.41749 14.1467 4.67749 14.1467C4.88416 14.1467 5.08416 14.1 5.27749 14L7.92416 12.6067C7.92416 12.6067 7.97749 12.5867 8.00416 12.5867C8.03082 12.5867 8.05749 12.5934 8.08416 12.6067L10.7308 13.9934C10.9242 14.0934 11.1242 14.14 11.3308 14.14C11.5975 14.14 11.8575 14.06 12.0842 13.8934C12.4842 13.6 12.6775 13.12 12.5975 12.6334L12.0908 9.68671C12.0842 9.62671 12.0975 9.57337 12.1442 9.53337L14.2842 7.44671C14.6375 7.10004 14.7642 6.60004 14.6108 6.12671C14.4575 5.66004 14.0575 5.32004 13.5708 5.25337L10.6108 4.82671C10.5508 4.82004 10.5042 4.78004 10.4775 4.73337L9.15749 2.05337C8.93749 1.61337 8.49749 1.33337 8.00416 1.33337L7.99749 1.34004Z" fill="#707070"/>
</g>
</svg>
