<svg width="24" height="24" viewBox="0 0 24 24" fill="none" xmlns="http://www.w3.org/2000/svg">
<path d="M12 22C17.5228 22 22 17.5228 22 12C22 6.47715 17.5228 2 12 2C6.47715 2 2 6.47715 2 12C2 17.5228 6.47715 22 12 22Z" fill="#FFC700"/>
<path fill-rule="evenodd" clip-rule="evenodd" d="M17.6564 7.75235C18.0472 8.1426 18.0477 8.77577 17.6574 9.16657L10.5874 16.2466C10.3999 16.4343 10.1455 16.5399 9.88016 16.54C9.61482 16.5401 9.36032 16.4347 9.1727 16.2471L6.3427 13.4171C5.95217 13.0265 5.95217 12.3934 6.3427 12.0029C6.73322 11.6123 7.36639 11.6123 7.75691 12.0029L9.8793 14.1252L16.2422 7.75335C16.6324 7.36255 17.2656 7.36211 17.6564 7.75235Z" fill="#F7F7F7"/>
</svg>
