<svg width="64" height="64" viewBox="0 0 64 64" fill="none" xmlns="http://www.w3.org/2000/svg">
<path fill-rule="evenodd" clip-rule="evenodd" d="M64 32C64 49.6736 49.6736 64 32 64C14.3264 64 0 49.6736 0 32C0 14.3264 14.3264 0 32 0C49.6736 0 64 14.3264 64 32Z" fill="#FFF4CD"/>
<path d="M41 26.5H23C21.3431 26.5 20 27.8431 20 29.5V43C20 44.6569 21.3431 46 23 46H41C42.6569 46 44 44.6569 44 43V29.5C44 27.8431 42.6569 26.5 41 26.5Z" fill="#ECAA00"/>
<path fill-rule="evenodd" clip-rule="evenodd" d="M32 19C28.6884 19 26 21.6884 26 25V28C26 28.8284 25.3284 29.5 24.5 29.5C23.6716 29.5 23 28.8284 23 28V25C23 20.0316 27.0316 16 32 16C36.9684 16 41 20.0316 41 25V28C41 28.8284 40.3284 29.5 39.5 29.5C38.6716 29.5 38 28.8284 38 28V25C38 21.6884 35.3116 19 32 19Z" fill="#ECAA00"/>
<path d="M32 37C33.2426 37 34.25 35.9926 34.25 34.75C34.25 33.5074 33.2426 32.5 32 32.5C30.7574 32.5 29.75 33.5074 29.75 34.75C29.75 35.9926 30.7574 37 32 37Z" fill="#FFF4CD"/>
<path d="M30.4999 35.5L29.3299 38.995C29.1649 39.49 29.5399 40 30.0499 40H33.9349C34.4599 40 34.8199 39.49 34.6549 38.995L33.4849 35.5H30.4849H30.4999Z" fill="#FFF4CD"/>
</svg>
