<svg width="95" height="32" viewBox="0 0 95 32" fill="none" xmlns="http://www.w3.org/2000/svg">
<g clip-path="url(#clip0_971_21321)">
<path d="M8.37357 23.5375C3.30625 23.5375 0 19.8977 0 14.7718C0 9.28152 3.64611 5.854 8.5589 5.854C10.0421 5.854 12.1122 6.18763 13.2246 7.1887L12.0197 11.4656C11.5871 11.0409 10.5983 10.7073 9.45513 10.7073C7.0759 10.7073 5.99435 12.4058 5.96356 14.5897C5.93257 17.6532 7.63208 18.6542 9.51691 18.6542C11.8651 18.6542 13.4719 16.7129 13.5646 14.4986V6.21824H19.59V23.7499C19.59 29.786 15.9749 32.0001 9.94953 32.0001C7.19965 32.0001 2.84284 31.09 1.14353 30.1802L2.50298 25.1756C5.25285 26.3282 8.312 26.6923 9.85697 26.6923C12.267 26.6923 13.5646 26.0857 13.5646 24.0535V21.1719C12.3597 22.9918 10.4747 23.5377 8.37377 23.5377L8.37357 23.5375Z" fill="#D0D0D0"/>
<path d="M37.7894 18.8664L38.809 23.2645C36.2444 24.2958 33.5871 24.5688 31.486 24.5688C24.1322 24.5688 20.6714 21.1413 20.6714 15.894V15.3482C20.6714 11.2228 23.8539 6.18781 30.4664 5.79354C36.7078 5.42969 39.7978 8.46274 39.6432 12.4058C39.4889 16.8646 35.2866 18.2295 31.4242 18.2295C29.323 18.2295 27.6855 17.7746 26.2333 17.0465C26.4804 18.897 28.6125 19.8977 32.1967 19.8977C33.7724 19.8977 36.677 19.3519 37.7894 18.8664ZM33.8962 12.2541C33.8962 11.3137 33.2782 10.4645 31.3624 10.4645C29.4466 10.4645 27.6545 11.2834 26.7585 13.0426C27.8708 13.6797 29.4466 14.1044 30.868 14.1044C32.0729 14.1044 33.896 13.7707 33.896 12.2541H33.8962Z" fill="#D0D0D0"/>
<path d="M57.3917 18.8664L58.4113 23.2645C55.8468 24.2958 53.1894 24.5688 51.0885 24.5688C43.7347 24.5688 40.2739 21.1413 40.2739 15.894V15.3482C40.2739 11.2228 43.4564 6.18781 50.0689 5.79354C56.3104 5.42969 59.4003 8.46274 59.2456 12.4058C59.0912 16.8646 54.8889 18.2295 51.0267 18.2295C48.9256 18.2295 47.2881 17.7746 45.8358 17.0465C46.0829 18.897 48.2151 19.8977 51.7992 19.8977C53.375 19.8977 56.2796 19.3519 57.3919 18.8664H57.3917ZM53.4985 12.2541C53.4985 11.3137 52.8806 10.4645 50.9648 10.4645C49.0489 10.4645 47.2569 11.2834 46.3608 13.0426C47.4732 13.6797 49.0489 14.1044 50.4704 14.1044C51.6753 14.1044 53.4983 13.7707 53.4983 12.2541H53.4985Z" fill="#D0D0D0"/>
<path d="M66.4778 0V12.4058C70.2785 11.4958 72.2869 9.40294 72.5032 6.24842H78.1267C77.9104 10.0398 75.6857 12.9822 72.7503 14.9535L78.7452 24.4171H72.3184L68.0848 17.1374C67.5594 17.2891 67.0034 17.4105 66.478 17.5012V24.4169H60.4839V0H66.478H66.4778Z" fill="#D0D0D0"/>
<path d="M87.8294 10.4948C86.3462 10.4948 85.6665 10.8587 85.6047 11.4655C85.512 12.2844 86.1299 12.527 87.1187 12.7393C88.4473 13.0123 90.4867 13.4672 91.8771 14.0436C94.2872 15.0447 95.4923 17.3499 94.7506 20.3831C94.1326 22.8702 92.0935 24.3725 87.5203 24.3725C84.5234 24.3725 81.4642 23.3504 78.7451 22.1674L79.8575 17.3143C81.2479 18.1937 85.1101 19.3981 86.9332 19.3981C87.9837 19.3981 88.9108 19.4122 89.0033 18.745C89.1269 17.926 88.5089 17.5924 87.3658 17.2588C86.0989 16.8949 84.0905 16.5309 82.7929 16.0152C80.8153 15.2266 79.5176 13.71 79.6412 11.0106C79.7955 6.67305 84.0286 5.70239 87.6749 5.70239C90.0849 5.70239 92.7112 6.1573 94.596 7.00667L93.6074 11.5563C92.155 10.9195 89.4669 10.4948 87.8294 10.4948Z" fill="#D0D0D0"/>
</g>
<defs>
<clipPath id="clip0_971_21321">
<rect width="94.9677" height="32" fill="white"/>
</clipPath>
</defs>
</svg>
