<svg width="80" height="32" viewBox="0 0 80 32" fill="none" xmlns="http://www.w3.org/2000/svg">
<g id="Layer_1" clip-path="url(#clip0_1196_6513)">
<path id="Vector" d="M42.7589 8.61548C47.1939 8.61548 50.2245 11.8935 50.2245 16.5884C50.2245 16.8577 50.206 17.1411 50.1794 17.4268C50.1239 18.0239 49.6234 18.4787 49.0293 18.4787H39.333C38.8846 18.4787 38.6118 18.9685 38.836 19.3614C39.6521 20.7876 41.1951 21.6307 43.1346 21.6307C45.3341 21.6307 46.253 20.8856 47.2089 20.1894C47.4493 20.0145 47.7845 20.0576 47.9787 20.2839L49.2744 21.794C49.4755 22.0296 49.4593 22.3817 49.2374 22.5975C47.7961 24.0027 46.4414 25.0021 43.1045 25.0021C38.3876 25.0021 34.7964 21.4407 34.7964 16.8088C34.7964 12.1769 38.2327 8.61548 42.7613 8.61548H42.7589ZM38.8083 15.5797H46.3397C46.564 15.5797 46.7281 15.3686 46.6784 15.1494C46.2253 13.1658 44.6522 11.9553 42.6965 11.9553C40.7408 11.9553 38.9516 13.2136 38.4708 15.1435C38.4153 15.3651 38.5818 15.5797 38.8083 15.5797Z" fill="#333333"/>
<path id="Vector_2" d="M25.9416 8.61548C30.3765 8.61548 33.4071 11.8935 33.4071 16.5884C33.4071 16.8577 33.3886 17.1411 33.362 17.4268C33.3065 18.0239 32.8061 18.4787 32.212 18.4787H22.5157C22.0672 18.4787 21.7944 18.9685 22.0186 19.3614C22.8347 20.7876 24.3777 21.6307 26.3172 21.6307C28.5168 21.6307 29.4356 20.8856 30.3915 20.1894C30.6319 20.0145 30.9671 20.0576 31.1613 20.2839L32.457 21.794C32.6581 22.0296 32.6419 22.3817 32.42 22.5975C30.9787 24.0027 29.624 25.0021 26.2871 25.0021C21.5702 25.0021 17.979 21.4407 17.979 16.8088C17.979 12.1769 21.4153 8.61548 25.9439 8.61548H25.9416ZM21.9909 15.5797H29.5223C29.7466 15.5797 29.9107 15.3686 29.861 15.1494C29.4079 13.1658 27.8348 11.9553 25.8791 11.9553C23.9235 11.9553 22.1342 13.2136 21.6534 15.1435C21.5979 15.3651 21.7644 15.5797 21.9909 15.5797Z" fill="#333333"/>
<path id="Vector_3" d="M68.2982 20.117C68.4913 19.8617 68.8507 19.8138 69.1062 20.0051C70.3152 20.9124 71.9865 21.6307 73.5342 21.6307C75.0818 21.6307 76.314 20.9683 76.314 20.1182C76.314 18.7946 74.3467 18.3853 73.1909 18.0693C70.6296 17.344 67.1621 16.5883 67.1621 13.2158C67.1621 10.5372 69.7546 8.61426 73.2845 8.61426C75.5026 8.61426 77.5657 9.37225 79.0729 10.5547C79.318 10.7471 79.3677 11.1016 79.1862 11.3558L78.0523 12.9453C77.8686 13.2018 77.5195 13.259 77.2571 13.0852C76.1383 12.3424 74.5964 11.9867 73.2845 11.9867C71.6606 11.9867 70.8792 12.5535 70.8792 13.2473C70.8792 14.0986 72.4408 14.4449 74.1283 14.8543C77.2201 15.5796 80.0011 16.6816 80.0011 20.0856C80.0011 22.9216 77.2213 25.002 73.4417 25.002C71.0422 25.002 68.8554 24.1915 67.0569 22.6965C66.8153 22.496 66.7702 22.1403 66.9598 21.8884L68.2994 20.1159L68.2982 20.117Z" fill="#333333"/>
<path id="Vector_4" d="M65.781 8.61304H62.5562C62.2835 8.61304 62.0234 8.73548 61.8477 8.94655L57.0314 14.7376C56.754 15.0711 56.2153 14.8729 56.2153 14.4379V9.19844C56.2153 8.87658 55.9564 8.61537 55.6374 8.61537H53.1131C52.7941 8.61537 52.5352 8.87658 52.5352 9.19844V24.42C52.5352 24.7419 52.7941 25.0031 53.1131 25.0031H55.6374C55.9564 25.0031 56.2153 24.7419 56.2153 24.42V21.4744C56.2153 21.3368 56.2639 21.2038 56.3517 21.0989L57.2417 20.033C57.4255 19.8126 57.7618 19.8115 57.9468 20.0307L61.8824 24.6778C62.0581 24.8853 62.3147 25.0043 62.5851 25.0043H65.8007C66.1902 25.0043 66.4052 24.5472 66.159 24.2428L60.5243 17.2833C60.2434 16.9358 60.2469 16.4355 60.5335 16.0915L66.1359 9.38036C66.389 9.07716 66.1752 8.61304 65.7822 8.61304H65.781Z" fill="#333333"/>
<path id="Vector_5" d="M15.665 8.61304H13.1349C12.8159 8.61304 12.557 8.87425 12.557 9.19611V9.30339C12.557 9.66256 12.1721 9.88646 11.8647 9.70687C10.6961 9.02352 9.38423 8.61537 7.74641 8.61537C3.93793 8.61537 0 11.7511 0 16.8087C0 20.8237 3.58309 24.5355 7.74641 24.5355C9.22241 24.5355 10.4638 24.2218 11.5375 23.6504C11.9999 23.4043 12.557 23.7309 12.557 24.2579V24.6871C12.557 27.0508 10.8706 28.4689 7.96486 28.4689C6.6056 28.4689 4.80134 27.8007 3.56113 26.9226C3.30684 26.743 2.95663 26.8036 2.77054 27.0543L1.32228 29.0088C1.13387 29.263 1.18358 29.6199 1.42977 29.8181C3.23287 31.2723 5.62083 31.9988 7.90129 31.9988C13.0864 31.9988 16.2406 29.1312 16.2406 24.4352V9.19611C16.2406 8.87425 15.9817 8.61304 15.6627 8.61304H15.665ZM8.11165 21.0814C5.64394 21.0814 3.64435 19.064 3.64435 16.5743C3.64435 14.0846 5.64394 12.0671 8.11165 12.0671C10.5794 12.0671 12.579 14.0846 12.579 16.5743C12.579 19.064 10.5794 21.0814 8.11165 21.0814Z" fill="#333333"/>
<path id="Vector_6" d="M18.4437 6.79042L17.9988 5.2208C17.9109 4.91177 18.0889 4.58875 18.3952 4.50013L34.1296 0L49.8062 4.50013C50.1125 4.58875 50.2905 4.91177 50.2015 5.22197L49.7542 6.79159C49.6663 7.10062 49.3462 7.2802 49.0387 7.19041L34.1273 2.91185L19.1581 7.19158C18.8518 7.2802 18.5316 7.10062 18.4437 6.79159V6.79042Z" fill="#FFC700"/>
</g>
<defs>
<clipPath id="clip0_1196_6513">
<rect width="80" height="32" fill="white"/>
</clipPath>
</defs>
</svg>
