<svg width="163" height="158" viewBox="0 0 163 158" fill="none" xmlns="http://www.w3.org/2000/svg">
<g clip-path="url(#clip0_2258_5276)">
<path d="M49.2526 136.407C72.9176 136.407 92.1019 117.296 92.1019 93.7207C92.1019 70.1458 72.9176 51.0347 49.2526 51.0347C25.5875 51.0347 6.40318 70.1458 6.40318 93.7207C6.40318 117.296 25.5875 136.407 49.2526 136.407Z" fill="#68C8C8"/>
<path d="M111.514 157.5C135.179 157.5 154.363 138.389 154.363 114.814C154.363 91.2391 135.179 72.1279 111.514 72.1279C87.8489 72.1279 68.6646 91.2391 68.6646 114.814C68.6646 138.389 87.8489 157.5 111.514 157.5Z" fill="#FFC700"/>
<path d="M154.482 65.6386L77.6112 17.1873L6.69389 51.2356L0.325073 38.0678L78.5752 0.5L162.325 53.2864L154.482 65.6386Z" fill="#FFC700"/>
</g>
<defs>
<clipPath id="clip0_2258_5276">
<rect width="162" height="157" fill="white" transform="translate(0.325073 0.5)"/>
</clipPath>
</defs>
</svg>
