<svg width="28" height="28" viewBox="0 0 28 28" fill="none" xmlns="http://www.w3.org/2000/svg">
<g id="Component 85">
<g id="Subtract">
<path d="M17.7124 6.98745C11.6896 5.044 6.26806 8.51239 2.97708 12.1182C1.95454 13.2385 1.98493 14.9427 2.99949 16.0703C3.9713 17.1504 4.94652 18.0472 5.91867 18.7812L9.18519 15.5147L15.5163 9.18361L17.7124 6.98745Z" fill="#B7B7B7"/>
<path d="M10.4315 17.5683C11.345 18.4822 12.6073 19.0476 14.0016 19.0476C16.7893 19.0476 19.0492 16.7877 19.0492 14C19.0492 12.6057 18.4838 11.3434 17.5699 10.4299L20.0112 7.9885C21.6429 8.88756 23.3033 10.2143 24.964 12.0672C25.9972 13.2201 26.0073 14.965 24.934 16.0807C21.1544 20.0095 14.7271 23.7357 7.92465 20.0751L10.4315 17.5683Z" fill="#B7B7B7"/>
</g>
<g id="Subtract_2">
<path d="M14.1946 10.5053C14.1302 10.5018 14.0653 10.5 14 10.5C12.067 10.5 10.5 12.067 10.5 14C10.5 14.0653 10.5018 14.1302 10.5053 14.1946L14.1946 10.5053Z" fill="#B7B7B7"/>
<path d="M11.525 16.4748C12.1584 17.1082 13.0334 17.5 14 17.5C15.933 17.5 17.5 15.933 17.5 14C17.5 13.0334 17.1082 12.1584 16.4748 11.525L11.525 16.4748Z" fill="#B7B7B7"/>
</g>
<path id="Line 4 (Stroke)" fill-rule="evenodd" clip-rule="evenodd" d="M22.6742 6.17508C23.1299 6.63069 23.1299 7.36939 22.6742 7.825L7.825 22.6742C7.36939 23.1299 6.63069 23.1299 6.17508 22.6742C5.71947 22.2186 5.71947 21.4799 6.17508 21.0243L21.0243 6.17508C21.4799 5.71947 22.2186 5.71947 22.6742 6.17508Z" fill="#B7B7B7"/>
</g>
</svg>
