<svg width="16" height="16" viewBox="0 0 16 16" fill="none" xmlns="http://www.w3.org/2000/svg">
<path d="M7.99325 1.33337C4.31325 1.33337 1.33325 4.32004 1.33325 8.00004C1.33325 11.68 4.31325 14.6667 7.99325 14.6667C11.6799 14.6667 14.6666 11.68 14.6666 8.00004C14.6666 4.32004 11.6799 1.33337 7.99325 1.33337ZM10.6666 10.6667C10.6049 10.7285 10.5316 10.7775 10.451 10.811C10.3704 10.8444 10.2839 10.8617 10.1966 10.8617C10.1093 10.8617 10.0228 10.8444 9.94217 10.811C9.86152 10.7775 9.78826 10.7285 9.72658 10.6667L7.53325 8.47337C7.47026 8.41163 7.42015 8.338 7.38582 8.25675C7.35148 8.1755 7.33362 8.08824 7.33325 8.00004V5.33337C7.33325 4.96671 7.63325 4.66671 7.99992 4.66671C8.36658 4.66671 8.66658 4.96671 8.66658 5.33337V7.72671L10.6666 9.72671C10.9266 9.98671 10.9266 10.4067 10.6666 10.6667Z" fill="#D0D0D0"/>
</svg>
