<svg width="8" height="8" viewBox="0 0 8 8" fill="none" xmlns="http://www.w3.org/2000/svg">
<g id="icon-add">
<path id="Union" fill-rule="evenodd" clip-rule="evenodd" d="M4.33325 1.66668C4.33325 1.48258 4.18401 1.33334 3.99992 1.33334C3.81582 1.33334 3.66659 1.48258 3.66659 1.66668V3.66668H1.66659C1.48249 3.66668 1.33325 3.81592 1.33325 4.00001C1.33325 4.18411 1.48249 4.33334 1.66659 4.33334H3.66659V6.33334C3.66659 6.51744 3.81582 6.66668 3.99992 6.66668C4.18401 6.66668 4.33325 6.51744 4.33325 6.33334V4.33334H6.33325C6.51735 4.33334 6.66658 4.18411 6.66658 4.00001C6.66658 3.81592 6.51735 3.66668 6.33325 3.66668H4.33325V1.66668Z" fill="#707070"/>
</g>
</svg>
