<svg width="28" height="28" viewBox="0 0 28 28" fill="none" xmlns="http://www.w3.org/2000/svg">
<g id="icon-pencil">
<path id="Vector" d="M11.7135 11.27L16.6602 16.2167L10.0452 22.8317L4.7602 23.17L5.09853 17.885L11.7135 11.27ZM11.7135 7.96833L3.44187 16.24C3.0452 16.6367 2.8002 17.1733 2.7652 17.745L2.33353 24.4183C2.2752 25.0833 2.74187 25.585 3.3952 25.585C3.4302 25.585 3.4652 25.585 3.5002 25.585L10.1852 25.1533C10.7569 25.1183 11.2819 24.8733 11.6902 24.4767L19.9619 16.205L11.7135 7.95667V7.96833Z" fill="#333333"/>
<path id="Vector_2" d="M18.3048 4.66665L23.2515 9.61331L20.7781 12.0866L15.8315 7.13998L18.3048 4.66665ZM18.3048 2.33331C17.7098 2.33331 17.1148 2.56665 16.6598 3.02165L12.5298 7.15165L20.7781 15.4L24.9081 11.27C25.8181 10.36 25.8181 8.87831 24.9081 7.96831L19.9615 3.02165C19.5065 2.56665 18.9115 2.33331 18.3165 2.33331L18.3048 2.33331Z" fill="#333333"/>
</g>
</svg>
