<svg width="328" height="148" viewBox="0 0 328 148" fill="none" xmlns="http://www.w3.org/2000/svg">
<rect x="41" y="0.5" width="286" height="35" rx="7.5" fill="#333333"/>
<rect x="41" y="0.5" width="286" height="35" rx="7.5" stroke="url(#paint0_linear_1912_8458)"/>
<path d="M65.125 12.4961V16.5625H66.8125V17.4766H65.125V23.0195H64.0117V12.4961H65.125ZM57.3906 20.4062V13.5039H62.3008V14.4062H58.5039V19.4805C60.2676 19.4746 61.5859 19.3984 63.0859 19.1289L63.2266 20.0664C61.5801 20.3594 60.1855 20.4121 58.2344 20.4062H57.3906ZM76.9141 18.2617V19.1641H67.3047V18.2617H76.9141ZM68.5117 13.6914V12.8125H75.707V15.5078H69.6367V16.5391H75.918V17.3945H68.5352V14.6992H74.5938V13.6914H68.5117ZM68.5586 22.7734V19.9141H69.6719V21.8711H75.9297V22.7734H68.5586ZM84.2617 15.168C84.25 17.0254 85.334 18.9297 86.8984 19.6914L86.207 20.582C85.0645 19.9844 84.1797 18.8125 83.7168 17.4121C83.248 18.9004 82.3281 20.1602 81.1328 20.7812L80.4414 19.8789C82.0527 19.1055 83.1426 17.0898 83.1484 15.168V13.375H84.2617V15.168ZM87.6836 22.9961V12.4961H88.7969V16.6797H90.4844V17.6289H88.7969V22.9961H87.6836ZM99.2383 12.5078V15.1211H100.773V16.0586H99.2383V18.7539H98.125V12.5078H99.2383ZM91.4102 13.9492V13.0586H96.1914V16.0234H92.5352V17.3359C94.3574 17.3301 95.6465 17.2773 97.1758 17.0195L97.293 17.9102C95.6699 18.2031 94.2812 18.2617 92.2656 18.2617H91.4219V15.1797H95.1016V13.9492H91.4102ZM92.5117 22.8672V19.2461H99.2383V22.8672H92.5117ZM93.6016 21.9648H98.1602V20.1133H93.6016V21.9648ZM107.207 13.6211V14.2656C107.201 15.1504 107.201 16.5039 106.902 18.3789L105.801 18.2969C106.07 16.6211 106.1 15.3965 106.105 14.5234H101.84V13.6211H107.207ZM101.254 19.832C101.91 19.8262 102.643 19.8203 103.41 19.8027V16.6211H104.512V19.7676C105.625 19.7207 106.768 19.6504 107.816 19.5156L107.875 20.3477C105.689 20.6992 103.246 20.7461 101.383 20.7344L101.254 19.832ZM108.414 22.9961V12.4961H109.539V16.832H111.145V17.7812H109.539V22.9961H108.414ZM117.871 14.5117C117.871 15.6602 118.604 16.8203 119.969 17.3359L119.383 18.1914C118.404 17.8164 117.719 17.1016 117.344 16.2402C116.957 17.2129 116.242 18.0566 115.223 18.4961L114.613 17.6289C116.031 17.0137 116.793 15.6777 116.793 14.5117V13.1523H117.871V14.5117ZM116.547 21.0742C116.535 19.8789 117.9 19.1699 120.098 19.1641C122.289 19.1699 123.666 19.8789 123.672 21.0742C123.666 22.2695 122.289 22.9785 120.098 22.9727C117.9 22.9785 116.535 22.2695 116.547 21.0742ZM117.648 21.0742C117.637 21.7422 118.568 22.1289 120.098 22.1172C121.621 22.1289 122.553 21.7422 122.559 21.0742C122.553 20.4004 121.621 20.0137 120.098 20.0195C118.568 20.0137 117.637 20.4004 117.648 21.0742ZM120.297 18.6367V12.6953H121.328V15.2383H122.559V12.5078H123.613V18.9648H122.559V16.1523H121.328V18.6367H120.297ZM133.293 12.4961V15.1094H134.793V16.0586H133.293V18.6836H132.18V12.4961H133.293ZM124.961 17.6875C125.775 17.6875 126.719 17.6816 127.703 17.6582V17.0664C126.496 16.9551 125.746 16.4688 125.758 15.6836C125.746 14.8281 126.73 14.3242 128.254 14.3242C129.766 14.3242 130.744 14.8281 130.75 15.6836C130.744 16.4629 130.006 16.9492 128.816 17.0664V17.6113C129.754 17.5703 130.703 17.4941 131.582 17.3711L131.676 18.0977C129.42 18.4668 126.924 18.4844 125.078 18.4844L124.961 17.6875ZM125.23 14.0195V13.2461H127.703V12.4023H128.816V13.2461H131.289V14.0195H125.23ZM126.355 19.9023V19.1289H133.293V21.3203H127.492V22.1172H133.68V22.8906H126.379V20.6055H132.191V19.9023H126.355ZM126.812 15.6836C126.812 16.1055 127.357 16.3633 128.254 16.3633C129.139 16.3633 129.689 16.1055 129.684 15.6836C129.689 15.2793 129.139 15.0508 128.254 15.0508C127.357 15.0508 126.812 15.2793 126.812 15.6836ZM140.617 18.7891V19.9023H145.551V18.7891H146.664V22.8672H139.516V18.7891H140.617ZM138.332 18.1328V17.207H147.906V18.1328H138.332ZM138.848 15.6836C140.881 15.4199 142.545 14.3008 142.551 13.0586V12.6133H143.688V13.0586C143.693 14.2656 145.369 15.4375 147.379 15.6836L146.98 16.5625C145.281 16.3281 143.799 15.5195 143.125 14.4004C142.445 15.5254 140.957 16.3281 139.27 16.5625L138.848 15.6836ZM140.617 21.9766H145.551V20.7695H140.617V21.9766ZM154.551 13.293V13.8789C154.539 14.582 154.539 15.625 154.281 16.9844L153.18 16.8789C153.408 15.7188 153.443 14.8691 153.455 14.207H149.254V13.293H154.551ZM148.621 17.8867C149.266 17.8867 149.998 17.8809 150.766 17.8633V15.6484H151.867V17.8281C152.992 17.7812 154.152 17.6992 155.207 17.5469L155.277 18.3555C153.086 18.7422 150.578 18.7832 148.727 18.7891L148.621 17.8867ZM150.215 22.7734V19.668H151.328V21.8711H157.352V22.7734H150.215ZM155.875 20.3828V12.4961H157.012V15.8359H158.453V16.7734H157.012V20.3828H155.875ZM163.855 12.6719C166.223 12.666 167.6 13.3047 167.605 14.4766C167.6 15.6543 166.223 16.293 163.855 16.293C161.488 16.293 160.1 15.6543 160.105 14.4766C160.1 13.3047 161.488 12.666 163.855 12.6719ZM159.074 17.8281V16.9375H168.648V17.8281H159.074ZM160.223 19.4688V18.6367H167.441V21.0977H161.324V22.0352H167.734V22.8906H160.234V20.2891H166.34V19.4688H160.223ZM161.266 14.4766C161.26 15.127 162.186 15.4609 163.855 15.4609C165.537 15.4609 166.463 15.127 166.457 14.4766C166.463 13.8555 165.537 13.4922 163.855 13.4922C162.186 13.4922 161.26 13.8555 161.266 14.4766ZM175.129 19.0117V20.0781H179.945V19.0117H181.047V22.8672H174.016V19.0117H175.129ZM172.387 17.0312C174.367 17.0371 176.98 17.0371 179.266 16.7383L179.336 17.5352C178.434 17.6875 177.496 17.7812 176.582 17.8398V19.3047H175.48V17.8984C174.42 17.9395 173.412 17.9453 172.527 17.9453L172.387 17.0312ZM172.82 15.6016C174.402 15.25 175.357 14.3184 175.363 13.2461V12.7539H176.5V13.2461C176.5 14.2598 177.473 15.1328 179.031 15.4609L178.539 16.293C177.32 16.0293 176.406 15.4199 175.943 14.582C175.492 15.4844 174.572 16.1641 173.324 16.4688L172.82 15.6016ZM175.129 21.9648H179.945V20.9336H175.129V21.9648ZM179.934 18.5312V12.5078H181.047V18.5312H179.934ZM191.77 12.4961V22.9961H190.715V12.4961H191.77ZM182.711 19.9609C184.938 18.6367 186.004 16.873 186.197 14.7109H183.203V13.7969H187.305C187.299 14.8223 187.158 15.8008 186.836 16.7148H188.5V12.7656H189.555V22.4805H188.5V17.6055H186.449C185.828 18.8242 184.826 19.8906 183.344 20.7578L182.711 19.9609ZM204.742 12.4961V23.0195H203.629V12.4961H204.742ZM196.633 20.5V13.375H197.746V16.0703H200.57V13.375H201.672V20.5H196.633ZM197.746 19.5859H200.57V16.9492H197.746V19.5859ZM214.949 13.5039V14.6289C214.938 15.9473 214.938 17.3301 214.562 19.3398L213.473 19.2227C213.842 17.3242 213.842 15.918 213.836 14.6289V14.4062H207.402V13.5039H214.949ZM206.418 21.5781V20.6523H208.68V17.2539H209.793V20.6523H211.305V17.2539H212.395V20.6523H215.992V21.5781H206.418ZM225.039 12.4609V14.9219H226.574V15.8359H225.039V18.2383H223.926V12.4609H225.039ZM216.801 14.2656V13.3867H219.379V12.4023H220.492V13.3867H223.059V14.2656H216.801ZM217.375 16.3867C217.369 15.3262 218.389 14.6641 219.93 14.6641C221.471 14.6641 222.473 15.3262 222.473 16.3867C222.473 17.4531 221.471 18.1035 219.93 18.0977C218.389 18.1035 217.369 17.4531 217.375 16.3867ZM218.254 19.5625V18.7305H225.039V21.168H219.367V22.0469H225.402V22.8906H218.277V20.3828H223.938V19.5625H218.254ZM218.453 16.3867C218.441 16.9551 219.021 17.2891 219.93 17.2891C220.832 17.2891 221.418 16.9551 221.43 16.3867C221.418 15.8184 220.832 15.4668 219.93 15.4609C219.021 15.4668 218.441 15.8184 218.453 16.3867ZM235.469 13.4219C235.463 14.8164 237.168 16.123 239.23 16.3984L238.797 17.3125C237.08 17.0371 235.574 16.1465 234.889 14.9102C234.203 16.1465 232.697 17.0371 230.992 17.3125L230.547 16.3984C232.604 16.123 234.303 14.834 234.309 13.4219V12.8477H235.469V13.4219ZM230.09 19.2578V18.3438H239.664V19.2578H235.398V22.9961H234.309V19.2578H230.09ZM247.035 19.4336C247.035 20.3359 247.48 21.291 248.436 21.8594C249.396 21.2441 249.871 20.2422 249.871 19.4336V18.9297H250.961V19.4336C250.955 20.5234 251.676 21.5781 253.047 22.0234L252.496 22.8438C251.459 22.4863 250.75 21.7832 250.387 20.9277C250.053 21.7715 249.426 22.5391 248.465 22.9375C247.457 22.5566 246.818 21.8125 246.496 20.957C246.115 21.7832 245.424 22.4805 244.434 22.8438L243.871 22.0234C245.219 21.543 245.951 20.4473 245.957 19.4336V18.9297H247.035V19.4336ZM243.602 15.5664C243.607 14.0957 244.791 13.0879 246.402 13.082C248.008 13.0879 249.191 14.0957 249.191 15.5664C249.191 17.0195 248.008 18.0273 246.402 18.0273C244.791 18.0273 243.607 17.0195 243.602 15.5664ZM244.691 15.5664C244.686 16.4805 245.406 17.1016 246.402 17.1016C247.387 17.1016 248.102 16.4805 248.102 15.5664C248.102 14.6465 247.387 14.0254 246.402 14.0312C245.406 14.0254 244.686 14.6465 244.691 15.5664ZM250.984 18.4844V12.5078H252.098V18.4844H250.984ZM256.609 13.2812C258.039 13.2871 259.076 14.4941 259.246 16.4336H261.414V12.4961H262.516V23.0195H261.414V17.3359H259.258C259.135 19.3867 258.074 20.6582 256.609 20.6523C255.045 20.6582 253.938 19.2285 253.949 16.9609C253.938 14.7168 255.045 13.2871 256.609 13.2812ZM255.004 16.9609C255.01 18.6309 255.66 19.6562 256.609 19.6562C257.559 19.6562 258.209 18.6309 258.215 16.9609C258.209 15.3145 257.559 14.2832 256.609 14.2773C255.66 14.2832 255.01 15.3145 255.004 16.9609ZM267.918 15.168C267.918 17.0898 268.996 19.0059 270.602 19.7266L269.922 20.6172C268.732 20.0195 267.83 18.8359 267.367 17.4004C266.904 18.9121 265.99 20.1895 264.777 20.8164L264.074 19.9141C265.703 19.1348 266.787 17.1133 266.793 15.168V13.375H267.918V15.168ZM269.441 16.8906V15.9883H271.785V12.4961H272.887V23.0195H271.785V16.8906H269.441ZM282.766 15.625V16.7734H287.031V17.6758H277.422V16.7734H281.664V15.625H282.766ZM277.914 15.4141C279.783 15.2852 281.277 14.5586 281.459 13.6562H278.312V12.8008H286.152V13.6562H282.971C283.152 14.5645 284.629 15.2852 286.527 15.4141L286.164 16.2461C284.312 16.0879 282.777 15.4141 282.227 14.3652C281.664 15.4082 280.129 16.0879 278.277 16.2461L277.914 15.4141ZM278.312 19.8203V18.9648H281.664V18.0391H282.766V18.9648H286.117V19.8203H278.312ZM279.027 21.6484C279.021 20.7402 280.164 20.2715 282.203 20.2656C284.242 20.2715 285.408 20.7402 285.414 21.6484C285.408 22.5684 284.242 23.0488 282.203 23.043C280.164 23.0488 279.021 22.5684 279.027 21.6484ZM280.164 21.6484C280.152 22.0703 280.891 22.293 282.203 22.2812C283.539 22.293 284.26 22.0703 284.266 21.6484C284.26 21.2266 283.539 21.0332 282.203 21.0273C280.891 21.0332 280.152 21.2266 280.164 21.6484ZM290.617 13.2812C292.188 13.2871 293.307 14.7168 293.312 16.9609C293.307 19.2285 292.188 20.6582 290.617 20.6523C289.047 20.6582 287.928 19.2285 287.934 16.9609C287.928 14.7168 289.047 13.2871 290.617 13.2812ZM289 16.9609C288.994 18.6309 289.662 19.6562 290.617 19.6562C291.59 19.6562 292.246 18.6309 292.246 16.9609C292.246 15.3145 291.59 14.2832 290.617 14.2773C289.662 14.2832 288.994 15.3145 289 16.9609ZM294.871 22.9961V12.4961H295.984V16.6094H297.672V17.5469H295.984V22.9961H294.871ZM307.785 20.7578V21.6836H298.176V20.7578H300.473V18.0156C299.611 17.541 299.084 16.791 299.09 15.8477C299.084 14.1953 300.707 13.1113 302.957 13.1055C305.213 13.1113 306.836 14.1953 306.836 15.8477C306.836 16.7734 306.332 17.5176 305.488 17.9922V20.7578H307.785ZM300.168 15.8477C300.168 16.9727 301.311 17.7051 302.957 17.7109C304.592 17.7051 305.752 16.9727 305.758 15.8477C305.752 14.7168 304.592 13.9961 302.957 13.9961C301.311 13.9961 300.168 14.7168 300.168 15.8477ZM301.574 20.7578H304.363V18.4258C303.936 18.5254 303.461 18.5781 302.957 18.5781C302.465 18.5781 301.996 18.5254 301.574 18.4258V20.7578ZM310.48 13.5156L310.375 19.5508H309.215L309.109 13.5156H310.48ZM308.969 21.25C308.963 20.793 309.344 20.418 309.801 20.418C310.252 20.418 310.627 20.793 310.633 21.25C310.627 21.707 310.252 22.0762 309.801 22.082C309.344 22.0762 308.963 21.707 308.969 21.25Z" fill="#E2E2E2"/>
<rect x="1" y="56.5" width="202" height="35" rx="7.5" fill="#333333"/>
<rect x="1" y="56.5" width="202" height="35" rx="7.5" stroke="url(#paint1_linear_1912_8458)"/>
<path d="M25.4941 68.9414V69.6328C25.5 70.3242 25.5 71.209 25.2715 72.3516H26.7129V73.2422H17.1035V72.3516H24.1523C24.3691 71.291 24.3926 70.4883 24.3926 69.832H18.3105V68.9414H25.4941ZM18.2285 75.0703V74.1797H25.5059V76.9336H19.3535V78H25.7754V78.8906H18.2402V76.0781H24.4043V75.0703H18.2285ZM36.3457 68.4961V78.9961H35.2207V68.4961H36.3457ZM27.2988 75.8438C28.6113 74.8652 28.9277 73.0371 28.9395 71.6016V69.3984H29.9707V71.6016C29.9766 72.709 30.1523 74.2031 30.9434 75.2695C31.7227 74.2266 31.8984 72.7559 31.9043 71.6016V69.3984H32.9707V71.6016C32.9648 73.0781 33.2871 74.8945 34.5996 75.8438L33.9082 76.6406C33.1406 76.084 32.6895 75.1875 32.4316 74.1855C32.1855 75.2109 31.7285 76.1484 30.9434 76.7227C30.1582 76.1484 29.7012 75.2051 29.4551 74.1855C29.2031 75.1641 28.7578 76.043 28.0254 76.6055L27.2988 75.8438ZM46.0254 68.4961V72.6797H47.6543V73.6055H46.0254V78.9844H44.9121V68.4961H46.0254ZM37.8574 76.1836C40.4883 74.8711 41.918 72.9727 42.1465 70.5234H38.3848V69.5977H43.2832C43.2715 72.6328 41.9355 75.3457 38.4785 77.0508L37.8574 76.1836ZM59.9121 68.4961V79.0195H58.7988V72.7969H55.6699V71.8828H58.7988V68.4961H59.9121ZM51.709 76.4883V69.6562H52.834V75.5625C54.334 75.5391 55.7461 75.4453 57.2754 75.1406L57.416 76.0547C55.7227 76.4004 54.1992 76.4941 52.5527 76.4883H51.709ZM71.1152 74.5195V75.4219H66.8262V78.9844H65.7363V75.4219H61.5059V74.5195H71.1152ZM62.7129 73.1836V69.0586H69.9082V73.1836H62.7129ZM63.8027 72.3164H68.7949V69.9492H63.8027V72.3164ZM78.4863 70.3828C78.4805 71.7246 79.4121 72.9961 81.0176 73.5352L80.4551 74.4023C79.2656 73.9922 78.3926 73.1719 77.9355 72.1406C77.4785 73.2715 76.5645 74.168 75.334 74.6016L74.7363 73.7344C76.377 73.1777 77.3672 71.8184 77.373 70.3711V70.0898H75.0645V69.1875H80.748V70.0898H78.4863V70.3828ZM76.1309 76.2422V75.3398H83.0684V78.9961H81.9551V76.2422H76.1309ZM81.9551 74.8242V68.4961H83.0684V71.1914H84.5918V72.1289H83.0684V74.8242H81.9551ZM88.002 69.2812C89.5723 69.2871 90.6914 70.7168 90.6973 72.9609C90.6914 75.2285 89.5723 76.6582 88.002 76.6523C86.4316 76.6582 85.3125 75.2285 85.3184 72.9609C85.3125 70.7168 86.4316 69.2871 88.002 69.2812ZM86.3848 72.9609C86.3789 74.6309 87.0469 75.6562 88.002 75.6562C88.9746 75.6562 89.6309 74.6309 89.6309 72.9609C89.6309 71.3145 88.9746 70.2832 88.002 70.2773C87.0469 70.2832 86.3789 71.3145 86.3848 72.9609ZM92.2559 78.9961V68.4961H93.3691V72.6094H95.0566V73.5469H93.3691V78.9961H92.2559ZM99.3457 71.168C99.3457 73.0898 100.424 75.0059 102.029 75.7266L101.35 76.6172C100.16 76.0195 99.2578 74.8359 98.7949 73.4004C98.332 74.9121 97.418 76.1895 96.2051 76.8164L95.502 75.9141C97.1309 75.1348 98.2148 73.1133 98.2207 71.168V69.375H99.3457V71.168ZM100.869 72.8906V71.9883H103.213V68.4961H104.314V79.0195H103.213V72.8906H100.869ZM117.557 68.4961V74.0391H116.455V68.4961H117.557ZM109.072 71.332C109.078 69.9375 110.238 68.9531 111.838 68.9531C113.42 68.9531 114.586 69.9375 114.592 71.332C114.586 72.7207 113.42 73.7051 111.838 73.6992C110.238 73.7051 109.078 72.7207 109.072 71.332ZM110.162 78.8672V76.207H112.611V75.3281H110.162V74.4727H113.701V77.0039H111.24V78.0234C112.553 78.0117 113.385 77.9766 114.381 77.7891L114.498 78.6211C113.344 78.8438 112.424 78.8613 110.818 78.8672H110.162ZM110.162 71.332C110.156 72.1934 110.871 72.7969 111.838 72.7969C112.799 72.7969 113.514 72.1934 113.514 71.332C113.514 70.4648 112.799 69.873 111.838 69.8789C110.871 69.873 110.156 70.4648 110.162 71.332ZM114.135 75.3867V74.4727H117.557V78.9258H116.467V75.3867H114.135ZM127.963 68.4961V78.9961H126.838V68.4961H127.963ZM119.338 76.1836C122.127 74.8535 123.492 72.9609 123.709 70.5117H119.842V69.6211H124.834C124.834 72.6973 123.527 75.3574 119.924 77.0859L119.338 76.1836ZM137.783 68.4961V72.6797H139.412V73.6055H137.783V78.9844H136.67V68.4961H137.783ZM129.615 76.1836C132.246 74.8711 133.676 72.9727 133.904 70.5234H130.143V69.5977H135.041C135.029 72.6328 133.693 75.3457 130.236 77.0508L129.615 76.1836ZM151.611 68.4961V74.8594H150.498V68.4961H151.611ZM143.045 70.4648V69.5625H145.693V68.4141H146.818V69.5625H149.467V70.4648H143.045ZM143.666 72.7852C143.66 71.6426 144.697 70.9102 146.256 70.9102C147.826 70.9102 148.857 71.6426 148.857 72.7852C148.857 73.9336 147.826 74.666 146.256 74.6719C144.697 74.666 143.66 73.9336 143.666 72.7852ZM144.709 78.8672V75.375H151.611V78.8672H144.709ZM144.732 72.7852C144.721 73.4355 145.324 73.8223 146.256 73.8281C147.193 73.8223 147.791 73.4355 147.803 72.7852C147.791 72.1465 147.193 71.748 146.256 71.7422C145.324 71.748 144.721 72.1465 144.732 72.7852ZM145.811 77.9648H150.521V76.2539H145.811V77.9648ZM162.861 72.7969V73.6875H153.275V72.7969H162.861ZM154.424 75.375V74.5195H161.643V77.0625H155.525V78H161.936V78.8789H154.436V76.2422H160.541V75.375H154.424ZM154.529 72.0352V68.8008H161.619V69.7031H155.643V71.1445H161.725V72.0352H154.529ZM166.494 69.2812C167.924 69.2871 168.961 70.4941 169.131 72.4336H171.299V68.4961H172.4V79.0195H171.299V73.3359H169.143C169.02 75.3867 167.959 76.6582 166.494 76.6523C164.93 76.6582 163.822 75.2285 163.834 72.9609C163.822 70.7168 164.93 69.2871 166.494 69.2812ZM164.889 72.9609C164.895 74.6309 165.545 75.6562 166.494 75.6562C167.443 75.6562 168.094 74.6309 168.1 72.9609C168.094 71.3145 167.443 70.2832 166.494 70.2773C165.545 70.2832 164.895 71.3145 164.889 72.9609ZM183.627 76.7578V77.6836H174.018V76.7578H176.314V74.0156C175.453 73.541 174.926 72.791 174.932 71.8477C174.926 70.1953 176.549 69.1113 178.799 69.1055C181.055 69.1113 182.678 70.1953 182.678 71.8477C182.678 72.7734 182.174 73.5176 181.33 73.9922V76.7578H183.627ZM176.01 71.8477C176.01 72.9727 177.152 73.7051 178.799 73.7109C180.434 73.7051 181.594 72.9727 181.6 71.8477C181.594 70.7168 180.434 69.9961 178.799 69.9961C177.152 69.9961 176.01 70.7168 176.01 71.8477ZM177.416 76.7578H180.205V74.4258C179.777 74.5254 179.303 74.5781 178.799 74.5781C178.307 74.5781 177.838 74.5254 177.416 74.4258V76.7578ZM186.322 69.5156L186.217 75.5508H185.057L184.951 69.5156H186.322ZM184.811 77.25C184.805 76.793 185.186 76.418 185.643 76.418C186.094 76.418 186.469 76.793 186.475 77.25C186.469 77.707 186.094 78.0762 185.643 78.082C185.186 78.0762 184.805 77.707 184.811 77.25Z" fill="#E2E2E2"/>
<rect x="58" y="112.5" width="236" height="35" rx="7.5" fill="#333333"/>
<rect x="58" y="112.5" width="236" height="35" rx="7.5" stroke="url(#paint2_linear_1912_8458)"/>
<path d="M77.2227 127.707C77.2227 129.342 77.9844 131.029 79.4492 131.797L78.8164 132.629C77.7969 132.09 77.0879 131.088 76.707 129.904C76.3379 131.17 75.6348 132.266 74.6211 132.852L73.9648 132.031C75.4121 131.188 76.168 129.4 76.1797 127.707V127.32H74.2344V126.395H76.1797V124.871H77.2227V126.395H79.1328V127.32H77.2227V127.707ZM79.7773 134.48V124.695H80.832V128.668H82.0859V124.496H83.1523V134.996H82.0859V129.605H80.832V134.48H79.7773ZM90.1016 125.258V126.148H86.1758V127.309H89.8086V128.188H86.1758V129.383C88.2734 129.395 89.498 129.359 90.9219 129.113L91.0391 130.016C89.5215 130.262 88.2148 130.303 85.918 130.297H85.0508V125.258H90.1016ZM86.0703 133.039C86.0703 131.814 87.4121 131.105 89.6445 131.105C91.8418 131.105 93.2129 131.814 93.2188 133.039C93.2129 134.275 91.8418 134.979 89.6445 134.973C87.4121 134.979 86.0703 134.275 86.0703 133.039ZM87.1836 133.039C87.1777 133.725 88.0801 134.111 89.6445 134.117C91.1797 134.111 92.1113 133.725 92.1055 133.039C92.1113 132.371 91.1797 131.979 89.6445 131.984C88.0801 131.979 87.1777 132.371 87.1836 133.039ZM92.0469 130.965V124.508H93.1602V130.965H92.0469ZM99.6875 131.035C101.85 131.035 103.168 131.762 103.168 133.004C103.168 134.264 101.85 134.99 99.6875 134.996C97.502 134.99 96.1602 134.264 96.1602 133.004C96.1602 131.762 97.502 131.035 99.6875 131.035ZM95.2344 130.027V125.152H96.3242V126.664H99.0781V125.152H100.18V130.027H95.2344ZM96.3242 129.137H99.0781V127.543H96.3242V129.137ZM97.2734 133.004C97.2676 133.707 98.1699 134.105 99.6875 134.105C101.193 134.105 102.084 133.707 102.078 133.004C102.084 132.307 101.193 131.914 99.6875 131.914C98.1699 131.914 97.2676 132.307 97.2734 133.004ZM101.961 130.766V124.496H103.074V127.062H104.598V128.012H103.074V130.766H101.961ZM114.23 124.496V134.996H113.164V124.496H114.23ZM105.312 129.031C105.312 126.758 106.203 125.334 107.574 125.34C108.852 125.334 109.713 126.547 109.842 128.516H111.031V124.695H112.098V134.48H111.031V129.418H109.848C109.748 131.469 108.875 132.74 107.574 132.734C106.203 132.74 105.312 131.311 105.312 129.031ZM106.344 129.031C106.344 130.701 106.818 131.686 107.574 131.68C108.348 131.686 108.828 130.701 108.828 129.031C108.828 127.355 108.348 126.377 107.574 126.383C106.818 126.377 106.344 127.355 106.344 129.031ZM119.352 127.168C119.352 129.09 120.43 131.006 122.035 131.727L121.355 132.617C120.166 132.02 119.264 130.836 118.801 129.4C118.338 130.912 117.424 132.189 116.211 132.816L115.508 131.914C117.137 131.135 118.221 129.113 118.227 127.168V125.375H119.352V127.168ZM120.875 128.891V127.988H123.219V124.496H124.32V135.02H123.219V128.891H120.875ZM132.512 127.168C132.5 129.025 133.584 130.93 135.148 131.691L134.457 132.582C133.314 131.984 132.43 130.812 131.967 129.412C131.498 130.9 130.578 132.16 129.383 132.781L128.691 131.879C130.303 131.105 131.393 129.09 131.398 127.168V125.375H132.512V127.168ZM135.934 134.996V124.496H137.047V128.68H138.734V129.629H137.047V134.996H135.934ZM143.129 126.688C143.129 128.047 144.131 129.324 145.754 129.84L145.18 130.707C143.973 130.309 143.064 129.482 142.584 128.434C142.115 129.576 141.178 130.479 139.93 130.918L139.355 130.039C140.99 129.482 141.998 128.123 142.004 126.688V126.23H139.648V125.328H145.438V126.23H143.129V126.688ZM141.078 134.773V131.445H142.203V133.871H148.262V134.773H141.078ZM146.832 132.172V124.508H147.945V132.172H146.832ZM154.391 124.672C156.758 124.666 158.135 125.305 158.141 126.477C158.135 127.654 156.758 128.293 154.391 128.293C152.023 128.293 150.635 127.654 150.641 126.477C150.635 125.305 152.023 124.666 154.391 124.672ZM149.609 129.828V128.938H159.184V129.828H149.609ZM150.758 131.469V130.637H157.977V133.098H151.859V134.035H158.27V134.891H150.77V132.289H156.875V131.469H150.758ZM151.801 126.477C151.795 127.127 152.721 127.461 154.391 127.461C156.072 127.461 156.998 127.127 156.992 126.477C156.998 125.855 156.072 125.492 154.391 125.492C152.721 125.492 151.795 125.855 151.801 126.477ZM172.52 132.77V133.695H162.91V132.77H167.141V130.613H164.012V125.211H165.125V127.016H170.281V125.211H171.383V130.613H168.242V132.77H172.52ZM165.125 129.711H170.281V127.918H165.125V129.711ZM182.234 124.508V129.863H181.18V127.637H179.867V129.84H178.824V124.695H179.867V126.734H181.18V124.508H182.234ZM173.773 129.336V125.094H174.887V128.434C175.93 128.428 176.932 128.363 178.098 128.141L178.215 129.043C176.838 129.301 175.701 129.348 174.453 129.336H173.773ZM175.191 131.199V130.309H182.234V132.957H176.328V133.977H182.633V134.867H175.215V132.113H181.133V131.199H175.191ZM191.961 125.422C191.955 126.816 193.66 128.123 195.723 128.398L195.289 129.312C193.572 129.037 192.066 128.146 191.381 126.91C190.695 128.146 189.189 129.037 187.484 129.312L187.039 128.398C189.096 128.123 190.795 126.834 190.801 125.422V124.848H191.961V125.422ZM186.582 131.258V130.344H196.156V131.258H191.891V134.996H190.801V131.258H186.582ZM203.527 131.434C203.527 132.336 203.973 133.291 204.928 133.859C205.889 133.244 206.363 132.242 206.363 131.434V130.93H207.453V131.434C207.447 132.523 208.168 133.578 209.539 134.023L208.988 134.844C207.951 134.486 207.242 133.783 206.879 132.928C206.545 133.771 205.918 134.539 204.957 134.938C203.949 134.557 203.311 133.812 202.988 132.957C202.607 133.783 201.916 134.48 200.926 134.844L200.363 134.023C201.711 133.543 202.443 132.447 202.449 131.434V130.93H203.527V131.434ZM200.094 127.566C200.1 126.096 201.283 125.088 202.895 125.082C204.5 125.088 205.684 126.096 205.684 127.566C205.684 129.02 204.5 130.027 202.895 130.027C201.283 130.027 200.1 129.02 200.094 127.566ZM201.184 127.566C201.178 128.48 201.898 129.102 202.895 129.102C203.879 129.102 204.594 128.48 204.594 127.566C204.594 126.646 203.879 126.025 202.895 126.031C201.898 126.025 201.178 126.646 201.184 127.566ZM207.477 130.484V124.508H208.59V130.484H207.477ZM215.035 125.129C217.238 125.129 218.914 126.295 218.914 128.059C218.914 129.834 217.238 130.994 215.035 130.988C212.838 130.994 211.162 129.834 211.168 128.059C211.162 126.295 212.838 125.129 215.035 125.129ZM210.254 133.637V132.711H219.863V133.637H210.254ZM212.234 128.059C212.229 129.283 213.424 130.074 215.035 130.074C216.641 130.074 217.83 129.283 217.836 128.059C217.83 126.84 216.641 126.025 215.035 126.031C213.424 126.025 212.229 126.84 212.234 128.059ZM225.98 125.387V126.277H228.266V124.508H229.379V132.16H228.266V129.441H225.98V130.355H221.105V125.387H225.98ZM222.207 129.477H224.891V126.289H222.207V129.477ZM222.523 134.773V131.457H223.648V133.871H229.613V134.773H222.523ZM225.98 128.527H228.266V127.191H225.98V128.527ZM239.258 127.625V128.773H243.523V129.676H233.914V128.773H238.156V127.625H239.258ZM234.406 127.414C236.275 127.285 237.77 126.559 237.951 125.656H234.805V124.801H242.645V125.656H239.463C239.645 126.564 241.121 127.285 243.02 127.414L242.656 128.246C240.805 128.088 239.27 127.414 238.719 126.365C238.156 127.408 236.621 128.088 234.77 128.246L234.406 127.414ZM234.805 131.82V130.965H238.156V130.039H239.258V130.965H242.609V131.82H234.805ZM235.52 133.648C235.514 132.74 236.656 132.271 238.695 132.266C240.734 132.271 241.9 132.74 241.906 133.648C241.9 134.568 240.734 135.049 238.695 135.043C236.656 135.049 235.514 134.568 235.52 133.648ZM236.656 133.648C236.645 134.07 237.383 134.293 238.695 134.281C240.031 134.293 240.752 134.07 240.758 133.648C240.752 133.227 240.031 133.033 238.695 133.027C237.383 133.033 236.645 133.227 236.656 133.648ZM248.949 125.258C248.949 126.037 248.82 126.752 248.568 127.402H250.062V124.719H251.117V130.379H250.062V128.305H248.105C247.438 129.342 246.377 130.168 244.93 130.777L244.367 129.945C246.453 129.113 247.596 127.83 247.801 126.16H244.848V125.258H248.949ZM244.871 134.129C246.213 133.648 246.969 132.535 246.969 131.516V130.883H248.035V131.516C248.023 132.43 248.475 133.373 249.424 133.947C250.385 133.32 250.848 132.301 250.859 131.516V130.883H251.938V131.516C251.932 132.605 252.664 133.684 254.023 134.129L253.484 134.949C252.447 134.58 251.738 133.871 251.375 133.004C251.047 133.848 250.42 134.627 249.441 135.031C248.439 134.65 247.807 133.895 247.49 133.027C247.115 133.865 246.418 134.574 245.434 134.949L244.871 134.129ZM252.195 130.543V124.508H253.25V130.543H252.195ZM257.516 125.281C258.945 125.287 259.982 126.494 260.152 128.434H262.32V124.496H263.422V135.02H262.32V129.336H260.164C260.041 131.387 258.98 132.658 257.516 132.652C255.951 132.658 254.844 131.229 254.855 128.961C254.844 126.717 255.951 125.287 257.516 125.281ZM255.91 128.961C255.916 130.631 256.566 131.656 257.516 131.656C258.465 131.656 259.115 130.631 259.121 128.961C259.115 127.314 258.465 126.283 257.516 126.277C256.566 126.283 255.916 127.314 255.91 128.961ZM274.648 132.758V133.684H265.039V132.758H267.336V130.016C266.475 129.541 265.947 128.791 265.953 127.848C265.947 126.195 267.57 125.111 269.82 125.105C272.076 125.111 273.699 126.195 273.699 127.848C273.699 128.773 273.195 129.518 272.352 129.992V132.758H274.648ZM267.031 127.848C267.031 128.973 268.174 129.705 269.82 129.711C271.455 129.705 272.615 128.973 272.621 127.848C272.615 126.717 271.455 125.996 269.82 125.996C268.174 125.996 267.031 126.717 267.031 127.848ZM268.438 132.758H271.227V130.426C270.799 130.525 270.324 130.578 269.82 130.578C269.328 130.578 268.859 130.525 268.438 130.426V132.758ZM277.344 125.516L277.238 131.551H276.078L275.973 125.516H277.344ZM275.832 133.25C275.826 132.793 276.207 132.418 276.664 132.418C277.115 132.418 277.49 132.793 277.496 133.25C277.49 133.707 277.115 134.076 276.664 134.082C276.207 134.076 275.826 133.707 275.832 133.25Z" fill="#E2E2E2"/>
<defs>
<linearGradient id="paint0_linear_1912_8458" x1="79.7568" y1="3.56426e-05" x2="295.772" y2="36.0001" gradientUnits="userSpaceOnUse">
<stop stop-color="#AF7400"/>
<stop offset="1" stop-color="#5A5A5A"/>
</linearGradient>
<linearGradient id="paint1_linear_1912_8458" x1="28.267" y1="56" x2="183.15" y2="74.2573" gradientUnits="userSpaceOnUse">
<stop stop-color="#AF7400"/>
<stop offset="1" stop-color="#5A5A5A"/>
</linearGradient>
<linearGradient id="paint2_linear_1912_8458" x1="89.9176" y1="112" x2="269.846" y2="136.762" gradientUnits="userSpaceOnUse">
<stop stop-color="#AF7400"/>
<stop offset="1" stop-color="#5A5A5A"/>
</linearGradient>
</defs>
</svg>
