<svg width="99" height="78" viewBox="0 0 99 78" fill="none" xmlns="http://www.w3.org/2000/svg">
<rect x="0.115234" y="0.605347" width="98.7695" height="76.6097" fill="#EFEFEF"/>
<path d="M14.6562 14.3577C14.6621 15.5002 15.3301 16.6545 16.7188 17.1819L16.0273 18.178C15.084 17.8206 14.4277 17.1409 14.0469 16.3206C13.6602 17.2639 12.9688 18.0725 11.9609 18.4944L11.2578 17.4983C12.7168 16.8538 13.3965 15.5295 13.4023 14.3577V13.0452H14.6562V14.3577ZM13.2031 21.0139C13.1973 19.7952 14.6035 19.0686 16.8359 19.0686C19.0508 19.0686 20.4629 19.7952 20.4688 21.0139C20.4629 22.2385 19.0508 22.9709 16.8359 22.9709C14.6035 22.9709 13.1973 22.2385 13.2031 21.0139ZM14.5039 21.0139C14.498 21.6409 15.3652 21.9807 16.8359 21.9749C18.2832 21.9807 19.1504 21.6409 19.1562 21.0139C19.1504 20.3928 18.2832 20.053 16.8359 20.053C15.3652 20.053 14.498 20.3928 14.5039 21.0139ZM16.8945 18.5647V12.5999H18.1133V15.0725H19.168V12.4006H20.4102V18.8928H19.168V16.1389H18.1133V18.5647H16.8945ZM30.1133 12.3889V14.967H31.543V16.0569H30.1133V18.6233H28.8125V12.3889H30.1133ZM21.6289 17.5569C22.4258 17.5569 23.3457 17.5569 24.3008 17.5334V17.0002C23.1113 16.8772 22.373 16.3909 22.3789 15.6116C22.373 14.7561 23.3809 14.2522 24.9336 14.2522C26.4863 14.2522 27.4883 14.7561 27.4883 15.6116C27.4883 16.3792 26.7676 16.8713 25.6016 16.9944V17.4866C26.5039 17.4397 27.4121 17.3694 28.2617 17.2522L28.3672 18.0725C26.0996 18.4534 23.6152 18.4709 21.7695 18.4709L21.6289 17.5569ZM21.8984 13.9944V13.1038H24.3008V12.3069H25.6016V13.1038H27.9805V13.9944H21.8984ZM23.0352 19.9241V19.0452H30.1133V21.3303H24.3594V22.01H30.4883V22.8889H23.0586V20.5217H28.8125V19.9241H23.0352ZM23.6328 15.6116C23.6211 15.9924 24.1133 16.1975 24.9336 16.1975C25.7539 16.1975 26.2461 15.9924 26.2461 15.6116C26.2461 15.26 25.7539 15.0784 24.9336 15.0725C24.1133 15.0784 23.6211 15.26 23.6328 15.6116ZM40.4727 13.01V13.7483C40.4668 14.6624 40.4668 15.8752 40.1738 17.592H41.75V18.6467H39.3594V22.9709H38.0703V18.6467H35.7031V22.9709H34.3906V18.6467H32.0938V17.592H38.8613C39.1543 16.0803 39.1895 14.9436 39.1953 14.0764H33.2773V13.01H40.4727ZM46.4844 14.7209C46.4844 15.9397 47.4219 17.1174 49.0977 17.5803L48.4883 18.5881C47.2461 18.2424 46.3555 17.51 45.8633 16.5667C45.3887 17.6038 44.4922 18.4124 43.2266 18.7874L42.5938 17.7678C44.293 17.2522 45.1836 16.0159 45.1836 14.7209V14.6038H42.9219V13.5725H45.1836V12.342H46.4961V13.5725H48.7461V14.6038H46.4844V14.7209ZM44.0586 20.4163V19.3616H51.2891V22.9827H49.9766V20.4163H44.0586ZM49.9766 18.8811V12.3889H51.2891V18.8811H49.9766Z" fill="#D68D00"/>
<line x1="12" y1="36.0167" x2="86.3099" y2="36.0167" stroke="#D0D0D0"/>
<line x1="12" y1="49.0167" x2="86.3099" y2="49.0167" stroke="#D0D0D0"/>
<line x1="12" y1="62.0167" x2="86.3099" y2="62.0167" stroke="#D0D0D0"/>
<rect x="0.115234" y="56.9836" width="98.7695" height="20.2314" fill="url(#paint0_linear_2184_4489)"/>
<defs>
<linearGradient id="paint0_linear_2184_4489" x1="49.5" y1="56.9836" x2="49.5" y2="77.2151" gradientUnits="userSpaceOnUse">
<stop stop-color="#EFEFEF" stop-opacity="0"/>
<stop offset="1" stop-color="#111111"/>
</linearGradient>
</defs>
</svg>
