<svg width="131" height="82" viewBox="0 0 131 82" fill="none" xmlns="http://www.w3.org/2000/svg">
<circle cx="12.7231" cy="29.4962" r="1.85177" transform="rotate(-14.1034 12.7231 29.4962)" fill="white"/>
<mask id="path-2-outside-1_2219_503" maskUnits="userSpaceOnUse" x="-5.37003" y="-5.57263" width="95.5769" height="58.5415" fill="black">
<rect fill="white" x="-5.37003" y="-5.57263" width="95.5769" height="58.5415"/>
<path fill-rule="evenodd" clip-rule="evenodd" d="M49.847 7.4283L54.0755 6.3342L56.2466 15.2333C56.6147 15.0912 57.0107 14.904 57.4024 14.658C59.1524 13.5596 60.0421 11.8068 60.1227 9.30136L64.4798 9.45098C64.3814 12.4868 63.438 14.6544 62.2337 16.1934L68.0722 23.3464L63.3692 24.5633L58.8105 18.9775C58.2894 19.2417 57.7824 19.4466 57.3133 19.6056L58.8105 25.7428L54.582 26.8369L49.847 7.4283ZM72.9684 10.2227C71.8149 10.5211 71.3587 10.9543 71.4315 11.4627C71.5228 12.1489 72.0516 12.223 72.862 12.1972C73.0534 12.1894 73.2489 12.1796 73.4471 12.1698L73.4471 12.1698C74.7104 12.1068 76.0863 12.0383 77.2691 12.4136C80.2874 13.3713 81.2637 17.7059 78.9484 19.9317C77.3018 21.5152 74.7597 21.9363 72.5888 21.9746C71.8403 21.9882 71.0925 21.9477 70.3475 21.873L70.3193 21.8701C70.019 21.8399 68.227 21.6594 68.2261 21.5718L68.125 17.3902C69.3806 17.8279 72.6236 18.033 74.0414 17.6662C74.1205 17.6457 74.2069 17.6269 74.297 17.6073L74.297 17.6073L74.2971 17.6073C74.7922 17.4996 75.3971 17.3681 75.5123 16.8008C75.6837 15.9578 74.4834 15.8543 73.9526 15.8335C73.6396 15.821 73.3241 15.8144 73.0075 15.8077C71.8077 15.7825 70.5927 15.7569 69.441 15.4139C67.9272 14.962 66.8894 13.677 66.6552 12.0619C66.1673 8.69542 69.1994 7.04284 71.8927 6.34596C73.7662 5.86121 75.8994 5.70406 77.5344 6.01789L77.6716 9.92782C76.4162 9.70096 74.2408 9.89476 72.9675 10.2242L72.9684 10.2227ZM35.4085 26.9626L37.0545 30.3008C35.2896 31.6397 33.3042 32.3874 31.6927 32.8044C28.6857 33.5824 25.0402 33.5908 22.9748 30.8215C20.8007 27.9041 20.8651 23.5356 23.1001 20.694C24.1589 19.3475 25.628 18.4131 27.2236 17.8948C28.9234 17.3431 30.8538 17.0661 32.5667 17.7199C34.1847 18.3377 35.2925 19.8026 35.5882 21.5471C36.1735 25.0003 33.2704 26.9719 30.4009 27.7143C28.7894 28.1313 27.4431 28.09 26.1856 27.7929C26.738 29.2331 28.5708 29.6153 31.3205 28.9038C32.5291 28.5911 34.6513 27.5752 35.4088 26.9638L35.4085 26.9626ZM31.1547 22.4049C31.103 22.1212 30.9494 21.86 30.6798 21.6816C30.1537 21.3316 29.4096 21.3274 28.8194 21.4775C27.3978 21.8389 26.124 22.9594 25.8009 24.4653C26.7799 24.7572 28.0718 24.7856 29.1621 24.5048C29.7764 24.3458 30.4425 24.0307 30.8546 23.519C31.1113 23.1993 31.2221 22.7835 31.1539 22.4064L31.1547 22.4049ZM52.2243 26.3757L50.5782 23.0375L50.5785 23.0387C49.8211 23.6501 47.6989 24.666 46.4902 24.9788C43.7405 25.6902 41.9078 25.308 41.3554 23.8678C42.6129 24.1649 43.9591 24.2062 45.5706 23.7892C48.4402 23.0468 51.3432 21.0752 50.758 17.622C50.4623 15.8775 49.3544 14.4127 47.7364 13.7948C46.0235 13.141 44.0931 13.418 42.3933 13.9697C40.7978 14.488 39.3287 15.4224 38.2698 16.7689C36.0348 19.6105 35.9705 23.979 38.1445 26.8964C40.2099 29.6657 43.8555 29.6574 46.8624 28.8793C48.4739 28.4624 50.4593 27.7146 52.2243 26.3757ZM45.8496 17.7565C46.1191 17.9349 46.2728 18.1961 46.3245 18.4798L46.3236 18.4813C46.3919 18.8584 46.281 19.2742 46.0244 19.5939C45.6123 20.1057 44.9461 20.4208 44.3318 20.5797C43.2415 20.8605 41.9497 20.8321 40.9706 20.5402C41.2938 19.0343 42.5676 17.9138 43.9891 17.5524C44.5794 17.4023 45.3234 17.4065 45.8496 17.7565ZM15.2254 22.2405L17.0667 20.2033L20.258 23.2626L18.7929 24.8835C19.4053 25.7051 19.8679 26.6655 20.1282 27.7322C20.4894 29.213 20.4129 30.7032 19.983 32.0573C20.7989 32.7563 21.6415 33.8211 22.2198 35.4355C23.1678 38.0824 22.2779 40.7869 19.8403 42.6702C18.8011 43.4728 17.517 44.0802 16.1451 44.4352L16.1442 44.4367C15.4383 44.6194 14.7085 44.7349 13.9769 44.7763C11.5837 44.912 9.3012 44.2526 7.55139 42.9204L10.1433 39.31C12.1862 40.866 15.4532 40.4476 17.2223 39.0794C18.5148 38.0811 18.2239 37.2617 18.1277 36.9908L18.1272 36.9895C17.9313 36.4427 17.6918 36.0561 17.4616 35.784C16.6455 36.4482 15.6837 36.9492 14.6112 37.2267C10.5483 38.2779 6.41261 35.7292 5.39182 31.5451C4.37104 27.361 6.84588 23.1018 10.9088 22.0506C12.3894 21.6675 13.8797 21.7625 15.2254 22.2405ZM11.9712 26.4053C10.2398 26.8532 9.18534 28.668 9.62033 30.451C10.0553 32.234 11.8175 33.32 13.5488 32.872C15.2802 32.424 16.3347 30.6093 15.8997 28.8262C15.4647 27.0432 13.7025 25.9573 11.9712 26.4053Z"/>
</mask>
<path fill-rule="evenodd" clip-rule="evenodd" d="M49.847 7.4283L54.0755 6.3342L56.2466 15.2333C56.6147 15.0912 57.0107 14.904 57.4024 14.658C59.1524 13.5596 60.0421 11.8068 60.1227 9.30136L64.4798 9.45098C64.3814 12.4868 63.438 14.6544 62.2337 16.1934L68.0722 23.3464L63.3692 24.5633L58.8105 18.9775C58.2894 19.2417 57.7824 19.4466 57.3133 19.6056L58.8105 25.7428L54.582 26.8369L49.847 7.4283ZM72.9684 10.2227C71.8149 10.5211 71.3587 10.9543 71.4315 11.4627C71.5228 12.1489 72.0516 12.223 72.862 12.1972C73.0534 12.1894 73.2489 12.1796 73.4471 12.1698L73.4471 12.1698C74.7104 12.1068 76.0863 12.0383 77.2691 12.4136C80.2874 13.3713 81.2637 17.7059 78.9484 19.9317C77.3018 21.5152 74.7597 21.9363 72.5888 21.9746C71.8403 21.9882 71.0925 21.9477 70.3475 21.873L70.3193 21.8701C70.019 21.8399 68.227 21.6594 68.2261 21.5718L68.125 17.3902C69.3806 17.8279 72.6236 18.033 74.0414 17.6662C74.1205 17.6457 74.2069 17.6269 74.297 17.6073L74.297 17.6073L74.2971 17.6073C74.7922 17.4996 75.3971 17.3681 75.5123 16.8008C75.6837 15.9578 74.4834 15.8543 73.9526 15.8335C73.6396 15.821 73.3241 15.8144 73.0075 15.8077C71.8077 15.7825 70.5927 15.7569 69.441 15.4139C67.9272 14.962 66.8894 13.677 66.6552 12.0619C66.1673 8.69542 69.1994 7.04284 71.8927 6.34596C73.7662 5.86121 75.8994 5.70406 77.5344 6.01789L77.6716 9.92782C76.4162 9.70096 74.2408 9.89476 72.9675 10.2242L72.9684 10.2227ZM35.4085 26.9626L37.0545 30.3008C35.2896 31.6397 33.3042 32.3874 31.6927 32.8044C28.6857 33.5824 25.0402 33.5908 22.9748 30.8215C20.8007 27.9041 20.8651 23.5356 23.1001 20.694C24.1589 19.3475 25.628 18.4131 27.2236 17.8948C28.9234 17.3431 30.8538 17.0661 32.5667 17.7199C34.1847 18.3377 35.2925 19.8026 35.5882 21.5471C36.1735 25.0003 33.2704 26.9719 30.4009 27.7143C28.7894 28.1313 27.4431 28.09 26.1856 27.7929C26.738 29.2331 28.5708 29.6153 31.3205 28.9038C32.5291 28.5911 34.6513 27.5752 35.4088 26.9638L35.4085 26.9626ZM31.1547 22.4049C31.103 22.1212 30.9494 21.86 30.6798 21.6816C30.1537 21.3316 29.4096 21.3274 28.8194 21.4775C27.3978 21.8389 26.124 22.9594 25.8009 24.4653C26.7799 24.7572 28.0718 24.7856 29.1621 24.5048C29.7764 24.3458 30.4425 24.0307 30.8546 23.519C31.1113 23.1993 31.2221 22.7835 31.1539 22.4064L31.1547 22.4049ZM52.2243 26.3757L50.5782 23.0375L50.5785 23.0387C49.8211 23.6501 47.6989 24.666 46.4902 24.9788C43.7405 25.6902 41.9078 25.308 41.3554 23.8678C42.6129 24.1649 43.9591 24.2062 45.5706 23.7892C48.4402 23.0468 51.3432 21.0752 50.758 17.622C50.4623 15.8775 49.3544 14.4127 47.7364 13.7948C46.0235 13.141 44.0931 13.418 42.3933 13.9697C40.7978 14.488 39.3287 15.4224 38.2698 16.7689C36.0348 19.6105 35.9705 23.979 38.1445 26.8964C40.2099 29.6657 43.8555 29.6574 46.8624 28.8793C48.4739 28.4624 50.4593 27.7146 52.2243 26.3757ZM45.8496 17.7565C46.1191 17.9349 46.2728 18.1961 46.3245 18.4798L46.3236 18.4813C46.3919 18.8584 46.281 19.2742 46.0244 19.5939C45.6123 20.1057 44.9461 20.4208 44.3318 20.5797C43.2415 20.8605 41.9497 20.8321 40.9706 20.5402C41.2938 19.0343 42.5676 17.9138 43.9891 17.5524C44.5794 17.4023 45.3234 17.4065 45.8496 17.7565ZM15.2254 22.2405L17.0667 20.2033L20.258 23.2626L18.7929 24.8835C19.4053 25.7051 19.8679 26.6655 20.1282 27.7322C20.4894 29.213 20.4129 30.7032 19.983 32.0573C20.7989 32.7563 21.6415 33.8211 22.2198 35.4355C23.1678 38.0824 22.2779 40.7869 19.8403 42.6702C18.8011 43.4728 17.517 44.0802 16.1451 44.4352L16.1442 44.4367C15.4383 44.6194 14.7085 44.7349 13.9769 44.7763C11.5837 44.912 9.3012 44.2526 7.55139 42.9204L10.1433 39.31C12.1862 40.866 15.4532 40.4476 17.2223 39.0794C18.5148 38.0811 18.2239 37.2617 18.1277 36.9908L18.1272 36.9895C17.9313 36.4427 17.6918 36.0561 17.4616 35.784C16.6455 36.4482 15.6837 36.9492 14.6112 37.2267C10.5483 38.2779 6.41261 35.7292 5.39182 31.5451C4.37104 27.361 6.84588 23.1018 10.9088 22.0506C12.3894 21.6675 13.8797 21.7625 15.2254 22.2405ZM11.9712 26.4053C10.2398 26.8532 9.18534 28.668 9.62033 30.451C10.0553 32.234 11.8175 33.32 13.5488 32.872C15.2802 32.424 16.3347 30.6093 15.8997 28.8262C15.4647 27.0432 13.7025 25.9573 11.9712 26.4053Z" fill="#FFC700"/>
<path d="M54.0755 6.3342L58.933 5.14913C58.6159 3.84913 57.7909 2.7305 56.6426 2.04349C55.4943 1.35648 54.1185 1.15842 52.823 1.49361L54.0755 6.3342ZM49.847 7.4283L48.5945 2.58771C45.9474 3.27265 44.3414 5.95697 44.9895 8.61338L49.847 7.4283ZM56.2466 15.2333L51.3891 16.4184C51.7299 17.8157 52.6561 18.9985 53.9308 19.6647C55.2055 20.3309 56.7053 20.4158 58.0471 19.8979L56.2466 15.2333ZM57.4024 14.658L54.7443 10.423L54.7425 10.4242L57.4024 14.658ZM60.1227 9.30136L60.2943 4.30431C58.9671 4.25873 57.6763 4.743 56.7066 5.6503C55.7369 6.55759 55.168 7.81338 55.1253 9.14066L60.1227 9.30136ZM64.4798 9.45098L69.4772 9.61295C69.5665 6.85673 67.4075 4.54856 64.6514 4.45392L64.4798 9.45098ZM62.2337 16.1934L58.2961 13.112C56.8559 14.9523 56.8825 17.5447 58.3602 19.3551L62.2337 16.1934ZM68.0722 23.3464L69.3247 28.187C70.9746 27.7601 72.2934 26.5223 72.8238 24.9027C73.3543 23.2832 73.0233 21.505 71.9457 20.1847L68.0722 23.3464ZM63.3692 24.5633L59.4954 27.7247C60.7298 29.2372 62.7316 29.8929 64.6216 29.4039L63.3692 24.5633ZM58.8105 18.9775L62.6843 15.8161C61.1986 13.9957 58.6458 13.4554 56.5499 14.5177L58.8105 18.9775ZM57.3133 19.6056L55.7084 14.8702C53.2534 15.7022 51.8414 18.2724 52.4557 20.7907L57.3133 19.6056ZM58.8105 25.7428L60.063 30.5834C62.7102 29.8985 64.3161 27.2142 63.6681 24.5578L58.8105 25.7428ZM54.582 26.8369L49.7245 28.022C50.0417 29.322 50.8667 30.4406 52.015 31.1277C53.1633 31.8147 54.539 32.0127 55.8345 31.6775L54.582 26.8369ZM71.4315 11.4627L76.3879 10.8036C76.3857 10.787 76.3834 10.7703 76.381 10.7536L71.4315 11.4627ZM72.9684 10.2227L77.2901 12.7371C78.3047 10.9933 78.1719 8.81055 76.9533 7.20264C75.7347 5.59472 73.6691 4.87672 71.7159 5.3821L72.9684 10.2227ZM72.862 12.1972L73.021 17.1947C73.0364 17.1942 73.0517 17.1936 73.0671 17.193L72.862 12.1972ZM73.4471 12.1698L73.4412 7.16976C73.3602 7.16985 73.2792 7.17192 73.1983 7.17595L73.4471 12.1698ZM73.4471 12.1698L73.453 17.1698C73.534 17.1697 73.615 17.1676 73.6959 17.1636L73.4471 12.1698ZM77.2691 12.4136L75.7567 17.1794L75.7569 17.1795L77.2691 12.4136ZM78.9484 19.9317L75.4832 16.3272L75.4827 16.3277L78.9484 19.9317ZM72.5888 21.9746L72.5005 16.9754L72.4979 16.9754L72.5888 21.9746ZM70.3475 21.873L69.8453 26.8477L69.8485 26.848L70.3475 21.873ZM70.3193 21.8701L70.8214 16.8954L70.8202 16.8953L70.3193 21.8701ZM68.2261 21.5718L73.2258 21.5177C73.2255 21.4954 73.2251 21.4732 73.2246 21.451L68.2261 21.5718ZM68.125 17.3902L69.7708 12.6689C68.2216 12.1288 66.5061 12.3831 65.1802 13.3494C63.8543 14.3156 63.0868 15.8709 63.1264 17.511L68.125 17.3902ZM74.0414 17.6662L75.2938 22.5068L75.2938 22.5068L74.0414 17.6662ZM74.297 17.6073L75.3595 22.4931C75.4117 22.4818 75.4636 22.4696 75.5153 22.4566L74.297 17.6073ZM74.2971 17.6073L73.2345 12.7215C73.1824 12.7328 73.1305 12.745 73.0787 12.758L74.2971 17.6073ZM75.5123 16.8008L70.6126 15.8042L70.6122 15.8061L75.5123 16.8008ZM73.9526 15.8335L73.754 20.8295L73.7565 20.8296L73.9526 15.8335ZM73.0075 15.8077L72.9023 20.8066L72.9023 20.8066L73.0075 15.8077ZM69.441 15.4139L68.0107 20.205L68.0138 20.2059L69.441 15.4139ZM66.6552 12.0619L61.7069 12.7791L61.707 12.7794L66.6552 12.0619ZM71.8927 6.34596L73.1452 11.1866L73.1452 11.1866L71.8927 6.34596ZM77.5344 6.01789L82.5313 5.84253C82.4495 3.5118 80.7673 1.54717 78.4769 1.10753L77.5344 6.01789ZM77.6716 9.92782L76.7824 14.8481C78.2707 15.1171 79.8007 14.6979 80.9442 13.7081C82.0876 12.7182 82.7216 11.2639 82.6685 9.75246L77.6716 9.92782ZM72.9675 10.2242L68.6458 7.70975C67.6312 9.4536 67.764 11.6363 68.9826 13.2443C70.2012 14.8522 72.2668 15.5702 74.22 15.0648L72.9675 10.2242ZM37.0545 30.3008L40.0764 34.2844C41.985 32.8365 42.5985 30.2382 41.539 28.0895L37.0545 30.3008ZM35.4085 26.9626L39.8929 24.7513C38.7655 22.4648 36.0982 21.3927 33.7019 22.2629C31.3056 23.133 29.9477 25.6667 30.55 28.1439L35.4085 26.9626ZM31.6927 32.8044L32.9451 37.645L31.6927 32.8044ZM22.9748 30.8215L18.9655 33.8091L18.9668 33.8108L22.9748 30.8215ZM23.1001 20.694L27.0302 23.785L27.0304 23.7847L23.1001 20.694ZM27.2236 17.8948L25.68 13.139L25.6788 13.1394L27.2236 17.8948ZM32.5667 17.7199L34.3504 13.0489L34.3495 13.0485L32.5667 17.7199ZM35.5882 21.5471L40.518 20.7116L40.5179 20.7114L35.5882 21.5471ZM30.4009 27.7143L29.1484 22.8737L30.4009 27.7143ZM26.1856 27.7929L27.3351 22.9268C25.5316 22.5008 23.6403 23.1072 22.4208 24.5026C21.2013 25.8979 20.8536 27.8533 21.5173 29.5836L26.1856 27.7929ZM31.3205 28.9038L30.068 24.0633L30.068 24.0633L31.3205 28.9038ZM35.4088 26.9638L38.5492 30.8546C40.0553 29.6389 40.7245 27.6633 40.2672 25.7826L35.4088 26.9638ZM30.6798 21.6816L27.9108 25.8448L27.9198 25.8507L30.6798 21.6816ZM31.1547 22.4049L35.4784 24.9159C36.0761 23.887 36.2871 22.6786 36.0736 21.5079L31.1547 22.4049ZM28.8194 21.4775L30.0513 26.3234L30.0521 26.3232L28.8194 21.4775ZM25.8009 24.4653L20.9122 23.4162C20.3646 25.9677 21.8714 28.5111 24.3721 29.2568L25.8009 24.4653ZM29.1621 24.5048L30.4092 29.3468L30.4146 29.3454L29.1621 24.5048ZM30.8546 23.519L34.7488 26.6552L34.7539 26.6488L30.8546 23.519ZM31.1539 22.4064L26.8302 19.8953C26.2336 20.9224 26.0222 22.1284 26.2338 23.2972L31.1539 22.4064ZM50.5782 23.0375L55.0627 20.8263C53.9358 18.541 51.2709 17.4687 48.8753 18.3365C46.4797 19.2043 45.1198 21.7346 45.718 24.2113L50.5782 23.0375ZM52.2243 26.3757L55.2461 30.3593C57.1548 28.9114 57.7682 26.3131 56.7087 24.1645L52.2243 26.3757ZM50.5785 23.0387L53.7189 26.9295C55.2229 25.7156 55.8925 23.7436 55.4388 21.8649L50.5785 23.0387ZM46.4902 24.9788L45.2377 20.1382L45.2377 20.1382L46.4902 24.9788ZM41.3554 23.8678L42.5048 19.0017C40.7013 18.5757 38.8101 19.1821 37.5906 20.5775C36.3711 21.9728 36.0233 23.9282 36.687 25.6585L41.3554 23.8678ZM45.5706 23.7892L44.3182 18.9486L45.5706 23.7892ZM50.758 17.622L55.6877 16.7865L55.6877 16.7863L50.758 17.622ZM47.7364 13.7948L49.5201 9.12377L49.5193 9.12344L47.7364 13.7948ZM42.3933 13.9697L40.8498 9.21395L40.8486 9.21433L42.3933 13.9697ZM38.2698 16.7689L42.1999 19.8599L42.2002 19.8596L38.2698 16.7689ZM38.1445 26.8964L34.1353 29.884L34.1365 29.8857L38.1445 26.8964ZM46.8624 28.8793L48.1149 33.7199L46.8624 28.8793ZM46.3245 18.4798L50.6462 20.9942C51.2453 19.9645 51.4571 18.7548 51.2434 17.5828L46.3245 18.4798ZM45.8496 17.7565L43.0806 21.9197L43.0895 21.9257L45.8496 17.7565ZM46.3236 18.4813L42.0019 15.9668C41.4038 16.9947 41.1917 18.202 41.4036 19.3721L46.3236 18.4813ZM46.0244 19.5939L49.9186 22.7301L49.9236 22.7237L46.0244 19.5939ZM44.3318 20.5797L45.579 25.4217L45.5843 25.4203L44.3318 20.5797ZM40.9706 20.5402L36.0819 19.4911C35.5344 22.0426 37.0411 24.586 39.5419 25.3317L40.9706 20.5402ZM43.9891 17.5524L45.2211 22.3983L45.2218 22.3981L43.9891 17.5524ZM17.0667 20.2033L20.5268 16.5939C19.5511 15.6586 18.2385 15.1582 16.8878 15.2065C15.5372 15.2549 14.2636 15.8479 13.3574 16.8506L17.0667 20.2033ZM15.2254 22.2405L13.5518 26.952C15.4558 27.6284 17.5798 27.0922 18.9347 25.5932L15.2254 22.2405ZM20.258 23.2626L23.9674 26.6153C25.7808 24.609 25.6703 21.5246 23.7181 19.6531L20.258 23.2626ZM18.7929 24.8835L15.0836 21.5308C13.4828 23.3018 13.3573 25.9574 14.7839 27.8715L18.7929 24.8835ZM20.1282 27.7322L15.2706 28.9172L15.2706 28.9172L20.1282 27.7322ZM19.983 32.0573L15.2174 30.5444C14.61 32.4576 15.2057 34.5486 16.7301 35.8545L19.983 32.0573ZM22.2198 35.4355L26.927 33.7497L26.9269 33.7493L22.2198 35.4355ZM19.8403 42.6702L22.8965 46.6275L22.8972 46.6269L19.8403 42.6702ZM16.1451 44.4352L14.8926 39.5946C13.6008 39.9289 12.4962 40.7656 11.8246 41.9186L16.1451 44.4352ZM16.1442 44.4367L17.3967 49.2773C18.6885 48.9431 19.7931 48.1063 20.4647 46.9533L16.1442 44.4367ZM13.9769 44.7763L13.6943 39.7843L13.6938 39.7844L13.9769 44.7763ZM7.55139 42.9204L3.48966 40.0045C1.91115 42.2033 2.36898 45.259 4.52259 46.8986L7.55139 42.9204ZM10.1433 39.31L13.1729 35.3323C12.0984 34.514 10.7386 34.1651 9.40291 34.3651C8.0672 34.5651 6.8692 35.2969 6.08156 36.3941L10.1433 39.31ZM17.2223 39.0794L14.166 35.1222L14.1633 35.1243L17.2223 39.0794ZM18.1277 36.9908L22.8394 35.3176L22.8393 35.3173L18.1277 36.9908ZM18.1272 36.9895L22.8389 35.3161C22.8373 35.3117 22.8357 35.3072 22.8341 35.3028L18.1272 36.9895ZM17.4616 35.784L21.2783 32.5541C19.5186 30.4747 16.4182 30.1866 14.3055 31.906L17.4616 35.784ZM14.6112 37.2267L13.3588 32.3861L13.3588 32.3861L14.6112 37.2267ZM5.39182 31.5451L10.2494 30.36L10.2494 30.36L5.39182 31.5451ZM10.9088 22.0506L12.1612 26.8912L12.1613 26.8912L10.9088 22.0506ZM11.9712 26.4053L13.2236 31.2459L13.2236 31.2458L11.9712 26.4053ZM13.5488 32.872L12.2964 28.0314L13.5488 32.872ZM52.823 1.49361L48.5945 2.58771L51.0995 12.2689L55.328 11.1748L52.823 1.49361ZM61.1041 14.0483L58.933 5.14913L49.218 7.51927L51.3891 16.4184L61.1041 14.0483ZM54.7425 10.4242C54.6657 10.4724 54.5659 10.5225 54.446 10.5688L58.0471 19.8979C58.6635 19.66 59.3557 19.3357 60.0622 18.8918L54.7425 10.4242ZM55.1253 9.14066C55.1025 9.85031 54.9739 10.1578 54.9304 10.2435C54.9091 10.2855 54.8937 10.3041 54.8822 10.3165C54.8698 10.33 54.8325 10.3677 54.7443 10.423L60.0604 18.8929C63.532 16.714 64.9992 13.2239 65.1201 9.46206L55.1253 9.14066ZM64.6514 4.45392L60.2943 4.30431L59.9511 14.2984L64.3082 14.448L64.6514 4.45392ZM66.1713 19.2748C68.0489 16.8755 69.3454 13.6784 69.4772 9.61295L59.4824 9.28901C59.4174 11.2953 58.8271 12.4334 58.2961 13.112L66.1713 19.2748ZM71.9457 20.1847L66.1072 13.0317L58.3602 19.3551L64.1987 26.5081L71.9457 20.1847ZM64.6216 29.4039L69.3247 28.187L66.8197 18.5058L62.1167 19.7227L64.6216 29.4039ZM54.9368 22.1389L59.4954 27.7247L67.2429 21.4019L62.6843 15.8161L54.9368 22.1389ZM58.9182 24.341C59.5858 24.1148 60.3148 23.8207 61.0712 23.4373L56.5499 14.5177C56.264 14.6627 55.979 14.7785 55.7084 14.8702L58.9182 24.341ZM63.6681 24.5578L62.1708 18.4206L52.4557 20.7907L53.953 26.9279L63.6681 24.5578ZM55.8345 31.6775L60.063 30.5834L57.5581 20.9023L53.3296 21.9964L55.8345 31.6775ZM44.9895 8.61338L49.7245 28.022L59.4396 25.6519L54.7045 6.24323L44.9895 8.61338ZM76.381 10.7536C76.487 11.4938 76.4022 12.309 76.0671 13.083C75.7467 13.823 75.2918 14.3106 74.9548 14.5935C74.3694 15.085 73.9338 15.1375 74.2209 15.0633L71.7159 5.3821C70.8495 5.60629 69.6091 6.02464 68.5254 6.93437C67.2164 8.03318 66.1553 9.89095 66.4821 12.1717L76.381 10.7536ZM72.7029 7.19976C72.5665 7.2041 72.6088 7.19724 72.7335 7.20786C72.8469 7.21751 73.2586 7.25804 73.7846 7.47515C74.3743 7.71853 75.0702 8.17049 75.6209 8.92651C76.1503 9.65317 76.3295 10.3646 76.3879 10.8036L66.4751 12.1217C66.5791 12.9038 66.8587 13.8819 67.5382 14.8147C68.2391 15.7768 69.1349 16.3743 69.9695 16.7188C71.3341 17.282 72.6966 17.205 73.021 17.1947L72.7029 7.19976ZM73.1983 7.17595C72.996 7.18602 72.8227 7.19463 72.6568 7.20144L73.0671 17.193C73.2842 17.1841 73.5017 17.1732 73.6959 17.1636L73.1983 7.17595ZM73.4412 7.16976L73.4412 7.16976L73.4529 17.1698L73.453 17.1698L73.4412 7.16976ZM78.7814 7.64785C76.5786 6.94882 74.2463 7.12374 73.1983 7.17595L73.6959 17.1636C74.3627 17.1303 74.8136 17.1108 75.2197 17.1245C75.6162 17.1379 75.7591 17.1802 75.7567 17.1794L78.7814 7.64785ZM82.4136 23.5362C85.0598 20.9923 85.6271 17.4568 84.9879 14.6039C84.3497 11.7556 82.3184 8.7701 78.7812 7.64779L75.7569 17.1795C75.5231 17.1053 75.3654 16.9717 75.2892 16.8801C75.225 16.8031 75.2249 16.7684 75.2298 16.7903C75.2346 16.8116 75.2229 16.7933 75.2417 16.7194C75.2648 16.6288 75.3336 16.4711 75.4832 16.3272L82.4136 23.5362ZM72.677 26.9738C75.1052 26.931 79.3286 26.5029 82.4141 23.5357L75.4827 16.3277C75.4289 16.3795 75.2082 16.5541 74.6313 16.7138C74.0557 16.8731 73.3269 16.9608 72.5005 16.9754L72.677 26.9738ZM69.8485 26.848C70.7428 26.9377 71.6925 26.9917 72.6797 26.9738L72.4979 16.9754C71.9882 16.9847 71.4421 16.9577 70.8465 16.8979L69.8485 26.848ZM69.8171 26.8448L69.8453 26.8477L70.8496 16.8982L70.8214 16.8954L69.8171 26.8448ZM63.2264 21.626C63.2501 23.8198 64.619 25.0722 64.9938 25.3907C65.4943 25.8158 65.9627 26.0417 66.1435 26.1255C66.5497 26.3139 66.8976 26.408 67.0037 26.4365C67.284 26.512 67.5402 26.5575 67.6641 26.5788C67.9585 26.6295 68.2881 26.6728 68.5489 26.705C69.0959 26.7724 69.6689 26.8299 69.8184 26.845L70.8202 16.8953C70.6693 16.8801 70.1962 16.8323 69.7719 16.78C69.547 16.7523 69.4097 16.7323 69.3585 16.7234C69.3096 16.715 69.4233 16.7318 69.6043 16.7806C69.6606 16.7958 69.9696 16.877 70.3494 17.053C70.5169 17.1307 70.9752 17.3506 71.4688 17.7699C71.8367 18.0826 73.2021 19.3293 73.2258 21.5177L63.2264 21.626ZM63.1264 17.511L63.2275 21.6927L73.2246 21.451L73.1235 17.2693L63.1264 17.511ZM72.7889 12.8256C72.9087 12.7946 72.8247 12.8271 72.4517 12.8453C72.1262 12.8612 71.7202 12.8597 71.2846 12.8368C70.8501 12.814 70.4431 12.7729 70.118 12.7244C69.7429 12.6684 69.6564 12.629 69.7708 12.6689L66.4791 22.1115C67.7971 22.571 69.5006 22.7569 70.7601 22.823C72.0091 22.8886 73.8104 22.8906 75.2938 22.5068L72.7889 12.8256ZM73.2344 12.7215C73.1668 12.7362 72.9804 12.7761 72.7889 12.8256L75.2938 22.5068C75.2799 22.5104 75.2707 22.5126 75.2677 22.5133C75.2646 22.5141 75.2656 22.5138 75.272 22.5123C75.2786 22.5109 75.2884 22.5087 75.3035 22.5053C75.3192 22.5019 75.336 22.4982 75.3595 22.4931L73.2344 12.7215ZM73.0787 12.758L73.0786 12.758L75.5153 22.4566L75.5154 22.4566L73.0787 12.758ZM73.0787 12.758L73.0787 12.758L75.5154 22.4566L75.5155 22.4566L73.0787 12.758ZM70.6122 15.8061C70.7551 15.1022 71.0813 14.4388 71.5521 13.8912C71.9949 13.3763 72.4598 13.0849 72.7565 12.932C73.0452 12.7831 73.2642 12.7199 73.3154 12.7053C73.3613 12.6923 73.3821 12.6894 73.2345 12.7215L75.3597 22.4931C75.4657 22.47 76.4189 22.2944 77.3379 21.8208C78.4755 21.2344 79.9671 19.9888 80.4123 17.7955L70.6122 15.8061ZM73.7565 20.8296C74.0003 20.8392 73.6898 20.8652 73.1872 20.6703C72.9138 20.5642 72.105 20.2135 71.4198 19.3025C70.5864 18.1947 70.3944 16.877 70.6126 15.8042L80.4119 17.7974C80.7159 16.3031 80.4381 14.6563 79.4113 13.2913C78.5327 12.1232 77.4227 11.5873 76.8044 11.3474C75.6118 10.8847 74.4358 10.8486 74.1487 10.8373L73.7565 20.8296ZM72.9023 20.8066C73.227 20.8134 73.4956 20.8192 73.754 20.8295L74.1512 10.8374C73.7836 10.8228 73.4212 10.8153 73.1126 10.8088L72.9023 20.8066ZM68.0138 20.2059C69.9219 20.7742 71.8243 20.7839 72.9023 20.8066L73.1126 10.8088C71.7911 10.781 71.2635 10.7397 70.8682 10.6219L68.0138 20.2059ZM61.707 12.7794C62.1942 16.1399 64.4614 19.1454 68.0107 20.205L70.8712 10.6228C71.0813 10.6855 71.2831 10.82 71.4259 10.9931C71.5622 11.1584 71.5967 11.2979 71.6035 11.3445L61.707 12.7794ZM70.6403 1.50537C68.9248 1.94922 66.6285 2.80016 64.7547 4.46979C62.664 6.33265 61.1867 9.18944 61.7069 12.7791L71.6035 11.3448C71.6006 11.3247 71.6185 11.4875 71.5263 11.7162C71.4445 11.9191 71.3519 11.9853 71.4073 11.9359C71.4744 11.8761 71.6495 11.7465 71.9822 11.5914C72.3078 11.4396 72.7048 11.3005 73.1452 11.1866L70.6403 1.50537ZM78.4769 1.10753C75.923 0.617319 73.0154 0.890823 70.6402 1.50537L73.1452 11.1866C74.517 10.8316 75.8758 10.7908 76.5918 10.9283L78.4769 1.10753ZM82.6685 9.75246L82.5313 5.84253L72.5375 6.19326L72.6747 10.1032L82.6685 9.75246ZM74.22 15.0648C74.4905 14.9948 75.0398 14.9005 75.6816 14.8548C75.9847 14.8332 76.2576 14.8262 76.4788 14.8309C76.7168 14.836 76.8093 14.853 76.7824 14.8481L78.5608 5.00752C77.3362 4.78622 76.0019 4.80658 74.9709 4.88004C73.8928 4.95686 72.7178 5.12416 71.715 5.38362L74.22 15.0648ZM68.6466 7.70824L68.6458 7.70975L77.2893 12.7387L77.2901 12.7371L68.6466 7.70824ZM41.539 28.0895L39.8929 24.7513L30.924 29.1739L32.5701 32.5121L41.539 28.0895ZM32.9451 37.645C34.9511 37.126 37.6135 36.1526 40.0764 34.2844L34.0327 26.3173C32.9656 27.1268 31.6573 27.6489 30.4402 27.9638L32.9451 37.645ZM18.9668 33.8108C22.991 39.2064 29.5506 38.5233 32.9451 37.645L30.4402 27.9638C29.3425 28.2479 28.4116 28.3084 27.7692 28.2058C27.227 28.1192 27.0811 27.964 26.9827 27.8322L18.9668 33.8108ZM19.17 17.6029C15.5387 22.2199 15.4413 29.0799 18.9655 33.8091L26.984 27.8338C26.1602 26.7283 26.1914 24.8514 27.0302 23.785L19.17 17.6029ZM25.6788 13.1394C23.2819 13.918 20.927 15.3687 19.1698 17.6033L27.0304 23.7847C27.3909 23.3263 27.9742 22.9082 28.7683 22.6502L25.6788 13.1394ZM34.3495 13.0485C31.0647 11.7949 27.8057 12.4491 25.68 13.139L28.7671 22.6506C29.3406 22.4645 29.8226 22.3692 30.2003 22.3457C30.5701 22.3227 30.7391 22.3742 30.7838 22.3912L34.3495 13.0485ZM40.5179 20.7114C39.9583 17.41 37.7929 14.3635 34.3504 13.0489L30.7829 22.3909C30.7477 22.3774 30.7132 22.3583 30.6839 22.3363C30.6553 22.3149 30.6387 22.2963 30.6314 22.2869C30.6177 22.2693 30.6437 22.2948 30.6586 22.3827L40.5179 20.7114ZM31.6534 32.5549C33.6288 32.0438 35.9898 31.0296 37.8362 29.1722C39.8549 27.1414 41.1098 24.2042 40.518 20.7116L30.6585 22.3825C30.673 22.4679 30.6477 22.3889 30.7002 22.2362C30.7468 22.101 30.8005 22.0655 30.744 22.1223C30.6772 22.1894 30.5155 22.3232 30.2154 22.4777C29.9196 22.6301 29.5543 22.7687 29.1484 22.8737L31.6534 32.5549ZM25.0362 32.659C27.0582 33.1366 29.2294 33.1821 31.6534 32.5549L29.1484 22.8737C28.3494 23.0805 27.8281 23.0433 27.3351 22.9268L25.0362 32.659ZM30.068 24.0633C29.607 24.1825 29.2779 24.231 29.069 24.2464C28.8526 24.2623 28.8409 24.2371 28.9768 24.2662C29.1218 24.2973 29.4868 24.4032 29.9021 24.7258C30.3447 25.0698 30.6721 25.5282 30.854 26.0023L21.5173 29.5836C22.5216 32.2021 24.723 33.5817 26.8813 34.0442C28.8242 34.4606 30.8312 34.1951 32.5729 33.7444L30.068 24.0633ZM32.2684 23.0731C32.3784 22.9843 32.3644 23.0108 32.1321 23.144C31.937 23.256 31.6787 23.3913 31.385 23.5311C31.0931 23.6701 30.8009 23.7969 30.543 23.8976C30.2689 24.0047 30.1103 24.0523 30.068 24.0633L32.5729 33.7444C33.6208 33.4733 34.7802 32.99 35.6826 32.5605C36.5231 32.1605 37.6895 31.5485 38.5492 30.8546L32.2684 23.0731ZM30.55 28.1439L30.5503 28.1451L40.2672 25.7826L40.2669 25.7814L30.55 28.1439ZM27.9198 25.8507C26.9653 25.2189 26.4085 24.2486 26.2358 23.3018L36.0736 21.5079C35.7975 19.9938 34.9334 18.5011 33.4399 17.5124L27.9198 25.8507ZM30.0521 26.3232C29.8808 26.3667 29.6612 26.399 29.375 26.3761C29.0998 26.3541 28.5359 26.2605 27.9109 25.8448L33.4488 17.5183C31.259 16.0619 28.8551 16.3092 27.5867 16.6318L30.0521 26.3232ZM30.6896 25.5144C30.6179 25.8483 30.4572 26.0569 30.3555 26.1543C30.2639 26.242 30.1693 26.2934 30.0513 26.3234L27.5875 16.6316C24.6441 17.3799 21.6987 19.751 20.9122 23.4162L30.6896 25.5144ZM27.915 19.6628C27.8504 19.6795 27.7035 19.7031 27.5127 19.7004C27.425 19.6991 27.3493 19.6924 27.2915 19.6842C27.232 19.6757 27.2118 19.6685 27.2296 19.6738L24.3721 29.2568C26.25 29.8168 28.4677 29.8468 30.4092 29.3468L27.915 19.6628ZM26.9605 20.3829C27.2572 20.0144 27.5449 19.8347 27.6695 19.7659C27.8003 19.6938 27.8826 19.6712 27.9096 19.6642L30.4146 29.3454C31.5523 29.051 33.3903 28.342 34.7488 26.6552L26.9605 20.3829ZM26.2338 23.2972C26.0268 22.1536 26.3685 21.1204 26.9554 20.3892L34.7539 26.6488C35.8541 25.2782 36.4175 23.4134 36.0739 21.5156L26.2338 23.2972ZM26.831 19.8938L26.8302 19.8953L35.4776 24.9175L35.4784 24.9159L26.831 19.8938ZM46.0938 25.2488L47.7398 28.587L56.7087 24.1645L55.0627 20.8263L46.0938 25.2488ZM55.4388 21.8649L55.4385 21.8637L45.718 24.2113L45.7183 24.2126L55.4388 21.8649ZM47.7427 29.8193C48.7905 29.5482 49.95 29.0649 50.8524 28.6354C51.6929 28.2354 52.8592 27.6234 53.7189 26.9295L47.4381 19.148C47.5482 19.0592 47.5341 19.0857 47.3019 19.2189C47.1068 19.3309 46.8484 19.4662 46.5548 19.606C46.2628 19.745 45.9706 19.8718 45.7127 19.9725C45.4386 20.0796 45.28 20.1272 45.2377 20.1382L47.7427 29.8193ZM36.687 25.6585C37.6914 28.277 39.8927 29.6566 42.0511 30.1191C43.9939 30.5355 46.001 30.27 47.7427 29.8193L45.2377 20.1382C44.7767 20.2574 44.4476 20.306 44.2388 20.3213C44.0223 20.3372 44.0106 20.312 44.1465 20.3412C44.2915 20.3722 44.6566 20.4781 45.0718 20.8007C45.5145 21.1447 45.8419 21.6031 46.0237 22.0772L36.687 25.6585ZM44.3182 18.9486C43.5191 19.1554 42.9979 19.1182 42.5048 19.0017L40.2059 28.7339C42.2279 29.2115 44.3991 29.257 46.8231 28.6298L44.3182 18.9486ZM45.8283 18.4574C45.8428 18.5428 45.8174 18.4638 45.87 18.3111C45.9165 18.1759 45.9702 18.1404 45.9138 18.1972C45.847 18.2644 45.6852 18.3981 45.3852 18.5526C45.0893 18.705 44.724 18.8436 44.3182 18.9486L46.8231 28.6298C48.7986 28.1187 51.1596 27.1045 53.0059 25.2471C55.0246 23.2163 56.2796 20.2791 55.6877 16.7865L45.8283 18.4574ZM45.9527 18.4658C45.9174 18.4523 45.883 18.4332 45.8536 18.4112C45.825 18.3898 45.8084 18.3712 45.8011 18.3618C45.7874 18.3443 45.8134 18.3697 45.8283 18.4577L55.6877 16.7863C55.128 13.4849 52.9626 10.4384 49.5201 9.12377L45.9527 18.4658ZM43.9369 18.7255C44.5103 18.5394 44.9924 18.4441 45.37 18.4206C45.7398 18.3976 45.9089 18.4491 45.9535 18.4661L49.5193 9.12344C46.2345 7.86977 42.9755 8.52401 40.8498 9.21395L43.9369 18.7255ZM42.2002 19.8596C42.5606 19.4012 43.1439 18.9831 43.938 18.7251L40.8486 9.21433C38.4516 9.99295 36.0967 11.4436 34.3395 13.6782L42.2002 19.8596ZM42.1537 23.9087C41.3299 22.8032 41.3612 20.9263 42.1999 19.8599L34.3398 13.6778C30.7085 18.2948 30.6111 25.1548 34.1353 29.884L42.1537 23.9087ZM45.6099 24.0387C44.5122 24.3228 43.5814 24.3833 42.939 24.2807C42.3967 24.1941 42.2508 24.0389 42.1525 23.9071L34.1365 29.8857C38.1608 35.2813 44.7203 34.5982 48.1149 33.7199L45.6099 24.0387ZM49.2025 22.3922C48.1353 23.2017 46.827 23.7238 45.6099 24.0387L48.1149 33.7199C50.1208 33.2009 52.7833 32.2275 55.2461 30.3593L49.2025 22.3922ZM51.2434 17.5828C50.9673 16.0687 50.1032 14.576 48.6096 13.5873L43.0895 21.9257C42.1351 21.2938 41.5782 20.3235 41.4056 19.3767L51.2434 17.5828ZM50.6454 20.9957L50.6462 20.9942L42.0027 15.9653L42.0019 15.9668L50.6454 20.9957ZM49.9236 22.7237C51.0238 21.3531 51.5872 19.4883 51.2436 17.5905L41.4036 19.3721C41.1966 18.2286 41.5382 17.1953 42.1251 16.4641L49.9236 22.7237ZM45.5843 25.4203C46.7221 25.1259 48.5601 24.4169 49.9186 22.7301L42.1302 16.4578C42.4269 16.0893 42.7146 15.9096 42.8392 15.8409C42.9701 15.7687 43.0524 15.7461 43.0794 15.7391L45.5843 25.4203ZM39.5419 25.3317C41.4198 25.8917 43.6375 25.9217 45.579 25.4217L43.0847 15.7377C43.0201 15.7544 42.8732 15.7781 42.6824 15.7753C42.5947 15.774 42.519 15.7673 42.4613 15.7591C42.4018 15.7506 42.3815 15.7434 42.3994 15.7487L39.5419 25.3317ZM42.7572 12.7065C39.8138 13.4548 36.8684 15.8259 36.0819 19.4911L45.8593 21.5893C45.7877 21.9232 45.627 22.1318 45.5252 22.2292C45.4336 22.3169 45.3391 22.3683 45.2211 22.3983L42.7572 12.7065ZM48.6186 13.5932C46.4288 12.1368 44.0249 12.3841 42.7565 12.7067L45.2218 22.3981C45.0505 22.4417 44.8309 22.4739 44.5448 22.451C44.2695 22.429 43.7056 22.3354 43.0806 21.9197L48.6186 13.5932ZM13.3574 16.8506L11.5161 18.8877L18.9347 25.5932L20.7761 23.5561L13.3574 16.8506ZM23.7181 19.6531L20.5268 16.5939L13.6067 23.8128L16.798 26.872L23.7181 19.6531ZM22.5023 28.2362L23.9674 26.6153L16.5487 19.9098L15.0836 21.5308L22.5023 28.2362ZM24.9857 26.5471C24.5647 24.8212 23.8106 23.2489 22.8019 21.8956L14.7839 27.8715C14.9999 28.1612 15.1712 28.5097 15.2706 28.9172L24.9857 26.5471ZM24.7486 33.5702C25.4473 31.3693 25.5709 28.9458 24.9857 26.5471L15.2706 28.9172C15.408 29.4802 15.3784 30.0372 15.2174 30.5444L24.7486 33.5702ZM26.9269 33.7493C26.0489 31.2984 24.6966 29.5115 23.2359 28.2602L16.7301 35.8545C16.9011 36.001 17.2341 36.3439 17.5127 37.1217L26.9269 33.7493ZM22.8972 46.6269C26.8276 43.5903 28.6957 38.6883 26.927 33.7497L17.5126 37.1213C17.6231 37.43 17.6001 37.6246 17.55 37.7769C17.4926 37.9515 17.3161 38.302 16.7834 38.7135L22.8972 46.6269ZM17.3976 49.2758C19.3515 48.7702 21.2655 47.887 22.8965 46.6275L16.7841 38.713C16.3367 39.0585 15.6825 39.3903 14.8926 39.5946L17.3976 49.2758ZM20.4647 46.9533L20.4656 46.9518L11.8246 41.9186L11.8237 41.9201L20.4647 46.9533ZM14.2594 49.7683C15.3249 49.708 16.3794 49.5405 17.3967 49.2773L14.8917 39.5961C14.4971 39.6982 14.0921 39.7618 13.6943 39.7843L14.2594 49.7683ZM4.52259 46.8986C7.30795 49.0193 10.792 49.9649 14.2599 49.7683L13.6938 39.7844C12.3753 39.8591 11.2945 39.486 10.5802 38.9422L4.52259 46.8986ZM6.08156 36.3941L3.48966 40.0045L11.6131 45.8363L14.205 42.2259L6.08156 36.3941ZM14.1633 35.1243C14.1995 35.0963 14.1501 35.141 13.992 35.1969C13.8404 35.2504 13.6573 35.2895 13.4725 35.3011C13.287 35.3127 13.1585 35.2933 13.0965 35.2775C13.0391 35.2629 13.0824 35.2635 13.1729 35.3323L7.1137 43.2876C9.32944 44.9752 11.9423 45.4167 14.0985 45.2815C16.2391 45.1472 18.4938 44.4169 20.2812 43.0345L14.1633 35.1243ZM13.4159 38.6639C13.4283 38.6987 13.3264 38.4296 13.2698 38.071C13.21 37.6924 13.198 37.2294 13.3038 36.7287C13.533 35.6439 14.1341 35.1468 14.166 35.1222L20.2786 43.0366C21.603 42.0136 22.7049 40.6078 23.0878 38.796C23.4633 37.0185 22.9539 35.64 22.8394 35.3176L13.4159 38.6639ZM13.4156 38.663L13.416 38.6642L22.8393 35.3173L22.8389 35.3161L13.4156 38.663ZM13.6448 39.014C13.4614 38.7973 13.4118 38.6524 13.4204 38.6763L22.8341 35.3028C22.4508 34.233 21.9221 33.3149 21.2783 32.5541L13.6448 39.014ZM15.8637 42.0673C17.6545 41.6039 19.2615 40.7657 20.6176 39.6621L14.3055 31.906C14.0295 32.1306 13.7129 32.2945 13.3588 32.3861L15.8637 42.0673ZM0.534293 32.7302C2.18627 39.5015 8.98116 43.8481 15.8637 42.0673L13.3588 32.3861C12.1155 32.7078 10.639 31.957 10.2494 30.36L0.534293 32.7302ZM9.6563 17.21C2.8312 18.9759 -1.10603 26.0066 0.534293 32.7302L10.2494 30.36C9.84811 28.7153 10.8606 27.2277 12.1612 26.8912L9.6563 17.21ZM16.8991 17.5289C14.6456 16.7284 12.1365 16.5682 9.65629 17.21L12.1613 26.8912C12.6423 26.7667 13.1138 26.7965 13.5518 26.952L16.8991 17.5289ZM14.4779 29.2659C14.6624 30.0224 14.2545 30.9791 13.2236 31.2459L10.7187 21.5647C6.22516 22.7273 3.70827 27.3136 4.7628 31.6361L14.4779 29.2659ZM12.2964 28.0314C13.3847 27.7498 14.2817 28.4617 14.4779 29.2659L4.7628 31.6361C5.82898 36.0063 10.2503 38.8901 14.8013 37.7126L12.2964 28.0314ZM11.0421 30.0113C10.8576 29.2549 11.2655 28.2981 12.2964 28.0314L14.8013 37.7126C19.2948 36.5499 21.8117 31.9636 20.7572 27.6412L11.0421 30.0113ZM13.2236 31.2458C12.1353 31.5274 11.2383 30.8155 11.0421 30.0113L20.7572 27.6412C19.691 23.271 15.2697 20.3871 10.7187 21.5647L13.2236 31.2458Z" fill="white" mask="url(#path-2-outside-1_2219_503)"/>
<path d="M127.871 46.252C127.532 44.2631 126.352 42.5171 124.632 41.4619L110.12 32.5569C107.13 30.7216 103.242 31.3842 101.028 34.1066L90.286 47.3161C89.0131 48.8815 88.4774 50.9199 88.8165 52.9088L90.6947 63.9284C91.3443 67.7394 94.9604 70.3023 98.7714 69.6527L124.025 65.3482C127.836 64.6986 130.399 61.0825 129.75 57.2715L127.871 46.252Z" fill="white"/>
<path d="M104.497 60.0629C108.727 59.3205 111.571 55.1878 110.85 50.8323C110.129 46.4767 106.116 43.5477 101.887 44.2901C97.6574 45.0325 94.8132 49.1652 95.5341 53.5207C96.255 57.8762 100.268 60.8053 104.497 60.0629Z" fill="#68C8C8"/>
<path d="M116.269 62.0074C120.499 61.265 123.343 57.1323 122.622 52.7768C121.901 48.4213 117.888 45.4922 113.659 46.2346C109.429 46.977 106.585 51.1097 107.306 55.4652C108.027 59.8208 112.04 62.7498 116.269 62.0074Z" fill="#FFC700"/>
<path d="M97.3895 60.6993C97.9857 57.9222 97.3081 55.0241 95.5424 52.7993L84.371 38.7233C81.5481 35.1665 76.6027 34.1047 72.5686 36.1893L56.6037 44.4389L57.7514 46.6599L56.6037 44.4389C54.0804 45.7429 52.2728 48.1074 51.6766 50.8845L49.4015 61.481C48.3001 66.6108 51.5657 71.6622 56.6955 72.7636L83.8317 78.5899C88.9615 79.6913 94.0129 76.4256 95.1143 71.2958L97.3895 60.6993Z" fill="#FFC700" stroke="white" stroke-width="5"/>
<path fill-rule="evenodd" clip-rule="evenodd" d="M75.7673 68.0065C74.8689 67.9883 73.9686 67.8887 73.0904 67.7138L72.8645 67.6654C72.7226 67.6349 72.5039 67.5884 72.3214 67.5496L71.9979 67.481L71.995 67.4804L71.9929 67.4799L71.9905 67.4794L71.695 67.4151C71.5269 67.3786 71.3226 67.3343 71.1805 67.3038L70.9547 67.2553C70.0821 67.0543 69.2202 66.7755 68.3935 66.4233C65.7738 65.3076 63.6463 63.521 62.2932 61.3608L66.142 59.3741C67.7247 61.6192 70.5197 62.7283 72.9325 63.2463C75.2615 63.7464 78.3329 63.8982 80.7131 62.5016L83.4081 65.8943C81.2876 67.3087 78.6141 68.0645 75.7673 68.0065Z" fill="#333333"/>
<ellipse cx="70.389" cy="52.1488" rx="2.87736" ry="3.19012" transform="rotate(12.1178 70.389 52.1488)" fill="#333333"/>
<ellipse cx="79.8073" cy="54.1709" rx="2.87736" ry="3.19012" transform="rotate(12.1178 79.8073 54.1709)" fill="#333333"/>
</svg>
