<svg width="32" height="32" viewBox="0 0 32 32" fill="none" xmlns="http://www.w3.org/2000/svg">
<path fill-rule="evenodd" clip-rule="evenodd" d="M17.3334 6.66667C17.3334 5.93029 16.7364 5.33334 16 5.33334C15.2637 5.33334 14.6667 5.93029 14.6667 6.66667V14.6667H6.66671C5.93033 14.6667 5.33337 15.2636 5.33337 16C5.33337 16.7364 5.93033 17.3333 6.66671 17.3333H14.6667V25.3333C14.6667 26.0697 15.2637 26.6667 16 26.6667C16.7364 26.6667 17.3334 26.0697 17.3334 25.3333V17.3333H25.3334C26.0698 17.3333 26.6667 16.7364 26.6667 16C26.6667 15.2636 26.0698 14.6667 25.3334 14.6667H17.3334V6.66667Z" fill="#B7B7B7"/>
</svg>
