<svg width="52" height="52" viewBox="0 0 52 52" fill="none" xmlns="http://www.w3.org/2000/svg">
<circle cx="26" cy="26" r="26" fill="#EFFAE7"/>
<path d="M35.2117 17.6449H16.7883C15.3348 17.6449 14.1564 18.8232 14.1564 20.2768V33.4363C14.1564 34.8899 15.3348 36.0682 16.7883 36.0682H35.2117C36.6652 36.0682 37.8436 34.8899 37.8436 33.4363V20.2768C37.8436 18.8232 36.6652 17.6449 35.2117 17.6449Z" fill="#A8E898"/>
<path d="M26 32.7783C29.2705 32.7783 31.9218 30.127 31.9218 26.8565C31.9218 23.586 29.2705 20.9347 26 20.9347C22.7295 20.9347 20.0782 23.586 20.0782 26.8565C20.0782 30.127 22.7295 32.7783 26 32.7783Z" fill="#EFFAE7"/>
<path d="M26 30.8043C28.1803 30.8043 29.9478 29.0367 29.9478 26.8564C29.9478 24.6761 28.1803 22.9085 26 22.9085C23.8196 22.9085 22.0521 24.6761 22.0521 26.8564C22.0521 29.0367 23.8196 30.8043 26 30.8043Z" fill="#A8E898"/>
<path d="M19.4203 18.1319L20.3677 16.2238C20.5915 15.7764 21.052 15.5 21.5521 15.5H30.4479C30.948 15.5 31.4086 15.7764 31.6191 16.2238L32.5666 18.1319H19.4203Z" fill="#A8E898"/>
</svg>
