<svg width="52" height="52" viewBox="0 0 52 52" fill="none" xmlns="http://www.w3.org/2000/svg">
<circle cx="26" cy="26" r="26" fill="#FFF4CD"/>
<path d="M33 15.5H19C17.067 15.5 15.5 17.067 15.5 19V33C15.5 34.933 17.067 36.5 19 36.5H33C34.933 36.5 36.5 34.933 36.5 33V19C36.5 17.067 34.933 15.5 33 15.5Z" fill="#FFC700"/>
<path d="M22.5117 24.775L18.7667 31.25C18.3233 32.0317 18.8833 33 19.7817 33H27.26C28.1583 33 28.7183 32.0317 28.275 31.25L24.53 24.775C24.0867 23.9933 22.955 23.9933 22.5117 24.775Z" fill="#FFF4CD"/>
<path d="M28.7067 26.9217L26.21 31.25C25.7667 32.0317 26.3267 33 27.225 33H32.23C33.1283 33 33.6883 32.0317 33.245 31.25L30.7483 26.9217C30.305 26.14 29.1733 26.14 28.73 26.9217H28.7067Z" fill="#FFF4CD"/>
<path d="M31.25 22.5C32.2165 22.5 33 21.7165 33 20.75C33 19.7835 32.2165 19 31.25 19C30.2835 19 29.5 19.7835 29.5 20.75C29.5 21.7165 30.2835 22.5 31.25 22.5Z" fill="#FFF4CD"/>
</svg>
