<svg width="52" height="52" viewBox="0 0 52 52" fill="none" xmlns="http://www.w3.org/2000/svg">
<circle cx="26" cy="26" r="26" fill="#DDEBF5"/>
<path d="M28.9866 16.6667H17.8333C15.9003 16.6667 14.3333 18.2337 14.3333 20.1667V31.32C14.3333 33.253 15.9003 34.82 17.8333 34.82H28.9866C30.9196 34.82 32.4866 33.253 32.4866 31.32V20.1667C32.4866 18.2337 30.9196 16.6667 28.9866 16.6667Z" fill="#A2C9ED"/>
<path d="M20.4583 24.565L17.0983 30.3867C16.7367 31.005 17.1917 31.7867 17.9033 31.7867H24.6233C25.3467 31.7867 25.79 31.005 25.4283 30.3867L22.0683 24.565C21.7067 23.9467 20.8083 23.9467 20.4467 24.565H20.4583Z" fill="#DDEBF5"/>
<path d="M25.8134 26.42L23.5267 30.3867C23.165 31.005 23.62 31.7867 24.3317 31.7867H28.9167C29.64 31.7867 30.0834 31.005 29.7217 30.3867L27.435 26.42C27.0734 25.8017 26.175 25.8017 25.8134 26.42Z" fill="#DDEBF5"/>
<path d="M32.4867 23.1533L35.8 21.4967C36.6634 21.065 37.6784 21.695 37.6784 22.6517V30.1183C37.6784 31.0867 36.6634 31.705 35.8 31.2733L32.4867 29.6167V23.13V23.1533Z" fill="#A2C9ED"/>
</svg>
