<svg width="28" height="28" viewBox="0 0 28 28" fill="none" xmlns="http://www.w3.org/2000/svg">
<path d="M6.41659 4.66675H21.5833C22.8666 4.66675 23.9166 5.71675 23.9166 7.00008V12.8334H4.08325V7.00008C4.08325 5.71675 5.13325 4.66675 6.41659 4.66675Z" fill="#D0D0D0"/>
<path d="M23.3333 11.3984H4.66659C3.37792 11.3984 2.33325 12.4431 2.33325 13.7318V18.4918C2.33325 19.7804 3.37792 20.8251 4.66659 20.8251H23.3333C24.6219 20.8251 25.6666 19.7804 25.6666 18.4918V13.7318C25.6666 12.4431 24.6219 11.3984 23.3333 11.3984Z" fill="#D0D0D0"/>
<path d="M6.99992 8.70337H12.2499C12.8916 8.70337 13.4166 9.22837 13.4166 9.87004V11.3984H5.83325V9.87004C5.83325 9.22837 6.35825 8.70337 6.99992 8.70337Z" fill="#949494"/>
<path d="M6.00828 23.3333H5.64661C5.09828 23.3333 4.65495 22.8899 4.65495 22.3416V20.9999H6.98828V22.3416C6.98828 22.8899 6.54495 23.3333 5.99661 23.3333H6.00828Z" fill="#949494"/>
<path d="M22.3418 23.3333H21.9801C21.4318 23.3333 20.9884 22.8899 20.9884 22.3416V19.8333H23.3218V22.3416C23.3218 22.8899 22.8784 23.3333 22.3301 23.3333H22.3418Z" fill="#949494"/>
<path d="M15.7499 8.70337H20.9999C21.6416 8.70337 22.1666 9.22837 22.1666 9.87004V11.3984H14.5833V9.87004C14.5833 9.22837 15.1083 8.70337 15.7499 8.70337Z" fill="#949494"/>
<path d="M2.33325 17.5H25.6666V19.8333C25.6666 21.1167 24.6166 22.1667 23.3333 22.1667H4.66659C3.38325 22.1667 2.33325 21.1167 2.33325 19.8333V17.5Z" fill="#D0D0D0"/>
<path d="M2.33325 19.8333H25.6666C25.6666 21.1166 24.6166 22.1666 23.3333 22.1666H4.66659C3.38325 22.1666 2.33325 21.1166 2.33325 19.8333Z" fill="#949494"/>
</svg>
