<svg width="24" height="24" viewBox="0 0 24 24" fill="none" xmlns="http://www.w3.org/2000/svg">
<path fill-rule="evenodd" clip-rule="evenodd" d="M12 5C9.24228 5 7 7.24228 7 10V10.5V16.87C7 17.52 6.38 18.01 5.75 17.84C3.59 17.28 2 15.33 2 13C2 10.8745 3.3285 9.05735 5.19991 8.33423C5.94846 5.27453 8.71161 3 12 3C15.2884 3 18.0515 5.27453 18.8001 8.33423C20.6715 9.05735 22 10.8745 22 13C22 15.0143 20.8116 16.7521 19.094 17.5414L16.8 20.6001C16.6111 20.8519 16.3148 21.0001 16 21.0001H12C11.4477 21.0001 11 20.5523 11 20.0001C11 19.4478 11.4477 19.0001 12 19.0001H15.5L17.0072 16.9905C17.0025 16.9511 17 16.9109 17 16.87V10.5V10C17 7.24228 14.7577 5 12 5Z" fill="#B7B7B7"/>
</svg>
