<svg width="28" height="28" viewBox="0 0 28 28" fill="none" xmlns="http://www.w3.org/2000/svg">
<path fill-rule="evenodd" clip-rule="evenodd" d="M18.375 11.819C18.375 11.0858 18.9694 10.4915 19.7026 10.4915H26.6724C27.4056 10.4915 28 11.0858 28 11.819C28 12.5522 27.4056 13.1466 26.6724 13.1466H19.7026C18.9694 13.1466 18.375 12.5522 18.375 11.819Z" fill="#949494"/>
<path fill-rule="evenodd" clip-rule="evenodd" d="M23.1967 7C23.9299 7.0014 24.5231 7.59691 24.5217 8.33011L24.5084 15.2999C24.507 16.0331 23.9115 16.6264 23.1783 16.625C22.4451 16.6236 21.8519 16.0281 21.8533 15.2949L21.8665 8.32506C21.8679 7.59185 22.4635 6.99861 23.1967 7Z" fill="#949494"/>
<path d="M11.6666 14.0123C14.8917 14.0123 17.5062 11.3978 17.5062 8.17275C17.5062 4.94769 14.8917 2.33325 11.6666 2.33325C8.44158 2.33325 5.82715 4.94769 5.82715 8.17275C5.82715 11.3978 8.44158 14.0123 11.6666 14.0123Z" fill="#D0D0D0"/>
<path d="M21 25.6666H2.33333C1.04938 25.6666 0 24.6172 0 23.3333V22.4074C0 19.6543 1.87654 17.3086 4.5679 16.716C9.20987 15.679 14.1234 15.679 18.7654 16.716C21.4568 17.3086 23.3333 19.6543 23.3333 22.4074V23.3333C23.3333 24.6172 22.2839 25.6666 21 25.6666Z" fill="#D0D0D0"/>
</svg>
