<svg width="28" height="28" viewBox="0 0 28 28" fill="none" xmlns="http://www.w3.org/2000/svg">
<g clip-path="url(#clip0_430_2076)">
<path d="M11.6667 14.0123C14.8917 14.0123 17.5062 11.3978 17.5062 8.17276C17.5062 4.94769 14.8917 2.33325 11.6667 2.33325C8.44158 2.33325 5.82715 4.94769 5.82715 8.17276C5.82715 11.3978 8.44158 14.0123 11.6667 14.0123Z" fill="#D0D0D0"/>
<path d="M21 25.6666H2.33333C1.04938 25.6666 0 24.6172 0 23.3333V22.4074C0 19.6543 1.87654 17.3086 4.5679 16.716C9.20988 15.679 14.1235 15.679 18.7654 16.716C21.4568 17.3086 23.3333 19.6543 23.3333 22.4074V23.3333C23.3333 24.6172 22.284 25.6666 21 25.6666Z" fill="#D0D0D0"/>
<path d="M26.8641 12.6456C26.7452 12.5398 26.6262 12.4473 26.5072 12.3548C26.2429 12.1301 26.2429 11.7732 26.5072 11.5485C26.6262 11.456 26.7452 11.3635 26.8509 11.2577C27.1285 11.0198 27.1813 10.6894 27.0095 10.3721C26.7716 9.96241 26.5469 9.56588 26.309 9.15614C26.1239 8.83892 25.7935 8.71996 25.4498 8.85213C25.3045 8.905 25.1723 8.95787 25.0269 9.01074C24.7097 9.11649 24.4057 8.93144 24.3396 8.601C24.3131 8.45561 24.2867 8.32343 24.2735 8.17804C24.2206 7.82117 23.943 7.58325 23.6126 7.58325C23.1236 7.58325 22.6345 7.58325 22.1587 7.58325C21.8415 7.58325 21.5639 7.80795 21.511 8.12517C21.4846 8.28378 21.4582 8.44239 21.4317 8.601C21.3656 8.94466 21.0616 9.1297 20.7312 9.01074C20.5858 8.95787 20.4536 8.905 20.3214 8.85213C19.991 8.73318 19.6606 8.85213 19.4755 9.15614C19.2376 9.56588 18.9997 9.97562 18.7618 10.3854C18.59 10.6894 18.656 11.033 18.9204 11.2577C19.0393 11.3635 19.1583 11.456 19.2773 11.5485C19.5416 11.7732 19.5416 12.1301 19.2773 12.3548C19.1583 12.4473 19.0526 12.5398 18.9336 12.6323C18.656 12.8703 18.5899 13.2139 18.775 13.5311C18.9997 13.9409 19.2376 14.3374 19.4755 14.7471C19.6606 15.0644 19.991 15.1833 20.3347 15.0512C20.4801 14.9983 20.6122 14.9454 20.7576 14.8925C21.0748 14.7868 21.3788 14.9718 21.4449 15.3023C21.4714 15.4477 21.4978 15.5799 21.511 15.7252C21.5507 15.9764 21.6829 16.1746 21.934 16.2804C21.9869 16.3068 22.0397 16.32 22.0926 16.3333H23.7316C23.7316 16.3333 23.7448 16.3333 23.758 16.32C24.062 16.2539 24.2338 16.0557 24.2999 15.7517C24.3264 15.6063 24.3528 15.4609 24.3792 15.3155C24.4321 14.9718 24.7493 14.7868 25.0798 14.9058C25.2251 14.9586 25.3573 15.0115 25.5027 15.0644C25.8332 15.1833 26.1636 15.0644 26.3354 14.7604C26.5733 14.3506 26.8113 13.9409 27.0492 13.5179C27.221 13.2139 27.1549 12.8703 26.8906 12.6456H26.8641ZM22.8856 13.6369C21.9472 13.6369 21.1938 12.8835 21.1938 11.945C21.1938 11.0066 21.9472 10.2532 22.8856 10.2532C23.8241 10.2532 24.5775 11.0066 24.5775 11.945C24.5775 12.8835 23.8241 13.6369 22.8856 13.6369Z" fill="#949494"/>
</g>
<defs>
<clipPath id="clip0_430_2076">
<rect width="28" height="28" fill="white"/>
</clipPath>
</defs>
</svg>
