<svg width="46" height="46" viewBox="0 0 46 46" fill="none" xmlns="http://www.w3.org/2000/svg">
<circle cx="23" cy="23" r="23" fill="#F9F1FC"/>
<rect width="26" height="26" transform="translate(10 10)" fill="#F9F1FC"/>
<path fill-rule="evenodd" clip-rule="evenodd" d="M13.25 19.75H32.75V28.4167C32.75 30.8099 30.8099 32.75 28.4167 32.75H17.5833C15.1901 32.75 13.25 30.8099 13.25 28.4167V19.75ZM15.4167 21.9167V28.4167C15.4167 29.6133 16.3867 30.5833 17.5833 30.5833H28.4167C29.6133 30.5833 30.5833 29.6133 30.5833 28.4167V21.9167H15.4167Z" fill="#D69CEA"/>
<path fill-rule="evenodd" clip-rule="evenodd" d="M13.25 15.4167H32.75V19.7501H13.25V15.4167ZM15.4167 16.8612V18.3056H30.5833V16.8612H15.4167Z" fill="#D69CEA"/>
<path fill-rule="evenodd" clip-rule="evenodd" d="M17.5832 12.1667C18.1815 12.1667 18.6665 12.6518 18.6665 13.2501V17.5834C18.6665 18.1817 18.1815 18.6667 17.5832 18.6667C16.9849 18.6667 16.4998 18.1817 16.4998 17.5834V13.2501C16.4998 12.6518 16.9849 12.1667 17.5832 12.1667Z" fill="#D69CEA"/>
<path fill-rule="evenodd" clip-rule="evenodd" d="M28.4167 12.1667C29.015 12.1667 29.5 12.6518 29.5 13.2501V17.5834C29.5 18.1817 29.015 18.6667 28.4167 18.6667C27.8184 18.6667 27.3333 18.1817 27.3333 17.5834V13.2501C27.3333 12.6518 27.8184 12.1667 28.4167 12.1667Z" fill="#D69CEA"/>
<rect x="15.4165" y="16.5" width="16.25" height="3.25" fill="#D69CEA"/>
</svg>
