<svg width="46" height="46" viewBox="0 0 46 46" fill="none" xmlns="http://www.w3.org/2000/svg">
<circle cx="23" cy="23" r="23" fill="#EFFAE7"/>
<g clip-path="url(#clip0_4866_9120)">
<path d="M22.9998 31.6667C28.9829 31.6667 33.8332 27.544 33.8332 22.4583C33.8332 17.3727 28.9829 13.25 22.9998 13.25C17.0168 13.25 12.1665 17.3727 12.1665 22.4583C12.1665 27.544 17.0168 31.6667 22.9998 31.6667Z" fill="#83DA75"/>
<path d="M26.3904 30.6374C26.1846 30.6374 29.3371 31.9699 31.6446 32.9232C32.5221 33.2916 33.4104 32.4249 33.0746 31.5366L30.9079 25.9141L26.3904 30.6482V30.6374Z" fill="#83DA75"/>
</g>
<path d="M18.6668 24.0834C19.2651 24.0834 19.7502 23.5984 19.7502 23.0001C19.7502 22.4018 19.2651 21.9167 18.6668 21.9167C18.0685 21.9167 17.5835 22.4018 17.5835 23.0001C17.5835 23.5984 18.0685 24.0834 18.6668 24.0834Z" fill="white"/>
<path d="M23.0003 24.0834C23.5986 24.0834 24.0837 23.5984 24.0837 23.0001C24.0837 22.4018 23.5986 21.9167 23.0003 21.9167C22.402 21.9167 21.917 22.4018 21.917 23.0001C21.917 23.5984 22.402 24.0834 23.0003 24.0834Z" fill="white"/>
<path d="M27.3333 24.0834C27.9316 24.0834 28.4167 23.5984 28.4167 23.0001C28.4167 22.4018 27.9316 21.9167 27.3333 21.9167C26.735 21.9167 26.25 22.4018 26.25 23.0001C26.25 23.5984 26.735 24.0834 27.3333 24.0834Z" fill="white"/>
<defs>
<clipPath id="clip0_4866_9120">
<rect width="21.6667" height="19.76" fill="white" transform="translate(12.1665 13.25)"/>
</clipPath>
</defs>
</svg>
