<svg width="46" height="46" viewBox="0 0 46 46" fill="none" xmlns="http://www.w3.org/2000/svg">
<circle cx="23" cy="23" r="23" fill="#FFECAC"/>
<path d="M27.6236 22.6437C29.8045 22.6437 31.5725 20.8758 31.5725 18.6949C31.5725 16.514 29.8045 14.7461 27.6236 14.7461C25.4428 14.7461 23.6748 16.514 23.6748 18.6949C23.6748 20.8758 25.4428 22.6437 27.6236 22.6437Z" fill="#ECAA00"/>
<path d="M33.9365 30.5293H21.31C20.4447 30.5293 19.7256 29.8224 19.7256 28.9448V28.3233C19.7256 26.4586 20.9931 24.8741 22.8091 24.472C25.9535 23.7773 29.2686 23.7773 32.413 24.472C34.229 24.8741 35.4965 26.4586 35.4965 28.3233V28.9448C35.4965 29.8102 34.7896 30.5293 33.9121 30.5293H33.9365Z" fill="#ECAA00"/>
<path d="M17.8731 22.6437C20.0547 22.6437 21.822 20.8765 21.822 18.6949C21.822 16.5133 20.0547 14.7461 17.8731 14.7461C15.6915 14.7461 13.9243 16.5133 13.9243 18.6949C13.9243 20.8765 15.6915 22.6437 17.8731 22.6437Z" fill="#ECAA00"/>
<path d="M18.5192 28.3233C18.5192 26.6048 19.348 25.0813 20.6765 24.1429C18.1536 23.826 15.5576 23.9235 13.0835 24.472C11.2675 24.8741 10 26.4586 10 28.3233V28.9448C10 29.8102 10.7069 30.5171 11.5722 30.5171H19.0189C18.7142 30.0661 18.5314 29.5299 18.5314 28.9448V28.3233H18.5192Z" fill="#ECAA00"/>
</svg>
