<svg width="16" height="16" viewBox="0 0 16 16" fill="none" xmlns="http://www.w3.org/2000/svg">
<path fill-rule="evenodd" clip-rule="evenodd" d="M6.64201 2.27217C6.88716 1.48132 7.78628 1.1028 8.52325 1.48016L9.76488 2.11593C10.1674 2.32206 10.4381 2.7182 10.4837 3.16815L10.6811 5.11425H12.7028C13.7168 5.11425 14.6667 5.86628 14.6667 6.9434V6.98458L14.0175 12.2204C13.991 13.273 13.0537 14.0037 12.0541 14.0037H4.99554L5.22529 13.2391V7.04428C5.22529 6.91043 5.24544 6.77734 5.28507 6.6495L6.64201 2.27217ZM6.78836 12.6704H12.0541C12.4731 12.6704 12.6847 12.3815 12.6847 12.1746V12.1334L13.332 6.91361C13.313 6.70987 13.102 6.44758 12.7028 6.44758H9.47624L9.15719 3.30273L7.91555 2.66695L6.55862 7.04428V12.6703L6.78836 12.6704Z" fill="#118E8E"/>
<path fill-rule="evenodd" clip-rule="evenodd" d="M2 8.00372C2 6.89915 2.89543 6.00372 4 6.00372H6.66667V14.0037H4C2.89543 14.0037 2 13.1083 2 12.0037V8.00372ZM4 7.33706C3.63181 7.33706 3.33333 7.63553 3.33333 8.00372V12.0037C3.33333 12.3719 3.63181 12.6704 4 12.6704H5.33333V7.33706H4Z" fill="#118E8E"/>
<rect x="2.66669" y="7.33331" width="4" height="6" fill="#118E8E"/>
</svg>
